<?xml version="1.0" standalone="no"?>
 <!DOCTYPE svg PUBLIC "-//W3C//DTD SVG 1.1//EN" 
 "http://www.w3.org/Graphics/SVG/1.1/DTD/svg11.dtd"> 
<svg xmlns="http://www.w3.org/2000/svg" version="1.1" 
    width="7.59714cm" height="5.4737cm" viewBox="0 0 29910 21550 ">
<title>SVG Picture created as SG8F080P.svg date 2019/12/23 19:47:10 </title>
  <desc>Picture generated by Eeschema-SVG </desc>
<g style="fill:#000000; fill-opacity:1;stroke:#000000; stroke-opacity:1;
stroke-linecap:round; stroke-linejoin:round; "
 transform="translate(0 0) scale(1 1)">
</g>
<g style="fill:#840000; fill-opacity:0.0; 
stroke:#840000; stroke-width:-10; stroke-opacity:1; 
stroke-linecap:round; stroke-linejoin:round;">
</g>
<g style="fill:#FFFFC2; fill-opacity:0.0; 
stroke:#FFFFC2; stroke-width:-10; stroke-opacity:1; 
stroke-linecap:round; stroke-linejoin:round;">
</g>
<g style="fill:#FFFFC2; fill-opacity:0.6; 
stroke:#FFFFC2; stroke-width:0; stroke-opacity:1; 
stroke-linecap:round; stroke-linejoin:round;">
<rect x="5450" y="3770" width="18000" height="14000" rx="0" />
</g>
<g style="fill:#840000; fill-opacity:0.6; 
stroke:#840000; stroke-width:0; stroke-opacity:1; 
stroke-linecap:round; stroke-linejoin:round;">
</g>
<g style="fill:#840000; fill-opacity:0.0; 
stroke:#840000; stroke-width:100; stroke-opacity:1; 
stroke-linecap:round; stroke-linejoin:round;">
<rect x="5450" y="3770" width="18000" height="14000" rx="0" />
</g>
<g style="fill:#840000; fill-opacity:0.0; 
stroke:#840000; stroke-width:60; stroke-opacity:1; 
stroke-linecap:round; stroke-linejoin:round;">
<path d="M5450 7270
L3950 7270
" />
</g>
<g style="fill:#008484; fill-opacity:0.0; 
stroke:#008484; stroke-width:60; stroke-opacity:1; 
stroke-linecap:round; stroke-linejoin:round;">
<path d="M5790 7490
L5790 6990
L5980 6990
L6030 7020
L6060 7040
L6080 7090
L6080 7160
L6060 7210
L6030 7230
L5980 7250
L5790 7250
" />
<path d="M6390 6990
L6440 6990
L6480 7020
L6510 7040
L6530 7090
L6560 7180
L6560 7300
L6530 7400
L6510 7440
L6480 7470
L6440 7490
L6390 7490
L6340 7470
L6320 7440
L6290 7400
L6270 7300
L6270 7180
L6290 7090
L6320 7040
L6340 7020
L6390 6990
" />
<path d="M6980 7160
L6980 7490
" />
<path d="M6870 6970
L6750 7320
L7060 7320
" />
</g>
<g style="fill:#840000; fill-opacity:0.0; 
stroke:#840000; stroke-width:60; stroke-opacity:1; 
stroke-linecap:round; stroke-linejoin:round;">
<path d="M4840 7140
L4550 7140
" />
<path d="M4700 7140
L4700 6640
L4650 6710
L4600 6760
L4550 6780
" />
<path d="M26450 4770
L24950 4770
" />
</g>
<g style="fill:#008484; fill-opacity:0.0; 
stroke:#008484; stroke-width:60; stroke-opacity:1; 
stroke-linecap:round; stroke-linejoin:round;">
<path d="M26720 4490
L27010 4490
" />
<path d="M26870 4990
L26870 4490
" />
<path d="M27150 4970
L27220 4990
L27340 4990
L27390 4970
L27410 4940
L27440 4900
L27440 4850
L27410 4800
L27390 4780
L27340 4750
L27250 4730
L27200 4710
L27180 4680
L27150 4630
L27150 4590
L27180 4540
L27200 4520
L27250 4490
L27370 4490
L27440 4520
" />
<path d="M27530 5040
L27910 5040
" />
<path d="M27980 4490
L28290 4490
L28130 4680
L28200 4680
L28250 4710
L28270 4730
L28290 4780
L28290 4900
L28270 4940
L28250 4970
L28200 4990
L28060 4990
L28010 4970
L27980 4940
" />
</g>
<g style="fill:#840000; fill-opacity:0.0; 
stroke:#840000; stroke-width:60; stroke-opacity:1; 
stroke-linecap:round; stroke-linejoin:round;">
<path d="M25600 4640
L25310 4640
" />
<path d="M25460 4640
L25460 4140
L25410 4210
L25360 4260
L25310 4280
" />
<path d="M25910 4140
L25960 4140
L26000 4170
L26030 4190
L26050 4240
L26080 4330
L26080 4450
L26050 4550
L26030 4590
L26000 4620
L25960 4640
L25910 4640
L25860 4620
L25840 4590
L25810 4550
L25790 4450
L25790 4330
L25810 4240
L25840 4190
L25860 4170
L25910 4140
" />
<path d="M5450 4770
L3950 4770
" />
</g>
<g style="fill:#008484; fill-opacity:0.0; 
stroke:#008484; stroke-width:60; stroke-opacity:1; 
stroke-linecap:round; stroke-linejoin:round;">
<path d="M5720 4490
L6010 4490
" />
<path d="M5870 4990
L5870 4490
" />
<path d="M6150 4970
L6220 4990
L6340 4990
L6390 4970
L6410 4940
L6440 4900
L6440 4850
L6410 4800
L6390 4780
L6340 4750
L6250 4730
L6200 4710
L6180 4680
L6150 4630
L6150 4590
L6180 4540
L6200 4520
L6250 4490
L6370 4490
L6440 4520
" />
<path d="M6530 5040
L6910 5040
" />
<path d="M7010 4540
L7030 4520
L7080 4490
L7200 4490
L7250 4520
L7270 4540
L7290 4590
L7290 4630
L7270 4710
L6980 4990
L7290 4990
" />
</g>
<g style="fill:#840000; fill-opacity:0.0; 
stroke:#840000; stroke-width:60; stroke-opacity:1; 
stroke-linecap:round; stroke-linejoin:round;">
<path d="M4600 4640
L4310 4640
" />
<path d="M4460 4640
L4460 4140
L4410 4210
L4360 4260
L4310 4280
" />
<path d="M5080 4640
L4790 4640
" />
<path d="M4930 4640
L4930 4140
L4890 4210
L4840 4260
L4790 4280
" />
<path d="M26450 6270
L24950 6270
" />
</g>
<g style="fill:#008484; fill-opacity:0.0; 
stroke:#008484; stroke-width:60; stroke-opacity:1; 
stroke-linecap:round; stroke-linejoin:round;">
<path d="M26720 5990
L27010 5990
" />
<path d="M26870 6490
L26870 5990
" />
<path d="M27150 6470
L27220 6490
L27340 6490
L27390 6470
L27410 6440
L27440 6400
L27440 6350
L27410 6300
L27390 6280
L27340 6250
L27250 6230
L27200 6210
L27180 6180
L27150 6130
L27150 6090
L27180 6040
L27200 6020
L27250 5990
L27370 5990
L27440 6020
" />
<path d="M27530 6540
L27910 6540
" />
<path d="M28290 6490
L28010 6490
" />
<path d="M28150 6490
L28150 5990
L28100 6060
L28060 6110
L28010 6130
" />
</g>
<g style="fill:#840000; fill-opacity:0.0; 
stroke:#840000; stroke-width:60; stroke-opacity:1; 
stroke-linecap:round; stroke-linejoin:round;">
<path d="M25600 6140
L25310 6140
" />
<path d="M25460 6140
L25460 5640
L25410 5710
L25360 5760
L25310 5780
" />
<path d="M25790 5690
L25810 5670
L25860 5640
L25980 5640
L26030 5670
L26050 5690
L26080 5740
L26080 5780
L26050 5860
L25770 6140
L26080 6140
" />
<path d="M15450 19270
L16950 19270
" />
</g>
<g style="fill:#008484; fill-opacity:0.0; 
stroke:#008484; stroke-width:60; stroke-opacity:1; 
stroke-linecap:round; stroke-linejoin:round;">
<path d="M13550 18990
L13830 18990
" />
<path d="M13690 19490
L13690 18990
" />
<path d="M13980 19470
L14050 19490
L14170 19490
L14210 19470
L14240 19440
L14260 19400
L14260 19350
L14240 19300
L14210 19280
L14170 19250
L14070 19230
L14020 19210
L14000 19180
L13980 19130
L13980 19090
L14000 19040
L14020 19020
L14070 18990
L14190 18990
L14260 19020
" />
<path d="M14360 19540
L14740 19540
" />
<path d="M14950 18990
L15000 18990
L15050 19020
L15070 19040
L15100 19090
L15120 19180
L15120 19300
L15100 19400
L15070 19440
L15050 19470
L15000 19490
L14950 19490
L14910 19470
L14880 19440
L14860 19400
L14830 19300
L14830 19180
L14860 19090
L14880 19040
L14910 19020
L14950 18990
" />
</g>
<g style="fill:#840000; fill-opacity:0.0; 
stroke:#840000; stroke-width:60; stroke-opacity:1; 
stroke-linecap:round; stroke-linejoin:round;">
<path d="M16100 19140
L15810 19140
" />
<path d="M15960 19140
L15960 18640
L15910 18710
L15860 18760
L15810 18780
" />
<path d="M16270 18640
L16580 18640
L16410 18830
L16480 18830
L16530 18860
L16550 18880
L16580 18930
L16580 19050
L16550 19090
L16530 19120
L16480 19140
L16340 19140
L16290 19120
L16270 19090
" />
<path d="M23450 15770
L24950 15770
" />
</g>
<g style="fill:#008484; fill-opacity:0.0; 
stroke:#008484; stroke-width:60; stroke-opacity:1; 
stroke-linecap:round; stroke-linejoin:round;">
<path d="M21860 15490
L22020 15990
L22190 15490
" />
<path d="M22640 15940
L22620 15970
L22550 15990
L22500 15990
L22430 15970
L22380 15920
L22360 15870
L22330 15780
L22330 15710
L22360 15610
L22380 15560
L22430 15520
L22500 15490
L22550 15490
L22620 15520
L22640 15540
" />
<path d="M22830 15540
L22860 15520
L22910 15490
L23020 15490
L23070 15520
L23100 15540
L23120 15590
L23120 15630
L23100 15710
L22810 15990
L23120 15990
" />
</g>
<g style="fill:#840000; fill-opacity:0.0; 
stroke:#840000; stroke-width:60; stroke-opacity:1; 
stroke-linecap:round; stroke-linejoin:round;">
<path d="M24100 15640
L23810 15640
" />
<path d="M23960 15640
L23960 15140
L23910 15210
L23860 15260
L23810 15280
" />
<path d="M24530 15310
L24530 15640
" />
<path d="M24410 15120
L24290 15470
L24600 15470
" />
<path d="M23450 16770
L24950 16770
" />
</g>
<g style="fill:#008484; fill-opacity:0.0; 
stroke:#008484; stroke-width:60; stroke-opacity:1; 
stroke-linecap:round; stroke-linejoin:round;">
<path d="M21860 16490
L22020 16990
L22190 16490
" />
<path d="M22640 16940
L22620 16970
L22550 16990
L22500 16990
L22430 16970
L22380 16920
L22360 16870
L22330 16780
L22330 16710
L22360 16610
L22380 16560
L22430 16520
L22500 16490
L22550 16490
L22620 16520
L22640 16540
" />
<path d="M23120 16990
L22830 16990
" />
<path d="M22980 16990
L22980 16490
L22930 16560
L22880 16610
L22830 16630
" />
</g>
<g style="fill:#840000; fill-opacity:0.0; 
stroke:#840000; stroke-width:60; stroke-opacity:1; 
stroke-linecap:round; stroke-linejoin:round;">
<path d="M24100 16640
L23810 16640
" />
<path d="M23960 16640
L23960 16140
L23910 16210
L23860 16260
L23810 16280
" />
<path d="M24550 16140
L24310 16140
L24290 16380
L24310 16360
L24360 16330
L24480 16330
L24530 16360
L24550 16380
L24580 16430
L24580 16550
L24550 16590
L24530 16620
L24480 16640
L24360 16640
L24310 16620
L24290 16590
" />
<path d="M16950 3770
L16950 2270
" />
</g>
<g style="fill:#008484; fill-opacity:0.0; 
stroke:#008484; stroke-width:60; stroke-opacity:1; 
stroke-linecap:round; stroke-linejoin:round;">
<path d="M16700 5140
L16670 5190
L16670 5260
L16700 5330
L16740 5380
L16790 5400
L16890 5420
L16960 5420
L17050 5400
L17100 5380
L17150 5330
L17170 5260
L17170 5210
L17150 5140
L17120 5110
L16960 5110
L16960 5210
" />
<path d="M17170 4900
L16670 4900
L17170 4610
L16670 4610
" />
<path d="M17170 4380
L16670 4380
L16670 4260
L16700 4190
L16740 4140
L16790 4110
L16890 4090
L16960 4090
L17050 4110
L17100 4140
L17150 4190
L17170 4260
L17170 4380
" />
</g>
<g style="fill:#840000; fill-opacity:0.0; 
stroke:#840000; stroke-width:60; stroke-opacity:1; 
stroke-linecap:round; stroke-linejoin:round;">
<path d="M16820 3110
L16820 3400
" />
<path d="M16820 3250
L16320 3250
L16390 3300
L16440 3350
L16460 3400
" />
<path d="M16320 2680
L16320 2780
L16350 2820
L16370 2850
L16440 2900
L16540 2920
L16730 2920
L16770 2900
L16800 2870
L16820 2820
L16820 2730
L16800 2680
L16770 2660
L16730 2630
L16610 2630
L16560 2660
L16540 2680
L16510 2730
L16510 2820
L16540 2870
L16560 2900
L16610 2920
" />
<path d="M24950 8770
L24950 7270
" />
</g>
<g style="fill:#008484; fill-opacity:0.0; 
stroke:#008484; stroke-width:60; stroke-opacity:1; 
stroke-linecap:round; stroke-linejoin:round;">
<path d="M24670 10380
L25170 10210
L24670 10040
" />
<path d="M25170 9880
L24670 9880
L24670 9760
L24700 9690
L24740 9640
L24790 9610
L24890 9590
L24960 9590
L25050 9610
L25100 9640
L25150 9690
L25170 9760
L25170 9880
" />
<path d="M25170 9380
L24670 9380
L24670 9260
L24700 9190
L24740 9140
L24790 9110
L24890 9090
L24960 9090
L25050 9110
L25100 9140
L25150 9190
L25170 9260
L25170 9380
" />
</g>
<g style="fill:#840000; fill-opacity:0.0; 
stroke:#840000; stroke-width:60; stroke-opacity:1; 
stroke-linecap:round; stroke-linejoin:round;">
<path d="M24820 8110
L24820 8400
" />
<path d="M24820 8250
L24320 8250
L24390 8300
L24440 8350
L24460 8400
" />
<path d="M24320 7940
L24320 7610
L24820 7820
" />
<path d="M23450 8270
L24950 8270
" />
</g>
<g style="fill:#008484; fill-opacity:0.0; 
stroke:#008484; stroke-width:60; stroke-opacity:1; 
stroke-linecap:round; stroke-linejoin:round;">
<path d="M18170 8490
L18000 8250
" />
<path d="M17880 8490
L17880 7990
L18070 7990
L18120 8020
L18140 8040
L18170 8090
L18170 8160
L18140 8210
L18120 8230
L18070 8250
L17880 8250
" />
<path d="M18360 8470
L18430 8490
L18550 8490
L18600 8470
L18620 8440
L18640 8400
L18640 8350
L18620 8300
L18600 8280
L18550 8250
L18450 8230
L18410 8210
L18380 8180
L18360 8130
L18360 8090
L18380 8040
L18410 8020
L18450 7990
L18570 7990
L18640 8020
" />
<path d="M18790 7990
L19070 7990
" />
<path d="M18930 8490
L18930 7990
" />
<path d="M19120 8540
L19500 8540
" />
<path d="M19620 8230
L19790 8230
" />
<path d="M19860 8490
L19620 8490
L19620 7990
L19860 7990
" />
<path d="M20020 7990
L20360 8490
" />
<path d="M20360 7990
L20020 8490
" />
<path d="M20480 7990
L20760 7990
" />
<path d="M20620 8490
L20620 7990
" />
<path d="M20930 8490
L20930 7990
" />
<path d="M20930 8180
L20980 8160
L21070 8160
L21120 8180
L21140 8210
L21170 8250
L21170 8400
L21140 8440
L21120 8470
L21070 8490
L20980 8490
L20930 8470
" />
<path d="M21740 7970
L21310 8610
" />
<path d="M21830 7990
L22000 8490
L22170 7990
" />
<path d="M22330 8490
L22330 7990
L22520 7990
L22570 8020
L22600 8040
L22620 8090
L22620 8160
L22600 8210
L22570 8230
L22520 8250
L22330 8250
" />
<path d="M22830 8490
L22830 7990
L23020 7990
L23070 8020
L23100 8040
L23120 8090
L23120 8160
L23100 8210
L23070 8230
L23020 8250
L22830 8250
" />
</g>
<g style="fill:#840000; fill-opacity:0.0; 
stroke:#840000; stroke-width:60; stroke-opacity:1; 
stroke-linecap:round; stroke-linejoin:round;">
<path d="M24100 8140
L23810 8140
" />
<path d="M23960 8140
L23960 7640
L23910 7710
L23860 7760
L23810 7780
" />
<path d="M24390 7860
L24340 7830
L24310 7810
L24290 7760
L24290 7740
L24310 7690
L24340 7670
L24390 7640
L24480 7640
L24530 7670
L24550 7690
L24580 7740
L24580 7760
L24550 7810
L24530 7830
L24480 7860
L24390 7860
L24340 7880
L24310 7900
L24290 7950
L24290 8050
L24310 8090
L24340 8120
L24390 8140
L24480 8140
L24530 8120
L24550 8090
L24580 8050
L24580 7950
L24550 7900
L24530 7880
L24480 7860
" />
<path d="M23450 9270
L24950 9270
" />
</g>
<g style="fill:#008484; fill-opacity:0.0; 
stroke:#008484; stroke-width:60; stroke-opacity:1; 
stroke-linecap:round; stroke-linejoin:round;">
<path d="M21880 9490
L21880 8990
L22070 8990
L22120 9020
L22140 9040
L22170 9090
L22170 9160
L22140 9210
L22120 9230
L22070 9250
L21880 9250
" />
<path d="M22360 9040
L22380 9020
L22430 8990
L22550 8990
L22600 9020
L22620 9040
L22640 9090
L22640 9130
L22620 9210
L22330 9490
L22640 9490
" />
<path d="M23120 9490
L22830 9490
" />
<path d="M22980 9490
L22980 8990
L22930 9060
L22880 9110
L22830 9130
" />
</g>
<g style="fill:#840000; fill-opacity:0.0; 
stroke:#840000; stroke-width:60; stroke-opacity:1; 
stroke-linecap:round; stroke-linejoin:round;">
<path d="M24100 9140
L23810 9140
" />
<path d="M23960 9140
L23960 8640
L23910 8710
L23860 8760
L23810 8780
" />
<path d="M24340 9140
L24430 9140
L24480 9120
L24500 9090
L24550 9020
L24580 8930
L24580 8740
L24550 8690
L24530 8670
L24480 8640
L24390 8640
L24340 8670
L24310 8690
L24290 8740
L24290 8860
L24310 8900
L24340 8930
L24390 8950
L24480 8950
L24530 8930
L24550 8900
L24580 8860
" />
<path d="M5450 8270
L3950 8270
" />
</g>
<g style="fill:#008484; fill-opacity:0.0; 
stroke:#008484; stroke-width:60; stroke-opacity:1; 
stroke-linecap:round; stroke-linejoin:round;">
<path d="M5790 8490
L5790 7990
L5980 7990
L6030 8020
L6060 8040
L6080 8090
L6080 8160
L6060 8210
L6030 8230
L5980 8250
L5790 8250
" />
<path d="M6390 7990
L6440 7990
L6480 8020
L6510 8040
L6530 8090
L6560 8180
L6560 8300
L6530 8400
L6510 8440
L6480 8470
L6440 8490
L6390 8490
L6340 8470
L6320 8440
L6290 8400
L6270 8300
L6270 8180
L6290 8090
L6320 8040
L6340 8020
L6390 7990
" />
<path d="M6720 7990
L7030 7990
L6870 8180
L6940 8180
L6980 8210
L7010 8230
L7030 8280
L7030 8400
L7010 8440
L6980 8470
L6940 8490
L6790 8490
L6750 8470
L6720 8440
" />
</g>
<g style="fill:#840000; fill-opacity:0.0; 
stroke:#840000; stroke-width:60; stroke-opacity:1; 
stroke-linecap:round; stroke-linejoin:round;">
<path d="M4550 7690
L4580 7670
L4620 7640
L4740 7640
L4790 7670
L4810 7690
L4840 7740
L4840 7780
L4810 7860
L4530 8140
L4840 8140
" />
<path d="M23450 10270
L24950 10270
" />
</g>
<g style="fill:#008484; fill-opacity:0.0; 
stroke:#008484; stroke-width:60; stroke-opacity:1; 
stroke-linecap:round; stroke-linejoin:round;">
<path d="M21880 10490
L21880 9990
L22070 9990
L22120 10020
L22140 10040
L22170 10090
L22170 10160
L22140 10210
L22120 10230
L22070 10250
L21880 10250
" />
<path d="M22360 10040
L22380 10020
L22430 9990
L22550 9990
L22600 10020
L22620 10040
L22640 10090
L22640 10130
L22620 10210
L22330 10490
L22640 10490
" />
<path d="M22950 9990
L23000 9990
L23050 10020
L23070 10040
L23100 10090
L23120 10180
L23120 10300
L23100 10400
L23070 10440
L23050 10470
L23000 10490
L22950 10490
L22910 10470
L22880 10440
L22860 10400
L22830 10300
L22830 10180
L22860 10090
L22880 10040
L22910 10020
L22950 9990
" />
</g>
<g style="fill:#840000; fill-opacity:0.0; 
stroke:#840000; stroke-width:60; stroke-opacity:1; 
stroke-linecap:round; stroke-linejoin:round;">
<path d="M23810 9690
L23840 9670
L23890 9640
L24000 9640
L24050 9670
L24080 9690
L24100 9740
L24100 9780
L24080 9860
L23790 10140
L24100 10140
" />
<path d="M24410 9640
L24460 9640
L24500 9670
L24530 9690
L24550 9740
L24580 9830
L24580 9950
L24550 10050
L24530 10090
L24500 10120
L24460 10140
L24410 10140
L24360 10120
L24340 10090
L24310 10050
L24290 9950
L24290 9830
L24310 9740
L24340 9690
L24360 9670
L24410 9640
" />
<path d="M23450 11270
L24950 11270
" />
</g>
<g style="fill:#008484; fill-opacity:0.0; 
stroke:#008484; stroke-width:60; stroke-opacity:1; 
stroke-linecap:round; stroke-linejoin:round;">
<path d="M21690 10990
L21790 10990
L21830 11020
L21880 11060
L21910 11160
L21910 11320
L21880 11420
L21830 11470
L21790 11490
L21690 11490
L21640 11470
L21600 11420
L21570 11320
L21570 11160
L21600 11060
L21640 11020
L21690 10990
" />
<path d="M22100 11470
L22170 11490
L22290 11490
L22330 11470
L22360 11440
L22380 11400
L22380 11350
L22360 11300
L22330 11280
L22290 11250
L22190 11230
L22140 11210
L22120 11180
L22100 11130
L22100 11090
L22120 11040
L22140 11020
L22190 10990
L22310 10990
L22380 11020
" />
<path d="M22880 11440
L22860 11470
L22790 11490
L22740 11490
L22670 11470
L22620 11420
L22600 11370
L22570 11280
L22570 11210
L22600 11110
L22620 11060
L22670 11020
L22740 10990
L22790 10990
L22860 11020
L22880 11040
" />
<path d="M23100 11490
L23100 10990
" />
</g>
<g style="fill:#840000; fill-opacity:0.0; 
stroke:#840000; stroke-width:60; stroke-opacity:1; 
stroke-linecap:round; stroke-linejoin:round;">
<path d="M23810 10690
L23840 10670
L23890 10640
L24000 10640
L24050 10670
L24080 10690
L24100 10740
L24100 10780
L24080 10860
L23790 11140
L24100 11140
" />
<path d="M24580 11140
L24290 11140
" />
<path d="M24430 11140
L24430 10640
L24390 10710
L24340 10760
L24290 10780
" />
<path d="M23450 12270
L24950 12270
" />
</g>
<g style="fill:#008484; fill-opacity:0.0; 
stroke:#008484; stroke-width:60; stroke-opacity:1; 
stroke-linecap:round; stroke-linejoin:round;">
<path d="M21880 12490
L21880 11990
L22070 11990
L22120 12020
L22140 12040
L22170 12090
L22170 12160
L22140 12210
L22120 12230
L22070 12250
L21880 12250
" />
<path d="M22480 11990
L22520 11990
L22570 12020
L22600 12040
L22620 12090
L22640 12180
L22640 12300
L22620 12400
L22600 12440
L22570 12470
L22520 12490
L22480 12490
L22430 12470
L22410 12440
L22380 12400
L22360 12300
L22360 12180
L22380 12090
L22410 12040
L22430 12020
L22480 11990
" />
<path d="M22810 11990
L23140 11990
L22930 12490
" />
</g>
<g style="fill:#840000; fill-opacity:0.0; 
stroke:#840000; stroke-width:60; stroke-opacity:1; 
stroke-linecap:round; stroke-linejoin:round;">
<path d="M23810 11690
L23840 11670
L23890 11640
L24000 11640
L24050 11670
L24080 11690
L24100 11740
L24100 11780
L24080 11860
L23790 12140
L24100 12140
" />
<path d="M24290 11690
L24310 11670
L24360 11640
L24480 11640
L24530 11670
L24550 11690
L24580 11740
L24580 11780
L24550 11860
L24270 12140
L24580 12140
" />
<path d="M23450 13270
L24950 13270
" />
</g>
<g style="fill:#008484; fill-opacity:0.0; 
stroke:#008484; stroke-width:60; stroke-opacity:1; 
stroke-linecap:round; stroke-linejoin:round;">
<path d="M21880 13490
L21880 12990
L22070 12990
L22120 13020
L22140 13040
L22170 13090
L22170 13160
L22140 13210
L22120 13230
L22070 13250
L21880 13250
" />
<path d="M22480 12990
L22520 12990
L22570 13020
L22600 13040
L22620 13090
L22640 13180
L22640 13300
L22620 13400
L22600 13440
L22570 13470
L22520 13490
L22480 13490
L22430 13470
L22410 13440
L22380 13400
L22360 13300
L22360 13180
L22380 13090
L22410 13040
L22430 13020
L22480 12990
" />
<path d="M23070 12990
L22980 12990
L22930 13020
L22910 13040
L22860 13110
L22830 13210
L22830 13400
L22860 13440
L22880 13470
L22930 13490
L23020 13490
L23070 13470
L23100 13440
L23120 13400
L23120 13280
L23100 13230
L23070 13210
L23020 13180
L22930 13180
L22880 13210
L22860 13230
L22830 13280
" />
</g>
<g style="fill:#840000; fill-opacity:0.0; 
stroke:#840000; stroke-width:60; stroke-opacity:1; 
stroke-linecap:round; stroke-linejoin:round;">
<path d="M23810 12690
L23840 12670
L23890 12640
L24000 12640
L24050 12670
L24080 12690
L24100 12740
L24100 12780
L24080 12860
L23790 13140
L24100 13140
" />
<path d="M24270 12640
L24580 12640
L24410 12830
L24480 12830
L24530 12860
L24550 12880
L24580 12930
L24580 13050
L24550 13090
L24530 13120
L24480 13140
L24340 13140
L24290 13120
L24270 13090
" />
<path d="M23450 14770
L24950 14770
" />
</g>
<g style="fill:#008484; fill-opacity:0.0; 
stroke:#008484; stroke-width:60; stroke-opacity:1; 
stroke-linecap:round; stroke-linejoin:round;">
<path d="M21880 14990
L21880 14490
L22070 14490
L22120 14520
L22140 14540
L22170 14590
L22170 14660
L22140 14710
L22120 14730
L22070 14750
L21880 14750
" />
<path d="M22480 14490
L22520 14490
L22570 14520
L22600 14540
L22620 14590
L22640 14680
L22640 14800
L22620 14900
L22600 14940
L22570 14970
L22520 14990
L22480 14990
L22430 14970
L22410 14940
L22380 14900
L22360 14800
L22360 14680
L22380 14590
L22410 14540
L22430 14520
L22480 14490
" />
<path d="M23100 14490
L22860 14490
L22830 14730
L22860 14710
L22910 14680
L23020 14680
L23070 14710
L23100 14730
L23120 14780
L23120 14900
L23100 14940
L23070 14970
L23020 14990
L22910 14990
L22860 14970
L22830 14940
" />
</g>
<g style="fill:#840000; fill-opacity:0.0; 
stroke:#840000; stroke-width:60; stroke-opacity:1; 
stroke-linecap:round; stroke-linejoin:round;">
<path d="M23810 14190
L23840 14170
L23890 14140
L24000 14140
L24050 14170
L24080 14190
L24100 14240
L24100 14280
L24080 14360
L23790 14640
L24100 14640
" />
<path d="M24530 14310
L24530 14640
" />
<path d="M24410 14120
L24290 14470
L24600 14470
" />
<path d="M5450 10270
L3950 10270
" />
</g>
<g style="fill:#008484; fill-opacity:0.0; 
stroke:#008484; stroke-width:60; stroke-opacity:1; 
stroke-linecap:round; stroke-linejoin:round;">
<path d="M5790 10490
L5790 9990
L5980 9990
L6030 10020
L6060 10040
L6080 10090
L6080 10160
L6060 10210
L6030 10230
L5980 10250
L5790 10250
" />
<path d="M6390 9990
L6440 9990
L6480 10020
L6510 10040
L6530 10090
L6560 10180
L6560 10300
L6530 10400
L6510 10440
L6480 10470
L6440 10490
L6390 10490
L6340 10470
L6320 10440
L6290 10400
L6270 10300
L6270 10180
L6290 10090
L6320 10040
L6340 10020
L6390 9990
" />
<path d="M6750 10040
L6770 10020
L6820 9990
L6940 9990
L6980 10020
L7010 10040
L7030 10090
L7030 10130
L7010 10210
L6720 10490
L7030 10490
" />
</g>
<g style="fill:#840000; fill-opacity:0.0; 
stroke:#840000; stroke-width:60; stroke-opacity:1; 
stroke-linecap:round; stroke-linejoin:round;">
<path d="M4530 9640
L4840 9640
L4670 9830
L4740 9830
L4790 9860
L4810 9880
L4840 9930
L4840 10050
L4810 10090
L4790 10120
L4740 10140
L4600 10140
L4550 10120
L4530 10090
" />
<path d="M5450 11270
L3950 11270
" />
</g>
<g style="fill:#008484; fill-opacity:0.0; 
stroke:#008484; stroke-width:60; stroke-opacity:1; 
stroke-linecap:round; stroke-linejoin:round;">
<path d="M5790 11490
L5790 10990
L5980 10990
L6030 11020
L6060 11040
L6080 11090
L6080 11160
L6060 11210
L6030 11230
L5980 11250
L5790 11250
" />
<path d="M6390 10990
L6440 10990
L6480 11020
L6510 11040
L6530 11090
L6560 11180
L6560 11300
L6530 11400
L6510 11440
L6480 11470
L6440 11490
L6390 11490
L6340 11470
L6320 11440
L6290 11400
L6270 11300
L6270 11180
L6290 11090
L6320 11040
L6340 11020
L6390 10990
" />
<path d="M7030 11490
L6750 11490
" />
<path d="M6890 11490
L6890 10990
L6840 11060
L6790 11110
L6750 11130
" />
</g>
<g style="fill:#840000; fill-opacity:0.0; 
stroke:#840000; stroke-width:60; stroke-opacity:1; 
stroke-linecap:round; stroke-linejoin:round;">
<path d="M4790 10810
L4790 11140
" />
<path d="M4670 10620
L4550 10970
L4860 10970
" />
<path d="M14450 2270
L12950 2270
" />
</g>
<g style="fill:#008484; fill-opacity:0.0; 
stroke:#008484; stroke-width:60; stroke-opacity:1; 
stroke-linecap:round; stroke-linejoin:round;">
<path d="M14790 2490
L14790 1990
L14980 1990
L15030 2020
L15060 2040
L15080 2090
L15080 2160
L15060 2210
L15030 2230
L14980 2250
L14790 2250
" />
<path d="M15390 1990
L15440 1990
L15480 2020
L15510 2040
L15530 2090
L15560 2180
L15560 2300
L15530 2400
L15510 2440
L15480 2470
L15440 2490
L15390 2490
L15340 2470
L15320 2440
L15290 2400
L15270 2300
L15270 2180
L15290 2090
L15320 2040
L15340 2020
L15390 1990
" />
<path d="M15870 1990
L15910 1990
L15960 2020
L15980 2040
L16010 2090
L16030 2180
L16030 2300
L16010 2400
L15980 2440
L15960 2470
L15910 2490
L15870 2490
L15820 2470
L15790 2440
L15770 2400
L15750 2300
L15750 2180
L15770 2090
L15790 2040
L15820 2020
L15870 1990
" />
</g>
<g style="fill:#840000; fill-opacity:0.0; 
stroke:#840000; stroke-width:60; stroke-opacity:1; 
stroke-linecap:round; stroke-linejoin:round;">
<path d="M13810 1640
L13580 1640
L13550 1880
L13580 1860
L13620 1830
L13740 1830
L13790 1860
L13810 1880
L13840 1930
L13840 2050
L13810 2090
L13790 2120
L13740 2140
L13620 2140
L13580 2120
L13550 2090
" />
<path d="M14450 19270
L12950 19270
" />
</g>
<g style="fill:#008484; fill-opacity:0.0; 
stroke:#008484; stroke-width:60; stroke-opacity:1; 
stroke-linecap:round; stroke-linejoin:round;">
<path d="M14720 18990
L15010 18990
" />
<path d="M14870 19490
L14870 18990
" />
<path d="M15150 19470
L15220 19490
L15340 19490
L15390 19470
L15410 19440
L15440 19400
L15440 19350
L15410 19300
L15390 19280
L15340 19250
L15250 19230
L15200 19210
L15180 19180
L15150 19130
L15150 19090
L15180 19040
L15200 19020
L15250 18990
L15370 18990
L15440 19020
" />
<path d="M15530 19540
L15910 19540
" />
<path d="M15980 18990
L16320 18990
L16100 19490
" />
</g>
<g style="fill:#840000; fill-opacity:0.0; 
stroke:#840000; stroke-width:60; stroke-opacity:1; 
stroke-linecap:round; stroke-linejoin:round;">
<path d="M13790 18640
L13700 18640
L13650 18670
L13620 18690
L13580 18760
L13550 18860
L13550 19050
L13580 19090
L13600 19120
L13650 19140
L13740 19140
L13790 19120
L13810 19090
L13840 19050
L13840 18930
L13810 18880
L13790 18860
L13740 18830
L13650 18830
L13600 18860
L13580 18880
L13550 18930
" />
<path d="M5450 16770
L3950 16770
" />
</g>
<g style="fill:#008484; fill-opacity:0.0; 
stroke:#008484; stroke-width:60; stroke-opacity:1; 
stroke-linecap:round; stroke-linejoin:round;">
<path d="M5720 16490
L6010 16490
" />
<path d="M5870 16990
L5870 16490
" />
<path d="M6150 16970
L6220 16990
L6340 16990
L6390 16970
L6410 16940
L6440 16900
L6440 16850
L6410 16800
L6390 16780
L6340 16750
L6250 16730
L6200 16710
L6180 16680
L6150 16630
L6150 16590
L6180 16540
L6200 16520
L6250 16490
L6370 16490
L6440 16520
" />
<path d="M6530 17040
L6910 17040
" />
<path d="M7250 16490
L7150 16490
L7100 16520
L7080 16540
L7030 16610
L7010 16710
L7010 16900
L7030 16940
L7060 16970
L7100 16990
L7200 16990
L7250 16970
L7270 16940
L7290 16900
L7290 16780
L7270 16730
L7250 16710
L7200 16680
L7100 16680
L7060 16710
L7030 16730
L7010 16780
" />
</g>
<g style="fill:#840000; fill-opacity:0.0; 
stroke:#840000; stroke-width:60; stroke-opacity:1; 
stroke-linecap:round; stroke-linejoin:round;">
<path d="M4530 16140
L4860 16140
L4650 16640
" />
<path d="M5450 13270
L3950 13270
" />
</g>
<g style="fill:#008484; fill-opacity:0.0; 
stroke:#008484; stroke-width:60; stroke-opacity:1; 
stroke-linecap:round; stroke-linejoin:round;">
<path d="M5720 12990
L6010 12990
" />
<path d="M5870 13490
L5870 12990
" />
<path d="M6150 13470
L6220 13490
L6340 13490
L6390 13470
L6410 13440
L6440 13400
L6440 13350
L6410 13300
L6390 13280
L6340 13250
L6250 13230
L6200 13210
L6180 13180
L6150 13130
L6150 13090
L6180 13040
L6200 13020
L6250 12990
L6370 12990
L6440 13020
" />
<path d="M6530 13540
L6910 13540
" />
<path d="M7270 12990
L7030 12990
L7010 13230
L7030 13210
L7080 13180
L7200 13180
L7250 13210
L7270 13230
L7290 13280
L7290 13400
L7270 13440
L7250 13470
L7200 13490
L7080 13490
L7030 13470
L7010 13440
" />
</g>
<g style="fill:#840000; fill-opacity:0.0; 
stroke:#840000; stroke-width:60; stroke-opacity:1; 
stroke-linecap:round; stroke-linejoin:round;">
<path d="M4650 12860
L4600 12830
L4580 12810
L4550 12760
L4550 12740
L4580 12690
L4600 12670
L4650 12640
L4740 12640
L4790 12670
L4810 12690
L4840 12740
L4840 12760
L4810 12810
L4790 12830
L4740 12860
L4650 12860
L4600 12880
L4580 12900
L4550 12950
L4550 13050
L4580 13090
L4600 13120
L4650 13140
L4740 13140
L4790 13120
L4810 13090
L4840 13050
L4840 12950
L4810 12900
L4790 12880
L4740 12860
" />
<path d="M5450 14270
L3950 14270
" />
</g>
<g style="fill:#008484; fill-opacity:0.0; 
stroke:#008484; stroke-width:60; stroke-opacity:1; 
stroke-linecap:round; stroke-linejoin:round;">
<path d="M5720 13990
L6010 13990
" />
<path d="M5870 14490
L5870 13990
" />
<path d="M6150 14470
L6220 14490
L6340 14490
L6390 14470
L6410 14440
L6440 14400
L6440 14350
L6410 14300
L6390 14280
L6340 14250
L6250 14230
L6200 14210
L6180 14180
L6150 14130
L6150 14090
L6180 14040
L6200 14020
L6250 13990
L6370 13990
L6440 14020
" />
<path d="M6530 14540
L6910 14540
" />
<path d="M7250 14160
L7250 14490
" />
<path d="M7130 13970
L7010 14320
L7320 14320
" />
</g>
<g style="fill:#840000; fill-opacity:0.0; 
stroke:#840000; stroke-width:60; stroke-opacity:1; 
stroke-linecap:round; stroke-linejoin:round;">
<path d="M4600 14140
L4700 14140
L4740 14120
L4770 14090
L4810 14020
L4840 13930
L4840 13740
L4810 13690
L4790 13670
L4740 13640
L4650 13640
L4600 13670
L4580 13690
L4550 13740
L4550 13860
L4580 13900
L4600 13930
L4650 13950
L4740 13950
L4790 13930
L4810 13900
L4840 13860
" />
</g>
<g style="fill:#840084; fill-opacity:0.0; 
stroke:#840084; stroke-width:60; stroke-opacity:1; 
stroke-linecap:round; stroke-linejoin:round;">
</g>
<g style="fill:#008484; fill-opacity:0.0; 
stroke:#008484; stroke-width:60; stroke-opacity:1; 
stroke-linecap:round; stroke-linejoin:round;">
<path d="M5590 3010
L5590 3420
L5610 3460
L5640 3490
L5680 3510
L5780 3510
L5830 3490
L5850 3460
L5870 3420
L5870 3010
" />
<path d="M6180 3460
L6210 3490
L6180 3510
L6160 3490
L6180 3460
L6180 3510
" />
<path d="M6090 3040
L6140 3010
L6250 3010
L6300 3040
L6330 3080
L6330 3130
L6300 3180
L6280 3200
L6230 3230
L6210 3250
L6180 3300
L6180 3320
" />
<path d="M19140 18490
L19210 18510
L19330 18510
L19370 18490
L19400 18460
L19420 18420
L19420 18370
L19400 18320
L19370 18300
L19330 18270
L19230 18250
L19180 18230
L19160 18200
L19140 18150
L19140 18110
L19160 18060
L19180 18040
L19230 18010
L19350 18010
L19420 18040
" />
<path d="M19900 18040
L19850 18010
L19780 18010
L19710 18040
L19660 18080
L19640 18130
L19610 18230
L19610 18300
L19640 18390
L19660 18440
L19710 18490
L19780 18510
L19830 18510
L19900 18490
L19920 18460
L19920 18300
L19830 18300
" />
<path d="M20210 18230
L20160 18200
L20140 18180
L20110 18130
L20110 18110
L20140 18060
L20160 18040
L20210 18010
L20300 18010
L20350 18040
L20370 18060
L20400 18110
L20400 18130
L20370 18180
L20350 18200
L20300 18230
L20210 18230
L20160 18250
L20140 18270
L20110 18320
L20110 18420
L20140 18460
L20160 18490
L20210 18510
L20300 18510
L20350 18490
L20370 18460
L20400 18420
L20400 18320
L20370 18270
L20350 18250
L20300 18230
" />
<path d="M20780 18250
L20610 18250
" />
<path d="M20610 18510
L20610 18010
L20850 18010
" />
<path d="M21140 18010
L21180 18010
L21230 18040
L21250 18060
L21280 18110
L21300 18200
L21300 18320
L21280 18420
L21250 18460
L21230 18490
L21180 18510
L21140 18510
L21090 18490
L21060 18460
L21040 18420
L21020 18320
L21020 18200
L21040 18110
L21060 18060
L21090 18040
L21140 18010
" />
<path d="M21590 18230
L21540 18200
L21520 18180
L21490 18130
L21490 18110
L21520 18060
L21540 18040
L21590 18010
L21680 18010
L21730 18040
L21750 18060
L21780 18110
L21780 18130
L21750 18180
L21730 18200
L21680 18230
L21590 18230
L21540 18250
L21520 18270
L21490 18320
L21490 18420
L21520 18460
L21540 18490
L21590 18510
L21680 18510
L21730 18490
L21750 18460
L21780 18420
L21780 18320
L21750 18270
L21730 18250
L21680 18230
" />
<path d="M22090 18010
L22140 18010
L22180 18040
L22210 18060
L22230 18110
L22250 18200
L22250 18320
L22230 18420
L22210 18460
L22180 18490
L22140 18510
L22090 18510
L22040 18490
L22020 18460
L21990 18420
L21970 18320
L21970 18200
L21990 18110
L22020 18060
L22040 18040
L22090 18010
" />
<path d="M22470 18510
L22470 18010
L22660 18010
L22710 18040
L22730 18060
L22750 18110
L22750 18180
L22730 18230
L22710 18250
L22660 18270
L22470 18270
" />
</g>
<g style="fill:#840084; fill-opacity:0.0; 
stroke:#840084; stroke-width:60; stroke-opacity:1; 
stroke-linecap:round; stroke-linejoin:round;">
<path d="M-2000 18510
L-1930 18010
L-1740 18010
L-1700 18040
L-1680 18060
L-1660 18110
L-1670 18180
L-1700 18230
L-1730 18250
L-1780 18270
L-1970 18270
" />
<path d="M-1280 18510
L-1250 18250
L-1270 18200
L-1310 18180
L-1410 18180
L-1460 18200
" />
<path d="M-1280 18490
L-1330 18510
L-1450 18510
L-1490 18490
L-1510 18440
L-1510 18390
L-1480 18340
L-1430 18320
L-1310 18320
L-1260 18300
" />
<path d="M-830 18490
L-880 18510
L-970 18510
L-1020 18490
L-1040 18460
L-1060 18420
L-1040 18270
L-1010 18230
L-980 18200
L-930 18180
L-840 18180
L-790 18200
" />
<path d="M-620 18510
L-550 18010
" />
<path d="M-550 18320
L-430 18510
" />
<path d="M-380 18180
L-600 18370
" />
<path d="M0 18510
L30 18250
L10 18200
L-30 18180
L-120 18180
L-170 18200
" />
<path d="M0 18490
L-50 18510
L-160 18510
L-210 18490
L-230 18440
L-220 18390
L-190 18340
L-140 18320
L-20 18320
L20 18300
" />
<path d="M490 18180
L440 18580
L410 18630
L380 18650
L330 18680
L260 18680
L210 18650
" />
<path d="M450 18490
L400 18510
L300 18510
L260 18490
L240 18460
L220 18420
L240 18270
L270 18230
L290 18200
L340 18180
L440 18180
L480 18200
" />
<path d="M880 18490
L830 18510
L730 18510
L690 18490
L670 18440
L690 18250
L720 18200
L770 18180
L870 18180
L910 18200
L930 18250
L920 18300
L680 18340
" />
<path d="M990 18560
L1370 18560
" />
<path d="M1470 18490
L1540 18510
L1660 18510
L1710 18490
L1740 18460
L1770 18420
L1770 18370
L1750 18320
L1730 18300
L1690 18270
L1600 18250
L1550 18230
L1530 18200
L1510 18150
L1520 18110
L1550 18060
L1580 18040
L1630 18010
L1750 18010
L1810 18040
" />
<path d="M2130 18010
L2220 18010
L2270 18040
L2310 18080
L2320 18180
L2300 18340
L2260 18440
L2210 18490
L2160 18510
L2060 18510
L2020 18490
L1980 18440
L1970 18340
L1990 18180
L2020 18080
L2080 18040
L2130 18010
" />
<path d="M2500 18460
L2520 18490
L2490 18510
L2470 18490
L2500 18460
L2490 18510
" />
<path d="M2530 18200
L2550 18230
L2530 18250
L2500 18230
L2530 18200
L2530 18250
" />
<path d="M2720 18010
L3010 18010
" />
<path d="M2800 18510
L2860 18010
" />
<path d="M3090 18490
L3160 18510
L3280 18510
L3330 18490
L3360 18460
L3390 18420
L3390 18370
L3370 18320
L3350 18300
L3310 18270
L3220 18250
L3170 18230
L3150 18200
L3130 18150
L3140 18110
L3170 18060
L3190 18040
L3250 18010
L3360 18010
L3430 18040
" />
<path d="M3570 18490
L3640 18510
L3750 18510
L3810 18490
L3830 18460
L3860 18420
L3870 18370
L3850 18320
L3830 18300
L3780 18270
L3690 18250
L3650 18230
L3630 18200
L3610 18150
L3610 18110
L3640 18060
L3670 18040
L3720 18010
L3840 18010
L3910 18040
" />
<path d="M4220 18010
L4320 18010
L4360 18040
L4400 18080
L4420 18180
L4390 18340
L4360 18440
L4310 18490
L4250 18510
L4160 18510
L4110 18490
L4070 18440
L4060 18340
L4080 18180
L4120 18080
L4170 18040
L4220 18010
" />
<path d="M4590 18510
L4650 18010
L4840 18010
L4890 18040
L4910 18060
L4920 18110
L4920 18180
L4890 18230
L4860 18250
L4810 18270
L4620 18270
" />
<path d="M5110 18320
L5490 18320
" />
<path d="M5740 18060
L5770 18040
L5820 18010
L5940 18010
L5980 18040
L6000 18060
L6020 18110
L6010 18150
L5980 18230
L5660 18510
L5970 18510
" />
<path d="M6440 18180
L6400 18510
" />
<path d="M6340 17990
L6180 18340
L6490 18340
" />
<path d="M6530 18560
L6920 18560
" />
<path d="M7300 18180
L7250 18510
" />
<path d="M7200 17990
L7040 18340
L7350 18340
" />
<path d="M7520 18460
L7540 18490
L7520 18510
L7500 18490
L7520 18460
L7520 18510
" />
<path d="M8010 18180
L7970 18510
" />
<path d="M7920 17990
L7750 18340
L8060 18340
" />
<path d="M8180 18510
L8490 18180
" />
<path d="M8220 18180
L8440 18510
" />
<path d="M8650 18010
L8980 18010
L8710 18510
" />
<path d="M9120 18460
L9140 18490
L9110 18510
L9090 18490
L9120 18460
L9110 18510
" />
<path d="M9460 18230
L9410 18200
L9390 18180
L9370 18130
L9380 18110
L9410 18060
L9430 18040
L9480 18010
L9580 18010
L9620 18040
L9640 18060
L9660 18110
L9660 18130
L9630 18180
L9600 18200
L9550 18230
L9460 18230
L9410 18250
L9380 18270
L9350 18320
L9340 18420
L9360 18460
L9380 18490
L9420 18510
L9520 18510
L9570 18490
L9590 18460
L9620 18420
L9640 18320
L9620 18270
L9600 18250
L9550 18230
" />
<path d="M9830 18510
L9870 18180
" />
<path d="M9860 18230
L9890 18200
L9940 18180
L10010 18180
L10060 18200
L10070 18250
L10040 18510
" />
<path d="M10070 18250
L10100 18200
L10150 18180
L10220 18180
L10270 18200
L10290 18250
L10250 18510
" />
<path d="M10490 18510
L10530 18180
" />
<path d="M10530 18230
L10560 18200
L10610 18180
L10680 18180
L10720 18200
L10740 18250
L10710 18510
" />
<path d="M10740 18250
L10770 18200
L10820 18180
L10890 18180
L10940 18200
L10950 18250
L10920 18510
" />
<path d="M11030 18560
L11420 18560
" />
<path d="M11540 18510
L11600 18010
L11790 18010
L11840 18040
L11860 18060
L11880 18110
L11870 18180
L11840 18230
L11810 18250
L11760 18270
L11570 18270
" />
<path d="M12200 18010
L12250 18010
L12290 18040
L12310 18060
L12330 18110
L12340 18200
L12330 18320
L12290 18420
L12260 18460
L12230 18490
L12180 18510
L12140 18510
L12090 18490
L12070 18460
L12050 18420
L12040 18320
L12060 18200
L12090 18110
L12120 18060
L12150 18040
L12200 18010
" />
<path d="M12520 18460
L12540 18490
L12520 18510
L12500 18490
L12520 18460
L12520 18510
" />
<path d="M13030 18010
L12940 18010
L12890 18040
L12860 18060
L12800 18130
L12770 18230
L12740 18420
L12760 18460
L12780 18490
L12830 18510
L12920 18510
L12970 18490
L13000 18460
L13030 18420
L13040 18300
L13030 18250
L13000 18230
L12960 18200
L12860 18200
L12810 18230
L12790 18250
L12760 18300
" />
<path d="M13530 18010
L13290 18010
L13240 18250
L13270 18230
L13320 18200
L13440 18200
L13480 18230
L13500 18250
L13520 18300
L13500 18420
L13470 18460
L13450 18490
L13400 18510
L13280 18510
L13230 18490
L13210 18460
" />
<path d="M13710 18510
L13750 18180
" />
<path d="M13740 18230
L13770 18200
L13820 18180
L13890 18180
L13940 18200
L13950 18250
L13920 18510
" />
<path d="M13950 18250
L13980 18200
L14030 18180
L14110 18180
L14150 18200
L14170 18250
L14140 18510
" />
<path d="M14370 18510
L14420 18180
" />
<path d="M14410 18230
L14440 18200
L14490 18180
L14560 18180
L14600 18200
L14620 18250
L14590 18510
" />
<path d="M14620 18250
L14650 18200
L14700 18180
L14770 18180
L14820 18200
L14830 18250
L14800 18510
" />
</g> 
</svg>
