G04 #@! TF.GenerationSoftware,KiCad,Pcbnew,(5.1.2)-1*
G04 #@! TF.CreationDate,2019-12-30T19:16:01+01:00*
G04 #@! TF.ProjectId,Winner_RGB_M3A_MOD,57696e6e-6572-45f5-9247-425f4d33415f,rev?*
G04 #@! TF.SameCoordinates,Original*
G04 #@! TF.FileFunction,Soldermask,Bot*
G04 #@! TF.FilePolarity,Negative*
%FSLAX46Y46*%
G04 Gerber Fmt 4.6, Leading zero omitted, Abs format (unit mm)*
G04 Created by KiCad (PCBNEW (5.1.2)-1) date 2019-12-30 19:16:01*
%MOMM*%
%LPD*%
G04 APERTURE LIST*
%ADD10O,1.750000X1.200000*%
%ADD11C,0.100000*%
%ADD12C,1.200000*%
%ADD13O,1.600000X1.600000*%
%ADD14R,1.600000X1.600000*%
%ADD15C,1.600000*%
%ADD16C,2.000000*%
G04 APERTURE END LIST*
D10*
X88138000Y-112869000D03*
X88138000Y-110869000D03*
X88138000Y-108869000D03*
X88138000Y-106869000D03*
X88138000Y-104869000D03*
X88138000Y-102869000D03*
X88138000Y-100869000D03*
X88138000Y-98869000D03*
X88138000Y-96869000D03*
D11*
G36*
X88787505Y-94270204D02*
G01*
X88811773Y-94273804D01*
X88835572Y-94279765D01*
X88858671Y-94288030D01*
X88880850Y-94298520D01*
X88901893Y-94311132D01*
X88921599Y-94325747D01*
X88939777Y-94342223D01*
X88956253Y-94360401D01*
X88970868Y-94380107D01*
X88983480Y-94401150D01*
X88993970Y-94423329D01*
X89002235Y-94446428D01*
X89008196Y-94470227D01*
X89011796Y-94494495D01*
X89013000Y-94518999D01*
X89013000Y-95219001D01*
X89011796Y-95243505D01*
X89008196Y-95267773D01*
X89002235Y-95291572D01*
X88993970Y-95314671D01*
X88983480Y-95336850D01*
X88970868Y-95357893D01*
X88956253Y-95377599D01*
X88939777Y-95395777D01*
X88921599Y-95412253D01*
X88901893Y-95426868D01*
X88880850Y-95439480D01*
X88858671Y-95449970D01*
X88835572Y-95458235D01*
X88811773Y-95464196D01*
X88787505Y-95467796D01*
X88763001Y-95469000D01*
X87512999Y-95469000D01*
X87488495Y-95467796D01*
X87464227Y-95464196D01*
X87440428Y-95458235D01*
X87417329Y-95449970D01*
X87395150Y-95439480D01*
X87374107Y-95426868D01*
X87354401Y-95412253D01*
X87336223Y-95395777D01*
X87319747Y-95377599D01*
X87305132Y-95357893D01*
X87292520Y-95336850D01*
X87282030Y-95314671D01*
X87273765Y-95291572D01*
X87267804Y-95267773D01*
X87264204Y-95243505D01*
X87263000Y-95219001D01*
X87263000Y-94518999D01*
X87264204Y-94494495D01*
X87267804Y-94470227D01*
X87273765Y-94446428D01*
X87282030Y-94423329D01*
X87292520Y-94401150D01*
X87305132Y-94380107D01*
X87319747Y-94360401D01*
X87336223Y-94342223D01*
X87354401Y-94325747D01*
X87374107Y-94311132D01*
X87395150Y-94298520D01*
X87417329Y-94288030D01*
X87440428Y-94279765D01*
X87464227Y-94273804D01*
X87488495Y-94270204D01*
X87512999Y-94269000D01*
X88763001Y-94269000D01*
X88787505Y-94270204D01*
X88787505Y-94270204D01*
G37*
D12*
X88138000Y-94869000D03*
D13*
X92456000Y-114173000D03*
X100076000Y-109093000D03*
X92456000Y-111633000D03*
X100076000Y-111633000D03*
X92456000Y-109093000D03*
D14*
X100076000Y-114173000D03*
D15*
X105791000Y-98070666D03*
X105791000Y-103070666D03*
D16*
X82527000Y-84582000D03*
X82527000Y-80082000D03*
X89027000Y-84582000D03*
X89027000Y-80082000D03*
D13*
X92456000Y-94699666D03*
X100076000Y-89619666D03*
X92456000Y-92159666D03*
X100076000Y-92159666D03*
X92456000Y-89619666D03*
D14*
X100076000Y-94699666D03*
D13*
X82169000Y-89027000D03*
D15*
X89789000Y-89027000D03*
D13*
X105791000Y-80010000D03*
D15*
X105791000Y-87630000D03*
D13*
X105791000Y-105791000D03*
D15*
X105791000Y-113411000D03*
X105791000Y-90350333D03*
X105791000Y-95350333D03*
D13*
X117094000Y-80010000D03*
X109474000Y-113030000D03*
X117094000Y-82550000D03*
X109474000Y-110490000D03*
X117094000Y-85090000D03*
X109474000Y-107950000D03*
X117094000Y-87630000D03*
X109474000Y-105410000D03*
X117094000Y-90170000D03*
X109474000Y-102870000D03*
X117094000Y-92710000D03*
X109474000Y-100330000D03*
X117094000Y-95250000D03*
X109474000Y-97790000D03*
X117094000Y-97790000D03*
X109474000Y-95250000D03*
X117094000Y-100330000D03*
X109474000Y-92710000D03*
X117094000Y-102870000D03*
X109474000Y-90170000D03*
X117094000Y-105410000D03*
X109474000Y-87630000D03*
X117094000Y-107950000D03*
X109474000Y-85090000D03*
X117094000Y-110490000D03*
X109474000Y-82550000D03*
X117094000Y-113030000D03*
D14*
X109474000Y-80010000D03*
D13*
X92456000Y-104436332D03*
X100076000Y-99356332D03*
X92456000Y-101896332D03*
X100076000Y-101896332D03*
X92456000Y-99356332D03*
D14*
X100076000Y-104436332D03*
D13*
X92456000Y-84963000D03*
X100076000Y-79883000D03*
X92456000Y-82423000D03*
X100076000Y-82423000D03*
X92456000Y-79883000D03*
D14*
X100076000Y-84963000D03*
M02*
