G04 #@! TF.GenerationSoftware,KiCad,Pcbnew,(5.1.2)-1*
G04 #@! TF.CreationDate,2019-12-30T19:16:01+01:00*
G04 #@! TF.ProjectId,Winner_RGB_M3A_MOD,57696e6e-6572-45f5-9247-425f4d33415f,rev?*
G04 #@! TF.SameCoordinates,Original*
G04 #@! TF.FileFunction,Legend,Top*
G04 #@! TF.FilePolarity,Positive*
%FSLAX46Y46*%
G04 Gerber Fmt 4.6, Leading zero omitted, Abs format (unit mm)*
G04 Created by KiCad (PCBNEW (5.1.2)-1) date 2019-12-30 19:16:01*
%MOMM*%
%LPD*%
G04 APERTURE LIST*
%ADD10C,0.120000*%
%ADD11C,0.150000*%
G04 APERTURE END LIST*
D10*
X87998000Y-94009000D02*
X89213000Y-94009000D01*
X84038000Y-94069000D02*
X81778000Y-94069000D01*
X84038000Y-94569000D02*
X81778000Y-94569000D01*
X85638000Y-113169000D02*
X85638000Y-114169000D01*
X84038000Y-113169000D02*
X85638000Y-113169000D01*
X84038000Y-114169000D02*
X84038000Y-113169000D01*
X85638000Y-114169000D02*
X84038000Y-114169000D01*
X85638000Y-94569000D02*
X85638000Y-93569000D01*
X84038000Y-94569000D02*
X85638000Y-94569000D01*
X84038000Y-93569000D02*
X84038000Y-94569000D01*
X85638000Y-93569000D02*
X84038000Y-93569000D01*
X87998000Y-114929000D02*
X87998000Y-114009000D01*
X87998000Y-92809000D02*
X87998000Y-93729000D01*
X86138000Y-112369000D02*
X81778000Y-112369000D01*
X86138000Y-95369000D02*
X86138000Y-112369000D01*
X81778000Y-95369000D02*
X86138000Y-95369000D01*
X87998000Y-114009000D02*
X87998000Y-113729000D01*
X89598000Y-114009000D02*
X87998000Y-114009000D01*
X89598000Y-114929000D02*
X89598000Y-114009000D01*
X81778000Y-114929000D02*
X89598000Y-114929000D01*
X81778000Y-92809000D02*
X81778000Y-114929000D01*
X89598000Y-92809000D02*
X81778000Y-92809000D01*
X89598000Y-93729000D02*
X89598000Y-92809000D01*
X87998000Y-93729000D02*
X89598000Y-93729000D01*
X87998000Y-94009000D02*
X87998000Y-93729000D01*
X93616000Y-115503000D02*
X95266000Y-115503000D01*
X93616000Y-107763000D02*
X93616000Y-115503000D01*
X98916000Y-107763000D02*
X93616000Y-107763000D01*
X98916000Y-115503000D02*
X98916000Y-107763000D01*
X97266000Y-115503000D02*
X98916000Y-115503000D01*
X95266000Y-115503000D02*
G75*
G02X97266000Y-115503000I1000000J0D01*
G01*
X106846000Y-97950666D02*
X107161000Y-97950666D01*
X104421000Y-97950666D02*
X104736000Y-97950666D01*
X106846000Y-103190666D02*
X107161000Y-103190666D01*
X104421000Y-103190666D02*
X104736000Y-103190666D01*
X107161000Y-103190666D02*
X107161000Y-97950666D01*
X104421000Y-103190666D02*
X104421000Y-97950666D01*
X82277000Y-81582000D02*
X82277000Y-83082000D01*
X83527000Y-85582000D02*
X88027000Y-85582000D01*
X89277000Y-83082000D02*
X89277000Y-81582000D01*
X88027000Y-79082000D02*
X83527000Y-79082000D01*
X93616000Y-96029666D02*
X95266000Y-96029666D01*
X93616000Y-88289666D02*
X93616000Y-96029666D01*
X98916000Y-88289666D02*
X93616000Y-88289666D01*
X98916000Y-96029666D02*
X98916000Y-88289666D01*
X97266000Y-96029666D02*
X98916000Y-96029666D01*
X95266000Y-96029666D02*
G75*
G02X97266000Y-96029666I1000000J0D01*
G01*
X82709000Y-87657000D02*
X82709000Y-87987000D01*
X89249000Y-87657000D02*
X82709000Y-87657000D01*
X89249000Y-87987000D02*
X89249000Y-87657000D01*
X82709000Y-90397000D02*
X82709000Y-90067000D01*
X89249000Y-90397000D02*
X82709000Y-90397000D01*
X89249000Y-90067000D02*
X89249000Y-90397000D01*
X107161000Y-80550000D02*
X106831000Y-80550000D01*
X107161000Y-87090000D02*
X107161000Y-80550000D01*
X106831000Y-87090000D02*
X107161000Y-87090000D01*
X104421000Y-80550000D02*
X104751000Y-80550000D01*
X104421000Y-87090000D02*
X104421000Y-80550000D01*
X104751000Y-87090000D02*
X104421000Y-87090000D01*
X107161000Y-106331000D02*
X106831000Y-106331000D01*
X107161000Y-112871000D02*
X107161000Y-106331000D01*
X106831000Y-112871000D02*
X107161000Y-112871000D01*
X104421000Y-106331000D02*
X104751000Y-106331000D01*
X104421000Y-112871000D02*
X104421000Y-106331000D01*
X104751000Y-112871000D02*
X104421000Y-112871000D01*
X106846000Y-90230333D02*
X107161000Y-90230333D01*
X104421000Y-90230333D02*
X104736000Y-90230333D01*
X106846000Y-95470333D02*
X107161000Y-95470333D01*
X104421000Y-95470333D02*
X104736000Y-95470333D01*
X107161000Y-95470333D02*
X107161000Y-90230333D01*
X104421000Y-95470333D02*
X104421000Y-90230333D01*
X115934000Y-78680000D02*
X114284000Y-78680000D01*
X115934000Y-114360000D02*
X115934000Y-78680000D01*
X110634000Y-114360000D02*
X115934000Y-114360000D01*
X110634000Y-78680000D02*
X110634000Y-114360000D01*
X112284000Y-78680000D02*
X110634000Y-78680000D01*
X114284000Y-78680000D02*
G75*
G02X112284000Y-78680000I-1000000J0D01*
G01*
X93616000Y-105766332D02*
X95266000Y-105766332D01*
X93616000Y-98026332D02*
X93616000Y-105766332D01*
X98916000Y-98026332D02*
X93616000Y-98026332D01*
X98916000Y-105766332D02*
X98916000Y-98026332D01*
X97266000Y-105766332D02*
X98916000Y-105766332D01*
X95266000Y-105766332D02*
G75*
G02X97266000Y-105766332I1000000J0D01*
G01*
X93616000Y-86293000D02*
X95266000Y-86293000D01*
X93616000Y-78553000D02*
X93616000Y-86293000D01*
X98916000Y-78553000D02*
X93616000Y-78553000D01*
X98916000Y-86293000D02*
X98916000Y-78553000D01*
X97266000Y-86293000D02*
X98916000Y-86293000D01*
X95266000Y-86293000D02*
G75*
G02X97266000Y-86293000I1000000J0D01*
G01*
D11*
X90140380Y-104202333D02*
X90854666Y-104202333D01*
X90997523Y-104249952D01*
X91092761Y-104345190D01*
X91140380Y-104488047D01*
X91140380Y-104583285D01*
X91140380Y-103202333D02*
X91140380Y-103773761D01*
X91140380Y-103488047D02*
X90140380Y-103488047D01*
X90283238Y-103583285D01*
X90378476Y-103678523D01*
X90426095Y-103773761D01*
X95504095Y-115955380D02*
X95504095Y-116764904D01*
X95551714Y-116860142D01*
X95599333Y-116907761D01*
X95694571Y-116955380D01*
X95885047Y-116955380D01*
X95980285Y-116907761D01*
X96027904Y-116860142D01*
X96075523Y-116764904D01*
X96075523Y-115955380D01*
X96980285Y-116288714D02*
X96980285Y-116955380D01*
X96742190Y-115907761D02*
X96504095Y-116622047D01*
X97123142Y-116622047D01*
X103648142Y-100737332D02*
X103695761Y-100784951D01*
X103743380Y-100927808D01*
X103743380Y-101023046D01*
X103695761Y-101165904D01*
X103600523Y-101261142D01*
X103505285Y-101308761D01*
X103314809Y-101356380D01*
X103171952Y-101356380D01*
X102981476Y-101308761D01*
X102886238Y-101261142D01*
X102791000Y-101165904D01*
X102743380Y-101023046D01*
X102743380Y-100927808D01*
X102791000Y-100784951D01*
X102838619Y-100737332D01*
X103743380Y-99784951D02*
X103743380Y-100356380D01*
X103743380Y-100070666D02*
X102743380Y-100070666D01*
X102886238Y-100165904D01*
X102981476Y-100261142D01*
X103029095Y-100356380D01*
X84443666Y-86986761D02*
X84586523Y-87034380D01*
X84824619Y-87034380D01*
X84919857Y-86986761D01*
X84967476Y-86939142D01*
X85015095Y-86843904D01*
X85015095Y-86748666D01*
X84967476Y-86653428D01*
X84919857Y-86605809D01*
X84824619Y-86558190D01*
X84634142Y-86510571D01*
X84538904Y-86462952D01*
X84491285Y-86415333D01*
X84443666Y-86320095D01*
X84443666Y-86224857D01*
X84491285Y-86129619D01*
X84538904Y-86082000D01*
X84634142Y-86034380D01*
X84872238Y-86034380D01*
X85015095Y-86082000D01*
X85348428Y-86034380D02*
X85586523Y-87034380D01*
X85777000Y-86320095D01*
X85967476Y-87034380D01*
X86205571Y-86034380D01*
X87110333Y-87034380D02*
X86538904Y-87034380D01*
X86824619Y-87034380D02*
X86824619Y-86034380D01*
X86729380Y-86177238D01*
X86634142Y-86272476D01*
X86538904Y-86320095D01*
X95504095Y-96482046D02*
X95504095Y-97291570D01*
X95551714Y-97386808D01*
X95599333Y-97434427D01*
X95694571Y-97482046D01*
X95885047Y-97482046D01*
X95980285Y-97434427D01*
X96027904Y-97386808D01*
X96075523Y-97291570D01*
X96075523Y-96482046D01*
X96504095Y-96577285D02*
X96551714Y-96529666D01*
X96646952Y-96482046D01*
X96885047Y-96482046D01*
X96980285Y-96529666D01*
X97027904Y-96577285D01*
X97075523Y-96672523D01*
X97075523Y-96767761D01*
X97027904Y-96910618D01*
X96456476Y-97482046D01*
X97075523Y-97482046D01*
X85812333Y-91849380D02*
X85479000Y-91373190D01*
X85240904Y-91849380D02*
X85240904Y-90849380D01*
X85621857Y-90849380D01*
X85717095Y-90897000D01*
X85764714Y-90944619D01*
X85812333Y-91039857D01*
X85812333Y-91182714D01*
X85764714Y-91277952D01*
X85717095Y-91325571D01*
X85621857Y-91373190D01*
X85240904Y-91373190D01*
X86145666Y-90849380D02*
X86764714Y-90849380D01*
X86431380Y-91230333D01*
X86574238Y-91230333D01*
X86669476Y-91277952D01*
X86717095Y-91325571D01*
X86764714Y-91420809D01*
X86764714Y-91658904D01*
X86717095Y-91754142D01*
X86669476Y-91801761D01*
X86574238Y-91849380D01*
X86288523Y-91849380D01*
X86193285Y-91801761D01*
X86145666Y-91754142D01*
X103873380Y-83986666D02*
X103397190Y-84320000D01*
X103873380Y-84558095D02*
X102873380Y-84558095D01*
X102873380Y-84177142D01*
X102921000Y-84081904D01*
X102968619Y-84034285D01*
X103063857Y-83986666D01*
X103206714Y-83986666D01*
X103301952Y-84034285D01*
X103349571Y-84081904D01*
X103397190Y-84177142D01*
X103397190Y-84558095D01*
X102968619Y-83605714D02*
X102921000Y-83558095D01*
X102873380Y-83462857D01*
X102873380Y-83224761D01*
X102921000Y-83129523D01*
X102968619Y-83081904D01*
X103063857Y-83034285D01*
X103159095Y-83034285D01*
X103301952Y-83081904D01*
X103873380Y-83653333D01*
X103873380Y-83034285D01*
X103873380Y-109767666D02*
X103397190Y-110101000D01*
X103873380Y-110339095D02*
X102873380Y-110339095D01*
X102873380Y-109958142D01*
X102921000Y-109862904D01*
X102968619Y-109815285D01*
X103063857Y-109767666D01*
X103206714Y-109767666D01*
X103301952Y-109815285D01*
X103349571Y-109862904D01*
X103397190Y-109958142D01*
X103397190Y-110339095D01*
X103873380Y-108815285D02*
X103873380Y-109386714D01*
X103873380Y-109101000D02*
X102873380Y-109101000D01*
X103016238Y-109196238D01*
X103111476Y-109291476D01*
X103159095Y-109386714D01*
X103648142Y-93016999D02*
X103695761Y-93064618D01*
X103743380Y-93207475D01*
X103743380Y-93302713D01*
X103695761Y-93445571D01*
X103600523Y-93540809D01*
X103505285Y-93588428D01*
X103314809Y-93636047D01*
X103171952Y-93636047D01*
X102981476Y-93588428D01*
X102886238Y-93540809D01*
X102791000Y-93445571D01*
X102743380Y-93302713D01*
X102743380Y-93207475D01*
X102791000Y-93064618D01*
X102838619Y-93016999D01*
X102838619Y-92636047D02*
X102791000Y-92588428D01*
X102743380Y-92493190D01*
X102743380Y-92255094D01*
X102791000Y-92159856D01*
X102838619Y-92112237D01*
X102933857Y-92064618D01*
X103029095Y-92064618D01*
X103171952Y-92112237D01*
X103743380Y-92683666D01*
X103743380Y-92064618D01*
X112522095Y-77132380D02*
X112522095Y-77941904D01*
X112569714Y-78037142D01*
X112617333Y-78084761D01*
X112712571Y-78132380D01*
X112903047Y-78132380D01*
X112998285Y-78084761D01*
X113045904Y-78037142D01*
X113093523Y-77941904D01*
X113093523Y-77132380D01*
X114045904Y-77132380D02*
X113569714Y-77132380D01*
X113522095Y-77608571D01*
X113569714Y-77560952D01*
X113664952Y-77513333D01*
X113903047Y-77513333D01*
X113998285Y-77560952D01*
X114045904Y-77608571D01*
X114093523Y-77703809D01*
X114093523Y-77941904D01*
X114045904Y-78037142D01*
X113998285Y-78084761D01*
X113903047Y-78132380D01*
X113664952Y-78132380D01*
X113569714Y-78084761D01*
X113522095Y-78037142D01*
X95504095Y-106218712D02*
X95504095Y-107028236D01*
X95551714Y-107123474D01*
X95599333Y-107171093D01*
X95694571Y-107218712D01*
X95885047Y-107218712D01*
X95980285Y-107171093D01*
X96027904Y-107123474D01*
X96075523Y-107028236D01*
X96075523Y-106218712D01*
X96456476Y-106218712D02*
X97075523Y-106218712D01*
X96742190Y-106599665D01*
X96885047Y-106599665D01*
X96980285Y-106647284D01*
X97027904Y-106694903D01*
X97075523Y-106790141D01*
X97075523Y-107028236D01*
X97027904Y-107123474D01*
X96980285Y-107171093D01*
X96885047Y-107218712D01*
X96599333Y-107218712D01*
X96504095Y-107171093D01*
X96456476Y-107123474D01*
X95504095Y-86745380D02*
X95504095Y-87554904D01*
X95551714Y-87650142D01*
X95599333Y-87697761D01*
X95694571Y-87745380D01*
X95885047Y-87745380D01*
X95980285Y-87697761D01*
X96027904Y-87650142D01*
X96075523Y-87554904D01*
X96075523Y-86745380D01*
X97075523Y-87745380D02*
X96504095Y-87745380D01*
X96789809Y-87745380D02*
X96789809Y-86745380D01*
X96694571Y-86888238D01*
X96599333Y-86983476D01*
X96504095Y-87031095D01*
M02*
