G04 #@! TF.GenerationSoftware,KiCad,Pcbnew,(5.1.2)-1*
G04 #@! TF.CreationDate,2019-12-30T19:16:01+01:00*
G04 #@! TF.ProjectId,Winner_RGB_M3A_MOD,57696e6e-6572-45f5-9247-425f4d33415f,rev?*
G04 #@! TF.SameCoordinates,Original*
G04 #@! TF.FileFunction,Copper,L2,Bot*
G04 #@! TF.FilePolarity,Positive*
%FSLAX46Y46*%
G04 Gerber Fmt 4.6, Leading zero omitted, Abs format (unit mm)*
G04 Created by KiCad (PCBNEW (5.1.2)-1) date 2019-12-30 19:16:01*
%MOMM*%
%LPD*%
G04 APERTURE LIST*
%ADD10O,1.750000X1.200000*%
%ADD11C,0.100000*%
%ADD12C,1.200000*%
%ADD13O,1.600000X1.600000*%
%ADD14R,1.600000X1.600000*%
%ADD15C,1.600000*%
%ADD16C,2.000000*%
%ADD17C,0.250000*%
%ADD18C,0.254000*%
G04 APERTURE END LIST*
D10*
X88138000Y-112869000D03*
X88138000Y-110869000D03*
X88138000Y-108869000D03*
X88138000Y-106869000D03*
X88138000Y-104869000D03*
X88138000Y-102869000D03*
X88138000Y-100869000D03*
X88138000Y-98869000D03*
X88138000Y-96869000D03*
D11*
G36*
X88787505Y-94270204D02*
G01*
X88811773Y-94273804D01*
X88835572Y-94279765D01*
X88858671Y-94288030D01*
X88880850Y-94298520D01*
X88901893Y-94311132D01*
X88921599Y-94325747D01*
X88939777Y-94342223D01*
X88956253Y-94360401D01*
X88970868Y-94380107D01*
X88983480Y-94401150D01*
X88993970Y-94423329D01*
X89002235Y-94446428D01*
X89008196Y-94470227D01*
X89011796Y-94494495D01*
X89013000Y-94518999D01*
X89013000Y-95219001D01*
X89011796Y-95243505D01*
X89008196Y-95267773D01*
X89002235Y-95291572D01*
X88993970Y-95314671D01*
X88983480Y-95336850D01*
X88970868Y-95357893D01*
X88956253Y-95377599D01*
X88939777Y-95395777D01*
X88921599Y-95412253D01*
X88901893Y-95426868D01*
X88880850Y-95439480D01*
X88858671Y-95449970D01*
X88835572Y-95458235D01*
X88811773Y-95464196D01*
X88787505Y-95467796D01*
X88763001Y-95469000D01*
X87512999Y-95469000D01*
X87488495Y-95467796D01*
X87464227Y-95464196D01*
X87440428Y-95458235D01*
X87417329Y-95449970D01*
X87395150Y-95439480D01*
X87374107Y-95426868D01*
X87354401Y-95412253D01*
X87336223Y-95395777D01*
X87319747Y-95377599D01*
X87305132Y-95357893D01*
X87292520Y-95336850D01*
X87282030Y-95314671D01*
X87273765Y-95291572D01*
X87267804Y-95267773D01*
X87264204Y-95243505D01*
X87263000Y-95219001D01*
X87263000Y-94518999D01*
X87264204Y-94494495D01*
X87267804Y-94470227D01*
X87273765Y-94446428D01*
X87282030Y-94423329D01*
X87292520Y-94401150D01*
X87305132Y-94380107D01*
X87319747Y-94360401D01*
X87336223Y-94342223D01*
X87354401Y-94325747D01*
X87374107Y-94311132D01*
X87395150Y-94298520D01*
X87417329Y-94288030D01*
X87440428Y-94279765D01*
X87464227Y-94273804D01*
X87488495Y-94270204D01*
X87512999Y-94269000D01*
X88763001Y-94269000D01*
X88787505Y-94270204D01*
X88787505Y-94270204D01*
G37*
D12*
X88138000Y-94869000D03*
D13*
X92456000Y-114173000D03*
X100076000Y-109093000D03*
X92456000Y-111633000D03*
X100076000Y-111633000D03*
X92456000Y-109093000D03*
D14*
X100076000Y-114173000D03*
D15*
X105791000Y-98070666D03*
X105791000Y-103070666D03*
D16*
X82527000Y-84582000D03*
X82527000Y-80082000D03*
X89027000Y-84582000D03*
X89027000Y-80082000D03*
D13*
X92456000Y-94699666D03*
X100076000Y-89619666D03*
X92456000Y-92159666D03*
X100076000Y-92159666D03*
X92456000Y-89619666D03*
D14*
X100076000Y-94699666D03*
D13*
X82169000Y-89027000D03*
D15*
X89789000Y-89027000D03*
D13*
X105791000Y-80010000D03*
D15*
X105791000Y-87630000D03*
D13*
X105791000Y-105791000D03*
D15*
X105791000Y-113411000D03*
X105791000Y-90350333D03*
X105791000Y-95350333D03*
D13*
X117094000Y-80010000D03*
X109474000Y-113030000D03*
X117094000Y-82550000D03*
X109474000Y-110490000D03*
X117094000Y-85090000D03*
X109474000Y-107950000D03*
X117094000Y-87630000D03*
X109474000Y-105410000D03*
X117094000Y-90170000D03*
X109474000Y-102870000D03*
X117094000Y-92710000D03*
X109474000Y-100330000D03*
X117094000Y-95250000D03*
X109474000Y-97790000D03*
X117094000Y-97790000D03*
X109474000Y-95250000D03*
X117094000Y-100330000D03*
X109474000Y-92710000D03*
X117094000Y-102870000D03*
X109474000Y-90170000D03*
X117094000Y-105410000D03*
X109474000Y-87630000D03*
X117094000Y-107950000D03*
X109474000Y-85090000D03*
X117094000Y-110490000D03*
X109474000Y-82550000D03*
X117094000Y-113030000D03*
D14*
X109474000Y-80010000D03*
D13*
X92456000Y-104436332D03*
X100076000Y-99356332D03*
X92456000Y-101896332D03*
X100076000Y-101896332D03*
X92456000Y-99356332D03*
D14*
X100076000Y-104436332D03*
D13*
X92456000Y-84963000D03*
X100076000Y-79883000D03*
X92456000Y-82423000D03*
X100076000Y-82423000D03*
X92456000Y-79883000D03*
D14*
X100076000Y-84963000D03*
D17*
X117094000Y-99198630D02*
X117094000Y-97790000D01*
X117094000Y-100330000D02*
X117094000Y-99198630D01*
X114935000Y-110871000D02*
X114935000Y-102489000D01*
X114935000Y-102489000D02*
X117094000Y-100330000D01*
X88413000Y-110869000D02*
X90678000Y-113134000D01*
X88138000Y-110869000D02*
X88413000Y-110869000D01*
X90678000Y-113134000D02*
X90678000Y-115189000D01*
X90678000Y-115189000D02*
X91567000Y-116078000D01*
X91567000Y-116078000D02*
X109728000Y-116078000D01*
X109728000Y-116078000D02*
X114935000Y-110871000D01*
X90880989Y-90118989D02*
X89789000Y-89027000D01*
X90880989Y-99764601D02*
X90880989Y-90118989D01*
X87863000Y-110869000D02*
X86937990Y-109943990D01*
X88138000Y-110869000D02*
X87863000Y-110869000D01*
X86937990Y-109943990D02*
X86937990Y-102485849D01*
X86937990Y-102485849D02*
X87479849Y-101943990D01*
X87479849Y-101943990D02*
X88701600Y-101943990D01*
X88701600Y-101943990D02*
X90880989Y-99764601D01*
X108712000Y-110490000D02*
X109474000Y-110490000D01*
X105791000Y-113411000D02*
X108712000Y-110490000D01*
X106590999Y-103870665D02*
X105791000Y-103070666D01*
X106916001Y-104195667D02*
X106590999Y-103870665D01*
X106916001Y-107932001D02*
X106916001Y-104195667D01*
X109474000Y-110490000D02*
X106916001Y-107932001D01*
X106590999Y-96150332D02*
X105791000Y-95350333D01*
X107366011Y-96925344D02*
X106590999Y-96150332D01*
X107366011Y-105842011D02*
X107366011Y-96925344D01*
X109474000Y-107950000D02*
X107366011Y-105842011D01*
X104991001Y-94550334D02*
X105791000Y-95350333D01*
X104665999Y-94225332D02*
X104991001Y-94550334D01*
X104665999Y-88755001D02*
X104665999Y-94225332D01*
X105791000Y-87630000D02*
X104665999Y-88755001D01*
X104659630Y-105791000D02*
X105791000Y-105791000D01*
X89335000Y-105791000D02*
X104659630Y-105791000D01*
X88413000Y-104869000D02*
X89335000Y-105791000D01*
X88138000Y-104869000D02*
X88413000Y-104869000D01*
X88138000Y-102869000D02*
X88138000Y-102452161D01*
X105791000Y-81141370D02*
X105791000Y-80010000D01*
X105791000Y-81433002D02*
X105791000Y-81141370D01*
X98950999Y-88273003D02*
X105791000Y-81433002D01*
X98950999Y-90152001D02*
X98950999Y-88273003D01*
X91330999Y-97772001D02*
X98950999Y-90152001D01*
X91330999Y-99951001D02*
X91330999Y-97772001D01*
X88413000Y-102869000D02*
X91330999Y-99951001D01*
X88138000Y-102869000D02*
X88413000Y-102869000D01*
X81527001Y-81081999D02*
X82527000Y-80082000D01*
X81201999Y-81407001D02*
X81527001Y-81081999D01*
X81201999Y-85218001D02*
X81201999Y-81407001D01*
X82169000Y-86185002D02*
X81201999Y-85218001D01*
X82169000Y-89027000D02*
X82169000Y-86185002D01*
X83941213Y-80082000D02*
X89027000Y-80082000D01*
X82527000Y-80082000D02*
X83941213Y-80082000D01*
X109474000Y-78740000D02*
X109474000Y-80010000D01*
X108204000Y-77470000D02*
X109474000Y-78740000D01*
X89027000Y-80082000D02*
X91639000Y-77470000D01*
X91639000Y-77470000D02*
X108204000Y-77470000D01*
D18*
G36*
X121793000Y-118618000D02*
G01*
X77978000Y-118618000D01*
X77978000Y-113186609D01*
X86669538Y-113186609D01*
X86673409Y-113224282D01*
X86765579Y-113449533D01*
X86899922Y-113652474D01*
X87071275Y-113825307D01*
X87273054Y-113961390D01*
X87497504Y-114055493D01*
X87736000Y-114104000D01*
X88011000Y-114104000D01*
X88011000Y-112996000D01*
X86794269Y-112996000D01*
X86669538Y-113186609D01*
X77978000Y-113186609D01*
X77978000Y-81407001D01*
X80438323Y-81407001D01*
X80442000Y-81444333D01*
X80441999Y-85180678D01*
X80438323Y-85218001D01*
X80441999Y-85255323D01*
X80441999Y-85255333D01*
X80452996Y-85366986D01*
X80487113Y-85479456D01*
X80496453Y-85510247D01*
X80567025Y-85642277D01*
X80569261Y-85645001D01*
X80661998Y-85758002D01*
X80691001Y-85781805D01*
X81409001Y-86499805D01*
X81409000Y-87806099D01*
X81367899Y-87828068D01*
X81149392Y-88007392D01*
X80970068Y-88225899D01*
X80836818Y-88475192D01*
X80754764Y-88745691D01*
X80727057Y-89027000D01*
X80754764Y-89308309D01*
X80836818Y-89578808D01*
X80970068Y-89828101D01*
X81149392Y-90046608D01*
X81367899Y-90225932D01*
X81617192Y-90359182D01*
X81887691Y-90441236D01*
X82098508Y-90462000D01*
X82239492Y-90462000D01*
X82450309Y-90441236D01*
X82720808Y-90359182D01*
X82970101Y-90225932D01*
X83188608Y-90046608D01*
X83367932Y-89828101D01*
X83501182Y-89578808D01*
X83583236Y-89308309D01*
X83610943Y-89027000D01*
X83583236Y-88745691D01*
X83501182Y-88475192D01*
X83367932Y-88225899D01*
X83188608Y-88007392D01*
X82970101Y-87828068D01*
X82929000Y-87806099D01*
X82929000Y-86222325D01*
X82932676Y-86185002D01*
X82931406Y-86172108D01*
X83213088Y-86074795D01*
X83387044Y-85981814D01*
X83482808Y-85717413D01*
X88071192Y-85717413D01*
X88166956Y-85981814D01*
X88456571Y-86122704D01*
X88768108Y-86204384D01*
X89089595Y-86223718D01*
X89408675Y-86179961D01*
X89713088Y-86074795D01*
X89887044Y-85981814D01*
X89982808Y-85717413D01*
X89027000Y-84761605D01*
X88071192Y-85717413D01*
X83482808Y-85717413D01*
X82527000Y-84761605D01*
X82512858Y-84775748D01*
X82333253Y-84596143D01*
X82347395Y-84582000D01*
X82706605Y-84582000D01*
X83662413Y-85537808D01*
X83926814Y-85442044D01*
X84067704Y-85152429D01*
X84149384Y-84840892D01*
X84161189Y-84644595D01*
X87385282Y-84644595D01*
X87429039Y-84963675D01*
X87534205Y-85268088D01*
X87627186Y-85442044D01*
X87891587Y-85537808D01*
X88847395Y-84582000D01*
X89206605Y-84582000D01*
X90162413Y-85537808D01*
X90426814Y-85442044D01*
X90567704Y-85152429D01*
X90649384Y-84840892D01*
X90668718Y-84519405D01*
X90624961Y-84200325D01*
X90519795Y-83895912D01*
X90426814Y-83721956D01*
X90162413Y-83626192D01*
X89206605Y-84582000D01*
X88847395Y-84582000D01*
X87891587Y-83626192D01*
X87627186Y-83721956D01*
X87486296Y-84011571D01*
X87404616Y-84323108D01*
X87385282Y-84644595D01*
X84161189Y-84644595D01*
X84168718Y-84519405D01*
X84124961Y-84200325D01*
X84019795Y-83895912D01*
X83926814Y-83721956D01*
X83662413Y-83626192D01*
X82706605Y-84582000D01*
X82347395Y-84582000D01*
X82333253Y-84567858D01*
X82512858Y-84388253D01*
X82527000Y-84402395D01*
X83482808Y-83446587D01*
X88071192Y-83446587D01*
X89027000Y-84402395D01*
X89982808Y-83446587D01*
X89887044Y-83182186D01*
X89597429Y-83041296D01*
X89285892Y-82959616D01*
X88964405Y-82940282D01*
X88645325Y-82984039D01*
X88340912Y-83089205D01*
X88166956Y-83182186D01*
X88071192Y-83446587D01*
X83482808Y-83446587D01*
X83387044Y-83182186D01*
X83097429Y-83041296D01*
X82785892Y-82959616D01*
X82464405Y-82940282D01*
X82145325Y-82984039D01*
X81961999Y-83047373D01*
X81961999Y-81721802D01*
X82035624Y-81648177D01*
X82050088Y-81654168D01*
X82365967Y-81717000D01*
X82688033Y-81717000D01*
X83003912Y-81654168D01*
X83301463Y-81530918D01*
X83569252Y-81351987D01*
X83796987Y-81124252D01*
X83975918Y-80856463D01*
X83981909Y-80842000D01*
X87572091Y-80842000D01*
X87578082Y-80856463D01*
X87757013Y-81124252D01*
X87984748Y-81351987D01*
X88252537Y-81530918D01*
X88550088Y-81654168D01*
X88865967Y-81717000D01*
X89188033Y-81717000D01*
X89503912Y-81654168D01*
X89801463Y-81530918D01*
X90069252Y-81351987D01*
X90296987Y-81124252D01*
X90475918Y-80856463D01*
X90599168Y-80558912D01*
X90662000Y-80243033D01*
X90662000Y-79920967D01*
X90654448Y-79883000D01*
X91014057Y-79883000D01*
X91041764Y-80164309D01*
X91123818Y-80434808D01*
X91257068Y-80684101D01*
X91436392Y-80902608D01*
X91654899Y-81081932D01*
X91787858Y-81153000D01*
X91654899Y-81224068D01*
X91436392Y-81403392D01*
X91257068Y-81621899D01*
X91123818Y-81871192D01*
X91041764Y-82141691D01*
X91014057Y-82423000D01*
X91041764Y-82704309D01*
X91123818Y-82974808D01*
X91257068Y-83224101D01*
X91436392Y-83442608D01*
X91654899Y-83621932D01*
X91787858Y-83693000D01*
X91654899Y-83764068D01*
X91436392Y-83943392D01*
X91257068Y-84161899D01*
X91123818Y-84411192D01*
X91041764Y-84681691D01*
X91014057Y-84963000D01*
X91041764Y-85244309D01*
X91123818Y-85514808D01*
X91257068Y-85764101D01*
X91436392Y-85982608D01*
X91654899Y-86161932D01*
X91904192Y-86295182D01*
X92174691Y-86377236D01*
X92385508Y-86398000D01*
X92526492Y-86398000D01*
X92737309Y-86377236D01*
X93007808Y-86295182D01*
X93257101Y-86161932D01*
X93475608Y-85982608D01*
X93654932Y-85764101D01*
X93788182Y-85514808D01*
X93870236Y-85244309D01*
X93897943Y-84963000D01*
X93870236Y-84681691D01*
X93788182Y-84411192D01*
X93654932Y-84161899D01*
X93475608Y-83943392D01*
X93257101Y-83764068D01*
X93124142Y-83693000D01*
X93257101Y-83621932D01*
X93475608Y-83442608D01*
X93654932Y-83224101D01*
X93788182Y-82974808D01*
X93870236Y-82704309D01*
X93897943Y-82423000D01*
X93870236Y-82141691D01*
X93788182Y-81871192D01*
X93654932Y-81621899D01*
X93475608Y-81403392D01*
X93257101Y-81224068D01*
X93124142Y-81153000D01*
X93257101Y-81081932D01*
X93475608Y-80902608D01*
X93654932Y-80684101D01*
X93788182Y-80434808D01*
X93870236Y-80164309D01*
X93897943Y-79883000D01*
X98634057Y-79883000D01*
X98661764Y-80164309D01*
X98743818Y-80434808D01*
X98877068Y-80684101D01*
X99056392Y-80902608D01*
X99274899Y-81081932D01*
X99412682Y-81155579D01*
X99220869Y-81270615D01*
X99012481Y-81459586D01*
X98844963Y-81685580D01*
X98724754Y-81939913D01*
X98684096Y-82073961D01*
X98806085Y-82296000D01*
X99949000Y-82296000D01*
X99949000Y-82276000D01*
X100203000Y-82276000D01*
X100203000Y-82296000D01*
X101345915Y-82296000D01*
X101467904Y-82073961D01*
X101427246Y-81939913D01*
X101307037Y-81685580D01*
X101139519Y-81459586D01*
X100931131Y-81270615D01*
X100739318Y-81155579D01*
X100877101Y-81081932D01*
X101095608Y-80902608D01*
X101274932Y-80684101D01*
X101408182Y-80434808D01*
X101490236Y-80164309D01*
X101517943Y-79883000D01*
X101490236Y-79601691D01*
X101408182Y-79331192D01*
X101274932Y-79081899D01*
X101095608Y-78863392D01*
X100877101Y-78684068D01*
X100627808Y-78550818D01*
X100357309Y-78468764D01*
X100146492Y-78448000D01*
X100005508Y-78448000D01*
X99794691Y-78468764D01*
X99524192Y-78550818D01*
X99274899Y-78684068D01*
X99056392Y-78863392D01*
X98877068Y-79081899D01*
X98743818Y-79331192D01*
X98661764Y-79601691D01*
X98634057Y-79883000D01*
X93897943Y-79883000D01*
X93870236Y-79601691D01*
X93788182Y-79331192D01*
X93654932Y-79081899D01*
X93475608Y-78863392D01*
X93257101Y-78684068D01*
X93007808Y-78550818D01*
X92737309Y-78468764D01*
X92526492Y-78448000D01*
X92385508Y-78448000D01*
X92174691Y-78468764D01*
X91904192Y-78550818D01*
X91654899Y-78684068D01*
X91436392Y-78863392D01*
X91257068Y-79081899D01*
X91123818Y-79331192D01*
X91041764Y-79601691D01*
X91014057Y-79883000D01*
X90654448Y-79883000D01*
X90599168Y-79605088D01*
X90593177Y-79590624D01*
X91953802Y-78230000D01*
X107889199Y-78230000D01*
X108331989Y-78672791D01*
X108319506Y-78679463D01*
X108222815Y-78758815D01*
X108143463Y-78855506D01*
X108084498Y-78965820D01*
X108048188Y-79085518D01*
X108035928Y-79210000D01*
X108035928Y-80810000D01*
X108048188Y-80934482D01*
X108084498Y-81054180D01*
X108143463Y-81164494D01*
X108222815Y-81261185D01*
X108319506Y-81340537D01*
X108429820Y-81399502D01*
X108549518Y-81435812D01*
X108567482Y-81437581D01*
X108454392Y-81530392D01*
X108275068Y-81748899D01*
X108141818Y-81998192D01*
X108059764Y-82268691D01*
X108032057Y-82550000D01*
X108059764Y-82831309D01*
X108141818Y-83101808D01*
X108275068Y-83351101D01*
X108454392Y-83569608D01*
X108672899Y-83748932D01*
X108805858Y-83820000D01*
X108672899Y-83891068D01*
X108454392Y-84070392D01*
X108275068Y-84288899D01*
X108141818Y-84538192D01*
X108059764Y-84808691D01*
X108032057Y-85090000D01*
X108059764Y-85371309D01*
X108141818Y-85641808D01*
X108275068Y-85891101D01*
X108454392Y-86109608D01*
X108672899Y-86288932D01*
X108805858Y-86360000D01*
X108672899Y-86431068D01*
X108454392Y-86610392D01*
X108275068Y-86828899D01*
X108141818Y-87078192D01*
X108059764Y-87348691D01*
X108032057Y-87630000D01*
X108059764Y-87911309D01*
X108141818Y-88181808D01*
X108275068Y-88431101D01*
X108454392Y-88649608D01*
X108672899Y-88828932D01*
X108805858Y-88900000D01*
X108672899Y-88971068D01*
X108454392Y-89150392D01*
X108275068Y-89368899D01*
X108141818Y-89618192D01*
X108059764Y-89888691D01*
X108032057Y-90170000D01*
X108059764Y-90451309D01*
X108141818Y-90721808D01*
X108275068Y-90971101D01*
X108454392Y-91189608D01*
X108672899Y-91368932D01*
X108805858Y-91440000D01*
X108672899Y-91511068D01*
X108454392Y-91690392D01*
X108275068Y-91908899D01*
X108141818Y-92158192D01*
X108059764Y-92428691D01*
X108032057Y-92710000D01*
X108059764Y-92991309D01*
X108141818Y-93261808D01*
X108275068Y-93511101D01*
X108454392Y-93729608D01*
X108672899Y-93908932D01*
X108805858Y-93980000D01*
X108672899Y-94051068D01*
X108454392Y-94230392D01*
X108275068Y-94448899D01*
X108141818Y-94698192D01*
X108059764Y-94968691D01*
X108032057Y-95250000D01*
X108059764Y-95531309D01*
X108141818Y-95801808D01*
X108275068Y-96051101D01*
X108454392Y-96269608D01*
X108672899Y-96448932D01*
X108810682Y-96522579D01*
X108618869Y-96637615D01*
X108410481Y-96826586D01*
X108242963Y-97052580D01*
X108126011Y-97300022D01*
X108126011Y-96962666D01*
X108129687Y-96925343D01*
X108126011Y-96888020D01*
X108126011Y-96888011D01*
X108115014Y-96776358D01*
X108071557Y-96633097D01*
X108000985Y-96501068D01*
X107965491Y-96457818D01*
X107929810Y-96414340D01*
X107929806Y-96414336D01*
X107906012Y-96385343D01*
X107877019Y-96361549D01*
X107189688Y-95674220D01*
X107226000Y-95491668D01*
X107226000Y-95208998D01*
X107170853Y-94931759D01*
X107062680Y-94670606D01*
X106905637Y-94435574D01*
X106705759Y-94235696D01*
X106470727Y-94078653D01*
X106209574Y-93970480D01*
X105932335Y-93915333D01*
X105649665Y-93915333D01*
X105467113Y-93951645D01*
X105425999Y-93910531D01*
X105425999Y-91738235D01*
X105579184Y-91776633D01*
X105861512Y-91790550D01*
X106141130Y-91749120D01*
X106407292Y-91653936D01*
X106532514Y-91587004D01*
X106604097Y-91343035D01*
X105791000Y-90529938D01*
X105776858Y-90544081D01*
X105597253Y-90364476D01*
X105611395Y-90350333D01*
X105970605Y-90350333D01*
X106783702Y-91163430D01*
X107027671Y-91091847D01*
X107148571Y-90836337D01*
X107217300Y-90562149D01*
X107231217Y-90279821D01*
X107189787Y-90000203D01*
X107094603Y-89734041D01*
X107027671Y-89608819D01*
X106783702Y-89537236D01*
X105970605Y-90350333D01*
X105611395Y-90350333D01*
X105597253Y-90336191D01*
X105776858Y-90156586D01*
X105791000Y-90170728D01*
X106604097Y-89357631D01*
X106532514Y-89113662D01*
X106277004Y-88992762D01*
X106260701Y-88988675D01*
X106470727Y-88901680D01*
X106705759Y-88744637D01*
X106905637Y-88544759D01*
X107062680Y-88309727D01*
X107170853Y-88048574D01*
X107226000Y-87771335D01*
X107226000Y-87488665D01*
X107170853Y-87211426D01*
X107062680Y-86950273D01*
X106905637Y-86715241D01*
X106705759Y-86515363D01*
X106470727Y-86358320D01*
X106209574Y-86250147D01*
X105932335Y-86195000D01*
X105649665Y-86195000D01*
X105372426Y-86250147D01*
X105111273Y-86358320D01*
X104876241Y-86515363D01*
X104676363Y-86715241D01*
X104519320Y-86950273D01*
X104411147Y-87211426D01*
X104356000Y-87488665D01*
X104356000Y-87771335D01*
X104392312Y-87953887D01*
X104155001Y-88191197D01*
X104125998Y-88215000D01*
X104086340Y-88263324D01*
X104031025Y-88330725D01*
X104022180Y-88347273D01*
X103960453Y-88462755D01*
X103916996Y-88606016D01*
X103905999Y-88717669D01*
X103905999Y-88717679D01*
X103902323Y-88755001D01*
X103905999Y-88792324D01*
X103906000Y-94188000D01*
X103902323Y-94225332D01*
X103916997Y-94374317D01*
X103960453Y-94517578D01*
X104031025Y-94649608D01*
X104084986Y-94715359D01*
X104125999Y-94765333D01*
X104154997Y-94789131D01*
X104392312Y-95026446D01*
X104356000Y-95208998D01*
X104356000Y-95491668D01*
X104411147Y-95768907D01*
X104519320Y-96030060D01*
X104676363Y-96265092D01*
X104876241Y-96464970D01*
X105111273Y-96622013D01*
X105328595Y-96712031D01*
X105174708Y-96767063D01*
X105049486Y-96833995D01*
X104977903Y-97077964D01*
X105791000Y-97891061D01*
X105805143Y-97876919D01*
X105984748Y-98056524D01*
X105970605Y-98070666D01*
X105984748Y-98084809D01*
X105805143Y-98264414D01*
X105791000Y-98250271D01*
X104977903Y-99063368D01*
X105049486Y-99307337D01*
X105304996Y-99428237D01*
X105579184Y-99496966D01*
X105861512Y-99510883D01*
X106141130Y-99469453D01*
X106407292Y-99374269D01*
X106532514Y-99307337D01*
X106604097Y-99063370D01*
X106606012Y-99065285D01*
X106606011Y-101889380D01*
X106470727Y-101798986D01*
X106209574Y-101690813D01*
X105932335Y-101635666D01*
X105649665Y-101635666D01*
X105372426Y-101690813D01*
X105111273Y-101798986D01*
X104876241Y-101956029D01*
X104676363Y-102155907D01*
X104519320Y-102390939D01*
X104411147Y-102652092D01*
X104356000Y-102929331D01*
X104356000Y-103212001D01*
X104411147Y-103489240D01*
X104519320Y-103750393D01*
X104676363Y-103985425D01*
X104876241Y-104185303D01*
X105111273Y-104342346D01*
X105327668Y-104431980D01*
X105239192Y-104458818D01*
X104989899Y-104592068D01*
X104771392Y-104771392D01*
X104592068Y-104989899D01*
X104570099Y-105031000D01*
X101514072Y-105031000D01*
X101514072Y-103636332D01*
X101501812Y-103511850D01*
X101465502Y-103392152D01*
X101406537Y-103281838D01*
X101327185Y-103185147D01*
X101230494Y-103105795D01*
X101120180Y-103046830D01*
X101000482Y-103010520D01*
X100975920Y-103008101D01*
X101139519Y-102859746D01*
X101307037Y-102633752D01*
X101427246Y-102379419D01*
X101467904Y-102245371D01*
X101345915Y-102023332D01*
X100203000Y-102023332D01*
X100203000Y-102043332D01*
X99949000Y-102043332D01*
X99949000Y-102023332D01*
X98806085Y-102023332D01*
X98684096Y-102245371D01*
X98724754Y-102379419D01*
X98844963Y-102633752D01*
X99012481Y-102859746D01*
X99176080Y-103008101D01*
X99151518Y-103010520D01*
X99031820Y-103046830D01*
X98921506Y-103105795D01*
X98824815Y-103185147D01*
X98745463Y-103281838D01*
X98686498Y-103392152D01*
X98650188Y-103511850D01*
X98637928Y-103636332D01*
X98637928Y-105031000D01*
X93765273Y-105031000D01*
X93788182Y-104988140D01*
X93870236Y-104717641D01*
X93897943Y-104436332D01*
X93870236Y-104155023D01*
X93788182Y-103884524D01*
X93654932Y-103635231D01*
X93475608Y-103416724D01*
X93257101Y-103237400D01*
X93124142Y-103166332D01*
X93257101Y-103095264D01*
X93475608Y-102915940D01*
X93654932Y-102697433D01*
X93788182Y-102448140D01*
X93870236Y-102177641D01*
X93897943Y-101896332D01*
X93870236Y-101615023D01*
X93788182Y-101344524D01*
X93654932Y-101095231D01*
X93475608Y-100876724D01*
X93257101Y-100697400D01*
X93124142Y-100626332D01*
X93257101Y-100555264D01*
X93475608Y-100375940D01*
X93654932Y-100157433D01*
X93788182Y-99908140D01*
X93870236Y-99637641D01*
X93897943Y-99356332D01*
X98634057Y-99356332D01*
X98661764Y-99637641D01*
X98743818Y-99908140D01*
X98877068Y-100157433D01*
X99056392Y-100375940D01*
X99274899Y-100555264D01*
X99412682Y-100628911D01*
X99220869Y-100743947D01*
X99012481Y-100932918D01*
X98844963Y-101158912D01*
X98724754Y-101413245D01*
X98684096Y-101547293D01*
X98806085Y-101769332D01*
X99949000Y-101769332D01*
X99949000Y-101749332D01*
X100203000Y-101749332D01*
X100203000Y-101769332D01*
X101345915Y-101769332D01*
X101467904Y-101547293D01*
X101427246Y-101413245D01*
X101307037Y-101158912D01*
X101139519Y-100932918D01*
X100931131Y-100743947D01*
X100739318Y-100628911D01*
X100877101Y-100555264D01*
X101095608Y-100375940D01*
X101274932Y-100157433D01*
X101408182Y-99908140D01*
X101490236Y-99637641D01*
X101517943Y-99356332D01*
X101490236Y-99075023D01*
X101408182Y-98804524D01*
X101274932Y-98555231D01*
X101095608Y-98336724D01*
X100877101Y-98157400D01*
X100846752Y-98141178D01*
X104350783Y-98141178D01*
X104392213Y-98420796D01*
X104487397Y-98686958D01*
X104554329Y-98812180D01*
X104798298Y-98883763D01*
X105611395Y-98070666D01*
X104798298Y-97257569D01*
X104554329Y-97329152D01*
X104433429Y-97584662D01*
X104364700Y-97858850D01*
X104350783Y-98141178D01*
X100846752Y-98141178D01*
X100627808Y-98024150D01*
X100357309Y-97942096D01*
X100146492Y-97921332D01*
X100005508Y-97921332D01*
X99794691Y-97942096D01*
X99524192Y-98024150D01*
X99274899Y-98157400D01*
X99056392Y-98336724D01*
X98877068Y-98555231D01*
X98743818Y-98804524D01*
X98661764Y-99075023D01*
X98634057Y-99356332D01*
X93897943Y-99356332D01*
X93870236Y-99075023D01*
X93788182Y-98804524D01*
X93654932Y-98555231D01*
X93475608Y-98336724D01*
X93257101Y-98157400D01*
X93007808Y-98024150D01*
X92737309Y-97942096D01*
X92526492Y-97921332D01*
X92385508Y-97921332D01*
X92242371Y-97935430D01*
X96278135Y-93899666D01*
X98637928Y-93899666D01*
X98637928Y-95499666D01*
X98650188Y-95624148D01*
X98686498Y-95743846D01*
X98745463Y-95854160D01*
X98824815Y-95950851D01*
X98921506Y-96030203D01*
X99031820Y-96089168D01*
X99151518Y-96125478D01*
X99276000Y-96137738D01*
X100876000Y-96137738D01*
X101000482Y-96125478D01*
X101120180Y-96089168D01*
X101230494Y-96030203D01*
X101327185Y-95950851D01*
X101406537Y-95854160D01*
X101465502Y-95743846D01*
X101501812Y-95624148D01*
X101514072Y-95499666D01*
X101514072Y-93899666D01*
X101501812Y-93775184D01*
X101465502Y-93655486D01*
X101406537Y-93545172D01*
X101327185Y-93448481D01*
X101230494Y-93369129D01*
X101120180Y-93310164D01*
X101000482Y-93273854D01*
X100975920Y-93271435D01*
X101139519Y-93123080D01*
X101307037Y-92897086D01*
X101427246Y-92642753D01*
X101467904Y-92508705D01*
X101345915Y-92286666D01*
X100203000Y-92286666D01*
X100203000Y-92306666D01*
X99949000Y-92306666D01*
X99949000Y-92286666D01*
X98806085Y-92286666D01*
X98684096Y-92508705D01*
X98724754Y-92642753D01*
X98844963Y-92897086D01*
X99012481Y-93123080D01*
X99176080Y-93271435D01*
X99151518Y-93273854D01*
X99031820Y-93310164D01*
X98921506Y-93369129D01*
X98824815Y-93448481D01*
X98745463Y-93545172D01*
X98686498Y-93655486D01*
X98650188Y-93775184D01*
X98637928Y-93899666D01*
X96278135Y-93899666D01*
X99329838Y-90847964D01*
X99412682Y-90892245D01*
X99220869Y-91007281D01*
X99012481Y-91196252D01*
X98844963Y-91422246D01*
X98724754Y-91676579D01*
X98684096Y-91810627D01*
X98806085Y-92032666D01*
X99949000Y-92032666D01*
X99949000Y-92012666D01*
X100203000Y-92012666D01*
X100203000Y-92032666D01*
X101345915Y-92032666D01*
X101467904Y-91810627D01*
X101427246Y-91676579D01*
X101307037Y-91422246D01*
X101139519Y-91196252D01*
X100931131Y-91007281D01*
X100739318Y-90892245D01*
X100877101Y-90818598D01*
X101095608Y-90639274D01*
X101274932Y-90420767D01*
X101408182Y-90171474D01*
X101490236Y-89900975D01*
X101517943Y-89619666D01*
X101490236Y-89338357D01*
X101408182Y-89067858D01*
X101274932Y-88818565D01*
X101095608Y-88600058D01*
X100877101Y-88420734D01*
X100627808Y-88287484D01*
X100357309Y-88205430D01*
X100146492Y-88184666D01*
X100114137Y-88184666D01*
X106302004Y-81996800D01*
X106331001Y-81973003D01*
X106425974Y-81857278D01*
X106496546Y-81725249D01*
X106540003Y-81581988D01*
X106551000Y-81470335D01*
X106551000Y-81470326D01*
X106554676Y-81433003D01*
X106551000Y-81395680D01*
X106551000Y-81230901D01*
X106592101Y-81208932D01*
X106810608Y-81029608D01*
X106989932Y-80811101D01*
X107123182Y-80561808D01*
X107205236Y-80291309D01*
X107232943Y-80010000D01*
X107205236Y-79728691D01*
X107123182Y-79458192D01*
X106989932Y-79208899D01*
X106810608Y-78990392D01*
X106592101Y-78811068D01*
X106342808Y-78677818D01*
X106072309Y-78595764D01*
X105861492Y-78575000D01*
X105720508Y-78575000D01*
X105509691Y-78595764D01*
X105239192Y-78677818D01*
X104989899Y-78811068D01*
X104771392Y-78990392D01*
X104592068Y-79208899D01*
X104458818Y-79458192D01*
X104376764Y-79728691D01*
X104349057Y-80010000D01*
X104376764Y-80291309D01*
X104458818Y-80561808D01*
X104592068Y-80811101D01*
X104771392Y-81029608D01*
X104962639Y-81186561D01*
X101514072Y-84635129D01*
X101514072Y-84163000D01*
X101501812Y-84038518D01*
X101465502Y-83918820D01*
X101406537Y-83808506D01*
X101327185Y-83711815D01*
X101230494Y-83632463D01*
X101120180Y-83573498D01*
X101000482Y-83537188D01*
X100975920Y-83534769D01*
X101139519Y-83386414D01*
X101307037Y-83160420D01*
X101427246Y-82906087D01*
X101467904Y-82772039D01*
X101345915Y-82550000D01*
X100203000Y-82550000D01*
X100203000Y-82570000D01*
X99949000Y-82570000D01*
X99949000Y-82550000D01*
X98806085Y-82550000D01*
X98684096Y-82772039D01*
X98724754Y-82906087D01*
X98844963Y-83160420D01*
X99012481Y-83386414D01*
X99176080Y-83534769D01*
X99151518Y-83537188D01*
X99031820Y-83573498D01*
X98921506Y-83632463D01*
X98824815Y-83711815D01*
X98745463Y-83808506D01*
X98686498Y-83918820D01*
X98650188Y-84038518D01*
X98637928Y-84163000D01*
X98637928Y-85763000D01*
X98650188Y-85887482D01*
X98686498Y-86007180D01*
X98745463Y-86117494D01*
X98824815Y-86214185D01*
X98921506Y-86293537D01*
X99031820Y-86352502D01*
X99151518Y-86388812D01*
X99276000Y-86401072D01*
X99748129Y-86401072D01*
X98439997Y-87709204D01*
X98410999Y-87733002D01*
X98387201Y-87762000D01*
X98387200Y-87762001D01*
X98316025Y-87848727D01*
X98245453Y-87980757D01*
X98242248Y-87991324D01*
X98203208Y-88120027D01*
X98201997Y-88124018D01*
X98187323Y-88273003D01*
X98191000Y-88310335D01*
X98190999Y-89837199D01*
X93809631Y-94218567D01*
X93788182Y-94147858D01*
X93654932Y-93898565D01*
X93475608Y-93680058D01*
X93257101Y-93500734D01*
X93124142Y-93429666D01*
X93257101Y-93358598D01*
X93475608Y-93179274D01*
X93654932Y-92960767D01*
X93788182Y-92711474D01*
X93870236Y-92440975D01*
X93897943Y-92159666D01*
X93870236Y-91878357D01*
X93788182Y-91607858D01*
X93654932Y-91358565D01*
X93475608Y-91140058D01*
X93257101Y-90960734D01*
X93124142Y-90889666D01*
X93257101Y-90818598D01*
X93475608Y-90639274D01*
X93654932Y-90420767D01*
X93788182Y-90171474D01*
X93870236Y-89900975D01*
X93897943Y-89619666D01*
X93870236Y-89338357D01*
X93788182Y-89067858D01*
X93654932Y-88818565D01*
X93475608Y-88600058D01*
X93257101Y-88420734D01*
X93007808Y-88287484D01*
X92737309Y-88205430D01*
X92526492Y-88184666D01*
X92385508Y-88184666D01*
X92174691Y-88205430D01*
X91904192Y-88287484D01*
X91654899Y-88420734D01*
X91436392Y-88600058D01*
X91257068Y-88818565D01*
X91223241Y-88881850D01*
X91168853Y-88608426D01*
X91060680Y-88347273D01*
X90903637Y-88112241D01*
X90703759Y-87912363D01*
X90468727Y-87755320D01*
X90207574Y-87647147D01*
X89930335Y-87592000D01*
X89647665Y-87592000D01*
X89370426Y-87647147D01*
X89109273Y-87755320D01*
X88874241Y-87912363D01*
X88674363Y-88112241D01*
X88517320Y-88347273D01*
X88409147Y-88608426D01*
X88354000Y-88885665D01*
X88354000Y-89168335D01*
X88409147Y-89445574D01*
X88517320Y-89706727D01*
X88674363Y-89941759D01*
X88874241Y-90141637D01*
X89109273Y-90298680D01*
X89370426Y-90406853D01*
X89647665Y-90462000D01*
X89930335Y-90462000D01*
X90112886Y-90425688D01*
X90120990Y-90433792D01*
X90120989Y-99449798D01*
X89420674Y-100150114D01*
X89290502Y-99991498D01*
X89141238Y-99869000D01*
X89290502Y-99746502D01*
X89444833Y-99558449D01*
X89559511Y-99343901D01*
X89630130Y-99111102D01*
X89653975Y-98869000D01*
X89630130Y-98626898D01*
X89559511Y-98394099D01*
X89444833Y-98179551D01*
X89290502Y-97991498D01*
X89141238Y-97869000D01*
X89290502Y-97746502D01*
X89444833Y-97558449D01*
X89559511Y-97343901D01*
X89630130Y-97111102D01*
X89653975Y-96869000D01*
X89630130Y-96626898D01*
X89559511Y-96394099D01*
X89444833Y-96179551D01*
X89290502Y-95991498D01*
X89251889Y-95959809D01*
X89256387Y-95957405D01*
X89390962Y-95846962D01*
X89501405Y-95712387D01*
X89583472Y-95558851D01*
X89634008Y-95392255D01*
X89651072Y-95219001D01*
X89651072Y-94518999D01*
X89634008Y-94345745D01*
X89583472Y-94179149D01*
X89501405Y-94025613D01*
X89390962Y-93891038D01*
X89256387Y-93780595D01*
X89102851Y-93698528D01*
X88936255Y-93647992D01*
X88763001Y-93630928D01*
X87512999Y-93630928D01*
X87339745Y-93647992D01*
X87173149Y-93698528D01*
X87019613Y-93780595D01*
X86885038Y-93891038D01*
X86774595Y-94025613D01*
X86692528Y-94179149D01*
X86641992Y-94345745D01*
X86624928Y-94518999D01*
X86624928Y-95219001D01*
X86641992Y-95392255D01*
X86692528Y-95558851D01*
X86774595Y-95712387D01*
X86885038Y-95846962D01*
X87019613Y-95957405D01*
X87024111Y-95959809D01*
X86985498Y-95991498D01*
X86831167Y-96179551D01*
X86716489Y-96394099D01*
X86645870Y-96626898D01*
X86622025Y-96869000D01*
X86645870Y-97111102D01*
X86716489Y-97343901D01*
X86831167Y-97558449D01*
X86985498Y-97746502D01*
X87134762Y-97869000D01*
X86985498Y-97991498D01*
X86831167Y-98179551D01*
X86716489Y-98394099D01*
X86645870Y-98626898D01*
X86622025Y-98869000D01*
X86645870Y-99111102D01*
X86716489Y-99343901D01*
X86831167Y-99558449D01*
X86985498Y-99746502D01*
X87134762Y-99869000D01*
X86985498Y-99991498D01*
X86831167Y-100179551D01*
X86716489Y-100394099D01*
X86645870Y-100626898D01*
X86622025Y-100869000D01*
X86645870Y-101111102D01*
X86716489Y-101343901D01*
X86817032Y-101532005D01*
X86426988Y-101922050D01*
X86397990Y-101945848D01*
X86374192Y-101974846D01*
X86374191Y-101974847D01*
X86303016Y-102061573D01*
X86232444Y-102193603D01*
X86219512Y-102236236D01*
X86188988Y-102336863D01*
X86178028Y-102448140D01*
X86174314Y-102485849D01*
X86177991Y-102523181D01*
X86177990Y-109906668D01*
X86174314Y-109943990D01*
X86177990Y-109981312D01*
X86177990Y-109981322D01*
X86188987Y-110092975D01*
X86227144Y-110218764D01*
X86232444Y-110236236D01*
X86303016Y-110368266D01*
X86324217Y-110394099D01*
X86397989Y-110483991D01*
X86426992Y-110507793D01*
X86636924Y-110717726D01*
X86622025Y-110869000D01*
X86645870Y-111111102D01*
X86716489Y-111343901D01*
X86831167Y-111558449D01*
X86985498Y-111746502D01*
X87135348Y-111869481D01*
X87071275Y-111912693D01*
X86899922Y-112085526D01*
X86765579Y-112288467D01*
X86673409Y-112513718D01*
X86669538Y-112551391D01*
X86794269Y-112742000D01*
X88011000Y-112742000D01*
X88011000Y-112722000D01*
X88265000Y-112722000D01*
X88265000Y-112742000D01*
X88285000Y-112742000D01*
X88285000Y-112996000D01*
X88265000Y-112996000D01*
X88265000Y-114104000D01*
X88540000Y-114104000D01*
X88778496Y-114055493D01*
X89002946Y-113961390D01*
X89204725Y-113825307D01*
X89376078Y-113652474D01*
X89510421Y-113449533D01*
X89602591Y-113224282D01*
X89606462Y-113186609D01*
X89513033Y-113043835D01*
X89918000Y-113448802D01*
X89918001Y-115151668D01*
X89914324Y-115189000D01*
X89928998Y-115337985D01*
X89972454Y-115481246D01*
X90043026Y-115613276D01*
X90114201Y-115700002D01*
X90138000Y-115729001D01*
X90166998Y-115752799D01*
X91003201Y-116589003D01*
X91026999Y-116618001D01*
X91142724Y-116712974D01*
X91274753Y-116783546D01*
X91418014Y-116827003D01*
X91529667Y-116838000D01*
X91529677Y-116838000D01*
X91567000Y-116841676D01*
X91604323Y-116838000D01*
X109690678Y-116838000D01*
X109728000Y-116841676D01*
X109765322Y-116838000D01*
X109765333Y-116838000D01*
X109876986Y-116827003D01*
X110020247Y-116783546D01*
X110152276Y-116712974D01*
X110268001Y-116618001D01*
X110291804Y-116588997D01*
X115446004Y-111434798D01*
X115475001Y-111411001D01*
X115501332Y-111378917D01*
X115569974Y-111295277D01*
X115640546Y-111163247D01*
X115652156Y-111124974D01*
X115684003Y-111019986D01*
X115695000Y-110908333D01*
X115695000Y-110908323D01*
X115698676Y-110871001D01*
X115695000Y-110833678D01*
X115695000Y-110821536D01*
X115761818Y-111041808D01*
X115895068Y-111291101D01*
X116074392Y-111509608D01*
X116292899Y-111688932D01*
X116425858Y-111760000D01*
X116292899Y-111831068D01*
X116074392Y-112010392D01*
X115895068Y-112228899D01*
X115761818Y-112478192D01*
X115679764Y-112748691D01*
X115652057Y-113030000D01*
X115679764Y-113311309D01*
X115761818Y-113581808D01*
X115895068Y-113831101D01*
X116074392Y-114049608D01*
X116292899Y-114228932D01*
X116542192Y-114362182D01*
X116812691Y-114444236D01*
X117023508Y-114465000D01*
X117164492Y-114465000D01*
X117375309Y-114444236D01*
X117645808Y-114362182D01*
X117895101Y-114228932D01*
X118113608Y-114049608D01*
X118292932Y-113831101D01*
X118426182Y-113581808D01*
X118508236Y-113311309D01*
X118535943Y-113030000D01*
X118508236Y-112748691D01*
X118426182Y-112478192D01*
X118292932Y-112228899D01*
X118113608Y-112010392D01*
X117895101Y-111831068D01*
X117762142Y-111760000D01*
X117895101Y-111688932D01*
X118113608Y-111509608D01*
X118292932Y-111291101D01*
X118426182Y-111041808D01*
X118508236Y-110771309D01*
X118535943Y-110490000D01*
X118508236Y-110208691D01*
X118426182Y-109938192D01*
X118292932Y-109688899D01*
X118113608Y-109470392D01*
X117895101Y-109291068D01*
X117762142Y-109220000D01*
X117895101Y-109148932D01*
X118113608Y-108969608D01*
X118292932Y-108751101D01*
X118426182Y-108501808D01*
X118508236Y-108231309D01*
X118535943Y-107950000D01*
X118508236Y-107668691D01*
X118426182Y-107398192D01*
X118292932Y-107148899D01*
X118113608Y-106930392D01*
X117895101Y-106751068D01*
X117762142Y-106680000D01*
X117895101Y-106608932D01*
X118113608Y-106429608D01*
X118292932Y-106211101D01*
X118426182Y-105961808D01*
X118508236Y-105691309D01*
X118535943Y-105410000D01*
X118508236Y-105128691D01*
X118426182Y-104858192D01*
X118292932Y-104608899D01*
X118113608Y-104390392D01*
X117895101Y-104211068D01*
X117762142Y-104140000D01*
X117895101Y-104068932D01*
X118113608Y-103889608D01*
X118292932Y-103671101D01*
X118426182Y-103421808D01*
X118508236Y-103151309D01*
X118535943Y-102870000D01*
X118508236Y-102588691D01*
X118426182Y-102318192D01*
X118292932Y-102068899D01*
X118113608Y-101850392D01*
X117895101Y-101671068D01*
X117762142Y-101600000D01*
X117895101Y-101528932D01*
X118113608Y-101349608D01*
X118292932Y-101131101D01*
X118426182Y-100881808D01*
X118508236Y-100611309D01*
X118535943Y-100330000D01*
X118508236Y-100048691D01*
X118426182Y-99778192D01*
X118292932Y-99528899D01*
X118113608Y-99310392D01*
X117895101Y-99131068D01*
X117854000Y-99109099D01*
X117854000Y-99010901D01*
X117895101Y-98988932D01*
X118113608Y-98809608D01*
X118292932Y-98591101D01*
X118426182Y-98341808D01*
X118508236Y-98071309D01*
X118535943Y-97790000D01*
X118508236Y-97508691D01*
X118426182Y-97238192D01*
X118292932Y-96988899D01*
X118113608Y-96770392D01*
X117895101Y-96591068D01*
X117757318Y-96517421D01*
X117949131Y-96402385D01*
X118157519Y-96213414D01*
X118325037Y-95987420D01*
X118445246Y-95733087D01*
X118485904Y-95599039D01*
X118363915Y-95377000D01*
X117221000Y-95377000D01*
X117221000Y-95397000D01*
X116967000Y-95397000D01*
X116967000Y-95377000D01*
X115824085Y-95377000D01*
X115702096Y-95599039D01*
X115742754Y-95733087D01*
X115862963Y-95987420D01*
X116030481Y-96213414D01*
X116238869Y-96402385D01*
X116430682Y-96517421D01*
X116292899Y-96591068D01*
X116074392Y-96770392D01*
X115895068Y-96988899D01*
X115761818Y-97238192D01*
X115679764Y-97508691D01*
X115652057Y-97790000D01*
X115679764Y-98071309D01*
X115761818Y-98341808D01*
X115895068Y-98591101D01*
X116074392Y-98809608D01*
X116292899Y-98988932D01*
X116334000Y-99010901D01*
X116334000Y-99109099D01*
X116292899Y-99131068D01*
X116074392Y-99310392D01*
X115895068Y-99528899D01*
X115761818Y-99778192D01*
X115679764Y-100048691D01*
X115652057Y-100330000D01*
X115679764Y-100611309D01*
X115693292Y-100655906D01*
X114423998Y-101925201D01*
X114395000Y-101948999D01*
X114371202Y-101977997D01*
X114371201Y-101977998D01*
X114300026Y-102064724D01*
X114229454Y-102196754D01*
X114214707Y-102245371D01*
X114189340Y-102328999D01*
X114185998Y-102340015D01*
X114171324Y-102489000D01*
X114175001Y-102526332D01*
X114175000Y-110556198D01*
X109413199Y-115318000D01*
X101411612Y-115318000D01*
X101465502Y-115217180D01*
X101501812Y-115097482D01*
X101514072Y-114973000D01*
X101514072Y-113373000D01*
X101501812Y-113248518D01*
X101465502Y-113128820D01*
X101406537Y-113018506D01*
X101327185Y-112921815D01*
X101230494Y-112842463D01*
X101120180Y-112783498D01*
X101000482Y-112747188D01*
X100975920Y-112744769D01*
X101139519Y-112596414D01*
X101307037Y-112370420D01*
X101427246Y-112116087D01*
X101467904Y-111982039D01*
X101345915Y-111760000D01*
X100203000Y-111760000D01*
X100203000Y-111780000D01*
X99949000Y-111780000D01*
X99949000Y-111760000D01*
X98806085Y-111760000D01*
X98684096Y-111982039D01*
X98724754Y-112116087D01*
X98844963Y-112370420D01*
X99012481Y-112596414D01*
X99176080Y-112744769D01*
X99151518Y-112747188D01*
X99031820Y-112783498D01*
X98921506Y-112842463D01*
X98824815Y-112921815D01*
X98745463Y-113018506D01*
X98686498Y-113128820D01*
X98650188Y-113248518D01*
X98637928Y-113373000D01*
X98637928Y-114973000D01*
X98650188Y-115097482D01*
X98686498Y-115217180D01*
X98740388Y-115318000D01*
X93322817Y-115318000D01*
X93475608Y-115192608D01*
X93654932Y-114974101D01*
X93788182Y-114724808D01*
X93870236Y-114454309D01*
X93897943Y-114173000D01*
X93870236Y-113891691D01*
X93788182Y-113621192D01*
X93654932Y-113371899D01*
X93475608Y-113153392D01*
X93257101Y-112974068D01*
X93124142Y-112903000D01*
X93257101Y-112831932D01*
X93475608Y-112652608D01*
X93654932Y-112434101D01*
X93788182Y-112184808D01*
X93870236Y-111914309D01*
X93897943Y-111633000D01*
X93870236Y-111351691D01*
X93788182Y-111081192D01*
X93654932Y-110831899D01*
X93475608Y-110613392D01*
X93257101Y-110434068D01*
X93124142Y-110363000D01*
X93257101Y-110291932D01*
X93475608Y-110112608D01*
X93654932Y-109894101D01*
X93788182Y-109644808D01*
X93870236Y-109374309D01*
X93897943Y-109093000D01*
X98634057Y-109093000D01*
X98661764Y-109374309D01*
X98743818Y-109644808D01*
X98877068Y-109894101D01*
X99056392Y-110112608D01*
X99274899Y-110291932D01*
X99412682Y-110365579D01*
X99220869Y-110480615D01*
X99012481Y-110669586D01*
X98844963Y-110895580D01*
X98724754Y-111149913D01*
X98684096Y-111283961D01*
X98806085Y-111506000D01*
X99949000Y-111506000D01*
X99949000Y-111486000D01*
X100203000Y-111486000D01*
X100203000Y-111506000D01*
X101345915Y-111506000D01*
X101467904Y-111283961D01*
X101427246Y-111149913D01*
X101307037Y-110895580D01*
X101139519Y-110669586D01*
X100931131Y-110480615D01*
X100739318Y-110365579D01*
X100877101Y-110291932D01*
X101095608Y-110112608D01*
X101274932Y-109894101D01*
X101408182Y-109644808D01*
X101490236Y-109374309D01*
X101517943Y-109093000D01*
X101490236Y-108811691D01*
X101408182Y-108541192D01*
X101274932Y-108291899D01*
X101095608Y-108073392D01*
X100877101Y-107894068D01*
X100627808Y-107760818D01*
X100357309Y-107678764D01*
X100146492Y-107658000D01*
X100005508Y-107658000D01*
X99794691Y-107678764D01*
X99524192Y-107760818D01*
X99274899Y-107894068D01*
X99056392Y-108073392D01*
X98877068Y-108291899D01*
X98743818Y-108541192D01*
X98661764Y-108811691D01*
X98634057Y-109093000D01*
X93897943Y-109093000D01*
X93870236Y-108811691D01*
X93788182Y-108541192D01*
X93654932Y-108291899D01*
X93475608Y-108073392D01*
X93257101Y-107894068D01*
X93007808Y-107760818D01*
X92737309Y-107678764D01*
X92526492Y-107658000D01*
X92385508Y-107658000D01*
X92174691Y-107678764D01*
X91904192Y-107760818D01*
X91654899Y-107894068D01*
X91436392Y-108073392D01*
X91257068Y-108291899D01*
X91123818Y-108541192D01*
X91041764Y-108811691D01*
X91014057Y-109093000D01*
X91041764Y-109374309D01*
X91123818Y-109644808D01*
X91257068Y-109894101D01*
X91436392Y-110112608D01*
X91654899Y-110291932D01*
X91787858Y-110363000D01*
X91654899Y-110434068D01*
X91436392Y-110613392D01*
X91257068Y-110831899D01*
X91123818Y-111081192D01*
X91041764Y-111351691D01*
X91014057Y-111633000D01*
X91041764Y-111914309D01*
X91123818Y-112184808D01*
X91257068Y-112434101D01*
X91436392Y-112652608D01*
X91654899Y-112831932D01*
X91787858Y-112903000D01*
X91654899Y-112974068D01*
X91440063Y-113150379D01*
X91441676Y-113134000D01*
X91438000Y-113096675D01*
X91438000Y-113096667D01*
X91427003Y-112985014D01*
X91383546Y-112841753D01*
X91312974Y-112709724D01*
X91218001Y-112593999D01*
X91189004Y-112570202D01*
X89639076Y-111020274D01*
X89653975Y-110869000D01*
X89630130Y-110626898D01*
X89559511Y-110394099D01*
X89444833Y-110179551D01*
X89290502Y-109991498D01*
X89141238Y-109869000D01*
X89290502Y-109746502D01*
X89444833Y-109558449D01*
X89559511Y-109343901D01*
X89630130Y-109111102D01*
X89653975Y-108869000D01*
X89630130Y-108626898D01*
X89559511Y-108394099D01*
X89444833Y-108179551D01*
X89290502Y-107991498D01*
X89141238Y-107869000D01*
X89290502Y-107746502D01*
X89444833Y-107558449D01*
X89559511Y-107343901D01*
X89630130Y-107111102D01*
X89653975Y-106869000D01*
X89630130Y-106626898D01*
X89607107Y-106551000D01*
X104570099Y-106551000D01*
X104592068Y-106592101D01*
X104771392Y-106810608D01*
X104989899Y-106989932D01*
X105239192Y-107123182D01*
X105509691Y-107205236D01*
X105720508Y-107226000D01*
X105861492Y-107226000D01*
X106072309Y-107205236D01*
X106156001Y-107179849D01*
X106156001Y-107894678D01*
X106152325Y-107932001D01*
X106156001Y-107969323D01*
X106156001Y-107969333D01*
X106166998Y-108080986D01*
X106196897Y-108179551D01*
X106210455Y-108224247D01*
X106281027Y-108356277D01*
X106295799Y-108374276D01*
X106376000Y-108472002D01*
X106405004Y-108495805D01*
X108018198Y-110109000D01*
X106114886Y-112012312D01*
X105932335Y-111976000D01*
X105649665Y-111976000D01*
X105372426Y-112031147D01*
X105111273Y-112139320D01*
X104876241Y-112296363D01*
X104676363Y-112496241D01*
X104519320Y-112731273D01*
X104411147Y-112992426D01*
X104356000Y-113269665D01*
X104356000Y-113552335D01*
X104411147Y-113829574D01*
X104519320Y-114090727D01*
X104676363Y-114325759D01*
X104876241Y-114525637D01*
X105111273Y-114682680D01*
X105372426Y-114790853D01*
X105649665Y-114846000D01*
X105932335Y-114846000D01*
X106209574Y-114790853D01*
X106470727Y-114682680D01*
X106705759Y-114525637D01*
X106905637Y-114325759D01*
X107062680Y-114090727D01*
X107170853Y-113829574D01*
X107226000Y-113552335D01*
X107226000Y-113269665D01*
X107189688Y-113087114D01*
X108626197Y-111650605D01*
X108672899Y-111688932D01*
X108805858Y-111760000D01*
X108672899Y-111831068D01*
X108454392Y-112010392D01*
X108275068Y-112228899D01*
X108141818Y-112478192D01*
X108059764Y-112748691D01*
X108032057Y-113030000D01*
X108059764Y-113311309D01*
X108141818Y-113581808D01*
X108275068Y-113831101D01*
X108454392Y-114049608D01*
X108672899Y-114228932D01*
X108922192Y-114362182D01*
X109192691Y-114444236D01*
X109403508Y-114465000D01*
X109544492Y-114465000D01*
X109755309Y-114444236D01*
X110025808Y-114362182D01*
X110275101Y-114228932D01*
X110493608Y-114049608D01*
X110672932Y-113831101D01*
X110806182Y-113581808D01*
X110888236Y-113311309D01*
X110915943Y-113030000D01*
X110888236Y-112748691D01*
X110806182Y-112478192D01*
X110672932Y-112228899D01*
X110493608Y-112010392D01*
X110275101Y-111831068D01*
X110142142Y-111760000D01*
X110275101Y-111688932D01*
X110493608Y-111509608D01*
X110672932Y-111291101D01*
X110806182Y-111041808D01*
X110888236Y-110771309D01*
X110915943Y-110490000D01*
X110888236Y-110208691D01*
X110806182Y-109938192D01*
X110672932Y-109688899D01*
X110493608Y-109470392D01*
X110275101Y-109291068D01*
X110142142Y-109220000D01*
X110275101Y-109148932D01*
X110493608Y-108969608D01*
X110672932Y-108751101D01*
X110806182Y-108501808D01*
X110888236Y-108231309D01*
X110915943Y-107950000D01*
X110888236Y-107668691D01*
X110806182Y-107398192D01*
X110672932Y-107148899D01*
X110493608Y-106930392D01*
X110275101Y-106751068D01*
X110142142Y-106680000D01*
X110275101Y-106608932D01*
X110493608Y-106429608D01*
X110672932Y-106211101D01*
X110806182Y-105961808D01*
X110888236Y-105691309D01*
X110915943Y-105410000D01*
X110888236Y-105128691D01*
X110806182Y-104858192D01*
X110672932Y-104608899D01*
X110493608Y-104390392D01*
X110275101Y-104211068D01*
X110142142Y-104140000D01*
X110275101Y-104068932D01*
X110493608Y-103889608D01*
X110672932Y-103671101D01*
X110806182Y-103421808D01*
X110888236Y-103151309D01*
X110915943Y-102870000D01*
X110888236Y-102588691D01*
X110806182Y-102318192D01*
X110672932Y-102068899D01*
X110493608Y-101850392D01*
X110275101Y-101671068D01*
X110142142Y-101600000D01*
X110275101Y-101528932D01*
X110493608Y-101349608D01*
X110672932Y-101131101D01*
X110806182Y-100881808D01*
X110888236Y-100611309D01*
X110915943Y-100330000D01*
X110888236Y-100048691D01*
X110806182Y-99778192D01*
X110672932Y-99528899D01*
X110493608Y-99310392D01*
X110275101Y-99131068D01*
X110137318Y-99057421D01*
X110329131Y-98942385D01*
X110537519Y-98753414D01*
X110705037Y-98527420D01*
X110825246Y-98273087D01*
X110865904Y-98139039D01*
X110743915Y-97917000D01*
X109601000Y-97917000D01*
X109601000Y-97937000D01*
X109347000Y-97937000D01*
X109347000Y-97917000D01*
X109327000Y-97917000D01*
X109327000Y-97663000D01*
X109347000Y-97663000D01*
X109347000Y-97643000D01*
X109601000Y-97643000D01*
X109601000Y-97663000D01*
X110743915Y-97663000D01*
X110865904Y-97440961D01*
X110825246Y-97306913D01*
X110705037Y-97052580D01*
X110537519Y-96826586D01*
X110329131Y-96637615D01*
X110137318Y-96522579D01*
X110275101Y-96448932D01*
X110493608Y-96269608D01*
X110672932Y-96051101D01*
X110806182Y-95801808D01*
X110888236Y-95531309D01*
X110915943Y-95250000D01*
X110888236Y-94968691D01*
X110806182Y-94698192D01*
X110672932Y-94448899D01*
X110493608Y-94230392D01*
X110275101Y-94051068D01*
X110142142Y-93980000D01*
X110275101Y-93908932D01*
X110493608Y-93729608D01*
X110672932Y-93511101D01*
X110806182Y-93261808D01*
X110888236Y-92991309D01*
X110915943Y-92710000D01*
X110888236Y-92428691D01*
X110806182Y-92158192D01*
X110672932Y-91908899D01*
X110493608Y-91690392D01*
X110275101Y-91511068D01*
X110142142Y-91440000D01*
X110275101Y-91368932D01*
X110493608Y-91189608D01*
X110672932Y-90971101D01*
X110806182Y-90721808D01*
X110888236Y-90451309D01*
X110915943Y-90170000D01*
X110888236Y-89888691D01*
X110806182Y-89618192D01*
X110672932Y-89368899D01*
X110493608Y-89150392D01*
X110275101Y-88971068D01*
X110142142Y-88900000D01*
X110275101Y-88828932D01*
X110493608Y-88649608D01*
X110672932Y-88431101D01*
X110806182Y-88181808D01*
X110888236Y-87911309D01*
X110915943Y-87630000D01*
X110888236Y-87348691D01*
X110806182Y-87078192D01*
X110672932Y-86828899D01*
X110493608Y-86610392D01*
X110275101Y-86431068D01*
X110142142Y-86360000D01*
X110275101Y-86288932D01*
X110493608Y-86109608D01*
X110672932Y-85891101D01*
X110806182Y-85641808D01*
X110888236Y-85371309D01*
X110915943Y-85090000D01*
X110888236Y-84808691D01*
X110806182Y-84538192D01*
X110672932Y-84288899D01*
X110493608Y-84070392D01*
X110275101Y-83891068D01*
X110142142Y-83820000D01*
X110275101Y-83748932D01*
X110493608Y-83569608D01*
X110672932Y-83351101D01*
X110806182Y-83101808D01*
X110888236Y-82831309D01*
X110915943Y-82550000D01*
X110888236Y-82268691D01*
X110806182Y-81998192D01*
X110672932Y-81748899D01*
X110493608Y-81530392D01*
X110380518Y-81437581D01*
X110398482Y-81435812D01*
X110518180Y-81399502D01*
X110628494Y-81340537D01*
X110725185Y-81261185D01*
X110804537Y-81164494D01*
X110863502Y-81054180D01*
X110899812Y-80934482D01*
X110912072Y-80810000D01*
X110912072Y-80010000D01*
X115652057Y-80010000D01*
X115679764Y-80291309D01*
X115761818Y-80561808D01*
X115895068Y-80811101D01*
X116074392Y-81029608D01*
X116292899Y-81208932D01*
X116425858Y-81280000D01*
X116292899Y-81351068D01*
X116074392Y-81530392D01*
X115895068Y-81748899D01*
X115761818Y-81998192D01*
X115679764Y-82268691D01*
X115652057Y-82550000D01*
X115679764Y-82831309D01*
X115761818Y-83101808D01*
X115895068Y-83351101D01*
X116074392Y-83569608D01*
X116292899Y-83748932D01*
X116425858Y-83820000D01*
X116292899Y-83891068D01*
X116074392Y-84070392D01*
X115895068Y-84288899D01*
X115761818Y-84538192D01*
X115679764Y-84808691D01*
X115652057Y-85090000D01*
X115679764Y-85371309D01*
X115761818Y-85641808D01*
X115895068Y-85891101D01*
X116074392Y-86109608D01*
X116292899Y-86288932D01*
X116425858Y-86360000D01*
X116292899Y-86431068D01*
X116074392Y-86610392D01*
X115895068Y-86828899D01*
X115761818Y-87078192D01*
X115679764Y-87348691D01*
X115652057Y-87630000D01*
X115679764Y-87911309D01*
X115761818Y-88181808D01*
X115895068Y-88431101D01*
X116074392Y-88649608D01*
X116292899Y-88828932D01*
X116425858Y-88900000D01*
X116292899Y-88971068D01*
X116074392Y-89150392D01*
X115895068Y-89368899D01*
X115761818Y-89618192D01*
X115679764Y-89888691D01*
X115652057Y-90170000D01*
X115679764Y-90451309D01*
X115761818Y-90721808D01*
X115895068Y-90971101D01*
X116074392Y-91189608D01*
X116292899Y-91368932D01*
X116425858Y-91440000D01*
X116292899Y-91511068D01*
X116074392Y-91690392D01*
X115895068Y-91908899D01*
X115761818Y-92158192D01*
X115679764Y-92428691D01*
X115652057Y-92710000D01*
X115679764Y-92991309D01*
X115761818Y-93261808D01*
X115895068Y-93511101D01*
X116074392Y-93729608D01*
X116292899Y-93908932D01*
X116430682Y-93982579D01*
X116238869Y-94097615D01*
X116030481Y-94286586D01*
X115862963Y-94512580D01*
X115742754Y-94766913D01*
X115702096Y-94900961D01*
X115824085Y-95123000D01*
X116967000Y-95123000D01*
X116967000Y-95103000D01*
X117221000Y-95103000D01*
X117221000Y-95123000D01*
X118363915Y-95123000D01*
X118485904Y-94900961D01*
X118445246Y-94766913D01*
X118325037Y-94512580D01*
X118157519Y-94286586D01*
X117949131Y-94097615D01*
X117757318Y-93982579D01*
X117895101Y-93908932D01*
X118113608Y-93729608D01*
X118292932Y-93511101D01*
X118426182Y-93261808D01*
X118508236Y-92991309D01*
X118535943Y-92710000D01*
X118508236Y-92428691D01*
X118426182Y-92158192D01*
X118292932Y-91908899D01*
X118113608Y-91690392D01*
X117895101Y-91511068D01*
X117762142Y-91440000D01*
X117895101Y-91368932D01*
X118113608Y-91189608D01*
X118292932Y-90971101D01*
X118426182Y-90721808D01*
X118508236Y-90451309D01*
X118535943Y-90170000D01*
X118508236Y-89888691D01*
X118426182Y-89618192D01*
X118292932Y-89368899D01*
X118113608Y-89150392D01*
X117895101Y-88971068D01*
X117762142Y-88900000D01*
X117895101Y-88828932D01*
X118113608Y-88649608D01*
X118292932Y-88431101D01*
X118426182Y-88181808D01*
X118508236Y-87911309D01*
X118535943Y-87630000D01*
X118508236Y-87348691D01*
X118426182Y-87078192D01*
X118292932Y-86828899D01*
X118113608Y-86610392D01*
X117895101Y-86431068D01*
X117762142Y-86360000D01*
X117895101Y-86288932D01*
X118113608Y-86109608D01*
X118292932Y-85891101D01*
X118426182Y-85641808D01*
X118508236Y-85371309D01*
X118535943Y-85090000D01*
X118508236Y-84808691D01*
X118426182Y-84538192D01*
X118292932Y-84288899D01*
X118113608Y-84070392D01*
X117895101Y-83891068D01*
X117762142Y-83820000D01*
X117895101Y-83748932D01*
X118113608Y-83569608D01*
X118292932Y-83351101D01*
X118426182Y-83101808D01*
X118508236Y-82831309D01*
X118535943Y-82550000D01*
X118508236Y-82268691D01*
X118426182Y-81998192D01*
X118292932Y-81748899D01*
X118113608Y-81530392D01*
X117895101Y-81351068D01*
X117762142Y-81280000D01*
X117895101Y-81208932D01*
X118113608Y-81029608D01*
X118292932Y-80811101D01*
X118426182Y-80561808D01*
X118508236Y-80291309D01*
X118535943Y-80010000D01*
X118508236Y-79728691D01*
X118426182Y-79458192D01*
X118292932Y-79208899D01*
X118113608Y-78990392D01*
X117895101Y-78811068D01*
X117645808Y-78677818D01*
X117375309Y-78595764D01*
X117164492Y-78575000D01*
X117023508Y-78575000D01*
X116812691Y-78595764D01*
X116542192Y-78677818D01*
X116292899Y-78811068D01*
X116074392Y-78990392D01*
X115895068Y-79208899D01*
X115761818Y-79458192D01*
X115679764Y-79728691D01*
X115652057Y-80010000D01*
X110912072Y-80010000D01*
X110912072Y-79210000D01*
X110899812Y-79085518D01*
X110863502Y-78965820D01*
X110804537Y-78855506D01*
X110725185Y-78758815D01*
X110628494Y-78679463D01*
X110518180Y-78620498D01*
X110398482Y-78584188D01*
X110274000Y-78571928D01*
X110217213Y-78571928D01*
X110179546Y-78447753D01*
X110108974Y-78315724D01*
X110014001Y-78199999D01*
X109985004Y-78176202D01*
X108767804Y-76959003D01*
X108744001Y-76929999D01*
X108628276Y-76835026D01*
X108496247Y-76764454D01*
X108352986Y-76720997D01*
X108241333Y-76710000D01*
X108241322Y-76710000D01*
X108204000Y-76706324D01*
X108166678Y-76710000D01*
X91676323Y-76710000D01*
X91639000Y-76706324D01*
X91601677Y-76710000D01*
X91601667Y-76710000D01*
X91490014Y-76720997D01*
X91346753Y-76764454D01*
X91214724Y-76835026D01*
X91098999Y-76929999D01*
X91075201Y-76958997D01*
X89518376Y-78515823D01*
X89503912Y-78509832D01*
X89188033Y-78447000D01*
X88865967Y-78447000D01*
X88550088Y-78509832D01*
X88252537Y-78633082D01*
X87984748Y-78812013D01*
X87757013Y-79039748D01*
X87578082Y-79307537D01*
X87572091Y-79322000D01*
X83981909Y-79322000D01*
X83975918Y-79307537D01*
X83796987Y-79039748D01*
X83569252Y-78812013D01*
X83301463Y-78633082D01*
X83003912Y-78509832D01*
X82688033Y-78447000D01*
X82365967Y-78447000D01*
X82050088Y-78509832D01*
X81752537Y-78633082D01*
X81484748Y-78812013D01*
X81257013Y-79039748D01*
X81078082Y-79307537D01*
X80954832Y-79605088D01*
X80892000Y-79920967D01*
X80892000Y-80243033D01*
X80954832Y-80558912D01*
X80960823Y-80573376D01*
X80690997Y-80843202D01*
X80661999Y-80867000D01*
X80638201Y-80895998D01*
X80638200Y-80895999D01*
X80567025Y-80982725D01*
X80496453Y-81114755D01*
X80467886Y-81208932D01*
X80452997Y-81258015D01*
X80442000Y-81369668D01*
X80438323Y-81407001D01*
X77978000Y-81407001D01*
X77978000Y-75946000D01*
X121793000Y-75946000D01*
X121793000Y-118618000D01*
X121793000Y-118618000D01*
G37*
X121793000Y-118618000D02*
X77978000Y-118618000D01*
X77978000Y-113186609D01*
X86669538Y-113186609D01*
X86673409Y-113224282D01*
X86765579Y-113449533D01*
X86899922Y-113652474D01*
X87071275Y-113825307D01*
X87273054Y-113961390D01*
X87497504Y-114055493D01*
X87736000Y-114104000D01*
X88011000Y-114104000D01*
X88011000Y-112996000D01*
X86794269Y-112996000D01*
X86669538Y-113186609D01*
X77978000Y-113186609D01*
X77978000Y-81407001D01*
X80438323Y-81407001D01*
X80442000Y-81444333D01*
X80441999Y-85180678D01*
X80438323Y-85218001D01*
X80441999Y-85255323D01*
X80441999Y-85255333D01*
X80452996Y-85366986D01*
X80487113Y-85479456D01*
X80496453Y-85510247D01*
X80567025Y-85642277D01*
X80569261Y-85645001D01*
X80661998Y-85758002D01*
X80691001Y-85781805D01*
X81409001Y-86499805D01*
X81409000Y-87806099D01*
X81367899Y-87828068D01*
X81149392Y-88007392D01*
X80970068Y-88225899D01*
X80836818Y-88475192D01*
X80754764Y-88745691D01*
X80727057Y-89027000D01*
X80754764Y-89308309D01*
X80836818Y-89578808D01*
X80970068Y-89828101D01*
X81149392Y-90046608D01*
X81367899Y-90225932D01*
X81617192Y-90359182D01*
X81887691Y-90441236D01*
X82098508Y-90462000D01*
X82239492Y-90462000D01*
X82450309Y-90441236D01*
X82720808Y-90359182D01*
X82970101Y-90225932D01*
X83188608Y-90046608D01*
X83367932Y-89828101D01*
X83501182Y-89578808D01*
X83583236Y-89308309D01*
X83610943Y-89027000D01*
X83583236Y-88745691D01*
X83501182Y-88475192D01*
X83367932Y-88225899D01*
X83188608Y-88007392D01*
X82970101Y-87828068D01*
X82929000Y-87806099D01*
X82929000Y-86222325D01*
X82932676Y-86185002D01*
X82931406Y-86172108D01*
X83213088Y-86074795D01*
X83387044Y-85981814D01*
X83482808Y-85717413D01*
X88071192Y-85717413D01*
X88166956Y-85981814D01*
X88456571Y-86122704D01*
X88768108Y-86204384D01*
X89089595Y-86223718D01*
X89408675Y-86179961D01*
X89713088Y-86074795D01*
X89887044Y-85981814D01*
X89982808Y-85717413D01*
X89027000Y-84761605D01*
X88071192Y-85717413D01*
X83482808Y-85717413D01*
X82527000Y-84761605D01*
X82512858Y-84775748D01*
X82333253Y-84596143D01*
X82347395Y-84582000D01*
X82706605Y-84582000D01*
X83662413Y-85537808D01*
X83926814Y-85442044D01*
X84067704Y-85152429D01*
X84149384Y-84840892D01*
X84161189Y-84644595D01*
X87385282Y-84644595D01*
X87429039Y-84963675D01*
X87534205Y-85268088D01*
X87627186Y-85442044D01*
X87891587Y-85537808D01*
X88847395Y-84582000D01*
X89206605Y-84582000D01*
X90162413Y-85537808D01*
X90426814Y-85442044D01*
X90567704Y-85152429D01*
X90649384Y-84840892D01*
X90668718Y-84519405D01*
X90624961Y-84200325D01*
X90519795Y-83895912D01*
X90426814Y-83721956D01*
X90162413Y-83626192D01*
X89206605Y-84582000D01*
X88847395Y-84582000D01*
X87891587Y-83626192D01*
X87627186Y-83721956D01*
X87486296Y-84011571D01*
X87404616Y-84323108D01*
X87385282Y-84644595D01*
X84161189Y-84644595D01*
X84168718Y-84519405D01*
X84124961Y-84200325D01*
X84019795Y-83895912D01*
X83926814Y-83721956D01*
X83662413Y-83626192D01*
X82706605Y-84582000D01*
X82347395Y-84582000D01*
X82333253Y-84567858D01*
X82512858Y-84388253D01*
X82527000Y-84402395D01*
X83482808Y-83446587D01*
X88071192Y-83446587D01*
X89027000Y-84402395D01*
X89982808Y-83446587D01*
X89887044Y-83182186D01*
X89597429Y-83041296D01*
X89285892Y-82959616D01*
X88964405Y-82940282D01*
X88645325Y-82984039D01*
X88340912Y-83089205D01*
X88166956Y-83182186D01*
X88071192Y-83446587D01*
X83482808Y-83446587D01*
X83387044Y-83182186D01*
X83097429Y-83041296D01*
X82785892Y-82959616D01*
X82464405Y-82940282D01*
X82145325Y-82984039D01*
X81961999Y-83047373D01*
X81961999Y-81721802D01*
X82035624Y-81648177D01*
X82050088Y-81654168D01*
X82365967Y-81717000D01*
X82688033Y-81717000D01*
X83003912Y-81654168D01*
X83301463Y-81530918D01*
X83569252Y-81351987D01*
X83796987Y-81124252D01*
X83975918Y-80856463D01*
X83981909Y-80842000D01*
X87572091Y-80842000D01*
X87578082Y-80856463D01*
X87757013Y-81124252D01*
X87984748Y-81351987D01*
X88252537Y-81530918D01*
X88550088Y-81654168D01*
X88865967Y-81717000D01*
X89188033Y-81717000D01*
X89503912Y-81654168D01*
X89801463Y-81530918D01*
X90069252Y-81351987D01*
X90296987Y-81124252D01*
X90475918Y-80856463D01*
X90599168Y-80558912D01*
X90662000Y-80243033D01*
X90662000Y-79920967D01*
X90654448Y-79883000D01*
X91014057Y-79883000D01*
X91041764Y-80164309D01*
X91123818Y-80434808D01*
X91257068Y-80684101D01*
X91436392Y-80902608D01*
X91654899Y-81081932D01*
X91787858Y-81153000D01*
X91654899Y-81224068D01*
X91436392Y-81403392D01*
X91257068Y-81621899D01*
X91123818Y-81871192D01*
X91041764Y-82141691D01*
X91014057Y-82423000D01*
X91041764Y-82704309D01*
X91123818Y-82974808D01*
X91257068Y-83224101D01*
X91436392Y-83442608D01*
X91654899Y-83621932D01*
X91787858Y-83693000D01*
X91654899Y-83764068D01*
X91436392Y-83943392D01*
X91257068Y-84161899D01*
X91123818Y-84411192D01*
X91041764Y-84681691D01*
X91014057Y-84963000D01*
X91041764Y-85244309D01*
X91123818Y-85514808D01*
X91257068Y-85764101D01*
X91436392Y-85982608D01*
X91654899Y-86161932D01*
X91904192Y-86295182D01*
X92174691Y-86377236D01*
X92385508Y-86398000D01*
X92526492Y-86398000D01*
X92737309Y-86377236D01*
X93007808Y-86295182D01*
X93257101Y-86161932D01*
X93475608Y-85982608D01*
X93654932Y-85764101D01*
X93788182Y-85514808D01*
X93870236Y-85244309D01*
X93897943Y-84963000D01*
X93870236Y-84681691D01*
X93788182Y-84411192D01*
X93654932Y-84161899D01*
X93475608Y-83943392D01*
X93257101Y-83764068D01*
X93124142Y-83693000D01*
X93257101Y-83621932D01*
X93475608Y-83442608D01*
X93654932Y-83224101D01*
X93788182Y-82974808D01*
X93870236Y-82704309D01*
X93897943Y-82423000D01*
X93870236Y-82141691D01*
X93788182Y-81871192D01*
X93654932Y-81621899D01*
X93475608Y-81403392D01*
X93257101Y-81224068D01*
X93124142Y-81153000D01*
X93257101Y-81081932D01*
X93475608Y-80902608D01*
X93654932Y-80684101D01*
X93788182Y-80434808D01*
X93870236Y-80164309D01*
X93897943Y-79883000D01*
X98634057Y-79883000D01*
X98661764Y-80164309D01*
X98743818Y-80434808D01*
X98877068Y-80684101D01*
X99056392Y-80902608D01*
X99274899Y-81081932D01*
X99412682Y-81155579D01*
X99220869Y-81270615D01*
X99012481Y-81459586D01*
X98844963Y-81685580D01*
X98724754Y-81939913D01*
X98684096Y-82073961D01*
X98806085Y-82296000D01*
X99949000Y-82296000D01*
X99949000Y-82276000D01*
X100203000Y-82276000D01*
X100203000Y-82296000D01*
X101345915Y-82296000D01*
X101467904Y-82073961D01*
X101427246Y-81939913D01*
X101307037Y-81685580D01*
X101139519Y-81459586D01*
X100931131Y-81270615D01*
X100739318Y-81155579D01*
X100877101Y-81081932D01*
X101095608Y-80902608D01*
X101274932Y-80684101D01*
X101408182Y-80434808D01*
X101490236Y-80164309D01*
X101517943Y-79883000D01*
X101490236Y-79601691D01*
X101408182Y-79331192D01*
X101274932Y-79081899D01*
X101095608Y-78863392D01*
X100877101Y-78684068D01*
X100627808Y-78550818D01*
X100357309Y-78468764D01*
X100146492Y-78448000D01*
X100005508Y-78448000D01*
X99794691Y-78468764D01*
X99524192Y-78550818D01*
X99274899Y-78684068D01*
X99056392Y-78863392D01*
X98877068Y-79081899D01*
X98743818Y-79331192D01*
X98661764Y-79601691D01*
X98634057Y-79883000D01*
X93897943Y-79883000D01*
X93870236Y-79601691D01*
X93788182Y-79331192D01*
X93654932Y-79081899D01*
X93475608Y-78863392D01*
X93257101Y-78684068D01*
X93007808Y-78550818D01*
X92737309Y-78468764D01*
X92526492Y-78448000D01*
X92385508Y-78448000D01*
X92174691Y-78468764D01*
X91904192Y-78550818D01*
X91654899Y-78684068D01*
X91436392Y-78863392D01*
X91257068Y-79081899D01*
X91123818Y-79331192D01*
X91041764Y-79601691D01*
X91014057Y-79883000D01*
X90654448Y-79883000D01*
X90599168Y-79605088D01*
X90593177Y-79590624D01*
X91953802Y-78230000D01*
X107889199Y-78230000D01*
X108331989Y-78672791D01*
X108319506Y-78679463D01*
X108222815Y-78758815D01*
X108143463Y-78855506D01*
X108084498Y-78965820D01*
X108048188Y-79085518D01*
X108035928Y-79210000D01*
X108035928Y-80810000D01*
X108048188Y-80934482D01*
X108084498Y-81054180D01*
X108143463Y-81164494D01*
X108222815Y-81261185D01*
X108319506Y-81340537D01*
X108429820Y-81399502D01*
X108549518Y-81435812D01*
X108567482Y-81437581D01*
X108454392Y-81530392D01*
X108275068Y-81748899D01*
X108141818Y-81998192D01*
X108059764Y-82268691D01*
X108032057Y-82550000D01*
X108059764Y-82831309D01*
X108141818Y-83101808D01*
X108275068Y-83351101D01*
X108454392Y-83569608D01*
X108672899Y-83748932D01*
X108805858Y-83820000D01*
X108672899Y-83891068D01*
X108454392Y-84070392D01*
X108275068Y-84288899D01*
X108141818Y-84538192D01*
X108059764Y-84808691D01*
X108032057Y-85090000D01*
X108059764Y-85371309D01*
X108141818Y-85641808D01*
X108275068Y-85891101D01*
X108454392Y-86109608D01*
X108672899Y-86288932D01*
X108805858Y-86360000D01*
X108672899Y-86431068D01*
X108454392Y-86610392D01*
X108275068Y-86828899D01*
X108141818Y-87078192D01*
X108059764Y-87348691D01*
X108032057Y-87630000D01*
X108059764Y-87911309D01*
X108141818Y-88181808D01*
X108275068Y-88431101D01*
X108454392Y-88649608D01*
X108672899Y-88828932D01*
X108805858Y-88900000D01*
X108672899Y-88971068D01*
X108454392Y-89150392D01*
X108275068Y-89368899D01*
X108141818Y-89618192D01*
X108059764Y-89888691D01*
X108032057Y-90170000D01*
X108059764Y-90451309D01*
X108141818Y-90721808D01*
X108275068Y-90971101D01*
X108454392Y-91189608D01*
X108672899Y-91368932D01*
X108805858Y-91440000D01*
X108672899Y-91511068D01*
X108454392Y-91690392D01*
X108275068Y-91908899D01*
X108141818Y-92158192D01*
X108059764Y-92428691D01*
X108032057Y-92710000D01*
X108059764Y-92991309D01*
X108141818Y-93261808D01*
X108275068Y-93511101D01*
X108454392Y-93729608D01*
X108672899Y-93908932D01*
X108805858Y-93980000D01*
X108672899Y-94051068D01*
X108454392Y-94230392D01*
X108275068Y-94448899D01*
X108141818Y-94698192D01*
X108059764Y-94968691D01*
X108032057Y-95250000D01*
X108059764Y-95531309D01*
X108141818Y-95801808D01*
X108275068Y-96051101D01*
X108454392Y-96269608D01*
X108672899Y-96448932D01*
X108810682Y-96522579D01*
X108618869Y-96637615D01*
X108410481Y-96826586D01*
X108242963Y-97052580D01*
X108126011Y-97300022D01*
X108126011Y-96962666D01*
X108129687Y-96925343D01*
X108126011Y-96888020D01*
X108126011Y-96888011D01*
X108115014Y-96776358D01*
X108071557Y-96633097D01*
X108000985Y-96501068D01*
X107965491Y-96457818D01*
X107929810Y-96414340D01*
X107929806Y-96414336D01*
X107906012Y-96385343D01*
X107877019Y-96361549D01*
X107189688Y-95674220D01*
X107226000Y-95491668D01*
X107226000Y-95208998D01*
X107170853Y-94931759D01*
X107062680Y-94670606D01*
X106905637Y-94435574D01*
X106705759Y-94235696D01*
X106470727Y-94078653D01*
X106209574Y-93970480D01*
X105932335Y-93915333D01*
X105649665Y-93915333D01*
X105467113Y-93951645D01*
X105425999Y-93910531D01*
X105425999Y-91738235D01*
X105579184Y-91776633D01*
X105861512Y-91790550D01*
X106141130Y-91749120D01*
X106407292Y-91653936D01*
X106532514Y-91587004D01*
X106604097Y-91343035D01*
X105791000Y-90529938D01*
X105776858Y-90544081D01*
X105597253Y-90364476D01*
X105611395Y-90350333D01*
X105970605Y-90350333D01*
X106783702Y-91163430D01*
X107027671Y-91091847D01*
X107148571Y-90836337D01*
X107217300Y-90562149D01*
X107231217Y-90279821D01*
X107189787Y-90000203D01*
X107094603Y-89734041D01*
X107027671Y-89608819D01*
X106783702Y-89537236D01*
X105970605Y-90350333D01*
X105611395Y-90350333D01*
X105597253Y-90336191D01*
X105776858Y-90156586D01*
X105791000Y-90170728D01*
X106604097Y-89357631D01*
X106532514Y-89113662D01*
X106277004Y-88992762D01*
X106260701Y-88988675D01*
X106470727Y-88901680D01*
X106705759Y-88744637D01*
X106905637Y-88544759D01*
X107062680Y-88309727D01*
X107170853Y-88048574D01*
X107226000Y-87771335D01*
X107226000Y-87488665D01*
X107170853Y-87211426D01*
X107062680Y-86950273D01*
X106905637Y-86715241D01*
X106705759Y-86515363D01*
X106470727Y-86358320D01*
X106209574Y-86250147D01*
X105932335Y-86195000D01*
X105649665Y-86195000D01*
X105372426Y-86250147D01*
X105111273Y-86358320D01*
X104876241Y-86515363D01*
X104676363Y-86715241D01*
X104519320Y-86950273D01*
X104411147Y-87211426D01*
X104356000Y-87488665D01*
X104356000Y-87771335D01*
X104392312Y-87953887D01*
X104155001Y-88191197D01*
X104125998Y-88215000D01*
X104086340Y-88263324D01*
X104031025Y-88330725D01*
X104022180Y-88347273D01*
X103960453Y-88462755D01*
X103916996Y-88606016D01*
X103905999Y-88717669D01*
X103905999Y-88717679D01*
X103902323Y-88755001D01*
X103905999Y-88792324D01*
X103906000Y-94188000D01*
X103902323Y-94225332D01*
X103916997Y-94374317D01*
X103960453Y-94517578D01*
X104031025Y-94649608D01*
X104084986Y-94715359D01*
X104125999Y-94765333D01*
X104154997Y-94789131D01*
X104392312Y-95026446D01*
X104356000Y-95208998D01*
X104356000Y-95491668D01*
X104411147Y-95768907D01*
X104519320Y-96030060D01*
X104676363Y-96265092D01*
X104876241Y-96464970D01*
X105111273Y-96622013D01*
X105328595Y-96712031D01*
X105174708Y-96767063D01*
X105049486Y-96833995D01*
X104977903Y-97077964D01*
X105791000Y-97891061D01*
X105805143Y-97876919D01*
X105984748Y-98056524D01*
X105970605Y-98070666D01*
X105984748Y-98084809D01*
X105805143Y-98264414D01*
X105791000Y-98250271D01*
X104977903Y-99063368D01*
X105049486Y-99307337D01*
X105304996Y-99428237D01*
X105579184Y-99496966D01*
X105861512Y-99510883D01*
X106141130Y-99469453D01*
X106407292Y-99374269D01*
X106532514Y-99307337D01*
X106604097Y-99063370D01*
X106606012Y-99065285D01*
X106606011Y-101889380D01*
X106470727Y-101798986D01*
X106209574Y-101690813D01*
X105932335Y-101635666D01*
X105649665Y-101635666D01*
X105372426Y-101690813D01*
X105111273Y-101798986D01*
X104876241Y-101956029D01*
X104676363Y-102155907D01*
X104519320Y-102390939D01*
X104411147Y-102652092D01*
X104356000Y-102929331D01*
X104356000Y-103212001D01*
X104411147Y-103489240D01*
X104519320Y-103750393D01*
X104676363Y-103985425D01*
X104876241Y-104185303D01*
X105111273Y-104342346D01*
X105327668Y-104431980D01*
X105239192Y-104458818D01*
X104989899Y-104592068D01*
X104771392Y-104771392D01*
X104592068Y-104989899D01*
X104570099Y-105031000D01*
X101514072Y-105031000D01*
X101514072Y-103636332D01*
X101501812Y-103511850D01*
X101465502Y-103392152D01*
X101406537Y-103281838D01*
X101327185Y-103185147D01*
X101230494Y-103105795D01*
X101120180Y-103046830D01*
X101000482Y-103010520D01*
X100975920Y-103008101D01*
X101139519Y-102859746D01*
X101307037Y-102633752D01*
X101427246Y-102379419D01*
X101467904Y-102245371D01*
X101345915Y-102023332D01*
X100203000Y-102023332D01*
X100203000Y-102043332D01*
X99949000Y-102043332D01*
X99949000Y-102023332D01*
X98806085Y-102023332D01*
X98684096Y-102245371D01*
X98724754Y-102379419D01*
X98844963Y-102633752D01*
X99012481Y-102859746D01*
X99176080Y-103008101D01*
X99151518Y-103010520D01*
X99031820Y-103046830D01*
X98921506Y-103105795D01*
X98824815Y-103185147D01*
X98745463Y-103281838D01*
X98686498Y-103392152D01*
X98650188Y-103511850D01*
X98637928Y-103636332D01*
X98637928Y-105031000D01*
X93765273Y-105031000D01*
X93788182Y-104988140D01*
X93870236Y-104717641D01*
X93897943Y-104436332D01*
X93870236Y-104155023D01*
X93788182Y-103884524D01*
X93654932Y-103635231D01*
X93475608Y-103416724D01*
X93257101Y-103237400D01*
X93124142Y-103166332D01*
X93257101Y-103095264D01*
X93475608Y-102915940D01*
X93654932Y-102697433D01*
X93788182Y-102448140D01*
X93870236Y-102177641D01*
X93897943Y-101896332D01*
X93870236Y-101615023D01*
X93788182Y-101344524D01*
X93654932Y-101095231D01*
X93475608Y-100876724D01*
X93257101Y-100697400D01*
X93124142Y-100626332D01*
X93257101Y-100555264D01*
X93475608Y-100375940D01*
X93654932Y-100157433D01*
X93788182Y-99908140D01*
X93870236Y-99637641D01*
X93897943Y-99356332D01*
X98634057Y-99356332D01*
X98661764Y-99637641D01*
X98743818Y-99908140D01*
X98877068Y-100157433D01*
X99056392Y-100375940D01*
X99274899Y-100555264D01*
X99412682Y-100628911D01*
X99220869Y-100743947D01*
X99012481Y-100932918D01*
X98844963Y-101158912D01*
X98724754Y-101413245D01*
X98684096Y-101547293D01*
X98806085Y-101769332D01*
X99949000Y-101769332D01*
X99949000Y-101749332D01*
X100203000Y-101749332D01*
X100203000Y-101769332D01*
X101345915Y-101769332D01*
X101467904Y-101547293D01*
X101427246Y-101413245D01*
X101307037Y-101158912D01*
X101139519Y-100932918D01*
X100931131Y-100743947D01*
X100739318Y-100628911D01*
X100877101Y-100555264D01*
X101095608Y-100375940D01*
X101274932Y-100157433D01*
X101408182Y-99908140D01*
X101490236Y-99637641D01*
X101517943Y-99356332D01*
X101490236Y-99075023D01*
X101408182Y-98804524D01*
X101274932Y-98555231D01*
X101095608Y-98336724D01*
X100877101Y-98157400D01*
X100846752Y-98141178D01*
X104350783Y-98141178D01*
X104392213Y-98420796D01*
X104487397Y-98686958D01*
X104554329Y-98812180D01*
X104798298Y-98883763D01*
X105611395Y-98070666D01*
X104798298Y-97257569D01*
X104554329Y-97329152D01*
X104433429Y-97584662D01*
X104364700Y-97858850D01*
X104350783Y-98141178D01*
X100846752Y-98141178D01*
X100627808Y-98024150D01*
X100357309Y-97942096D01*
X100146492Y-97921332D01*
X100005508Y-97921332D01*
X99794691Y-97942096D01*
X99524192Y-98024150D01*
X99274899Y-98157400D01*
X99056392Y-98336724D01*
X98877068Y-98555231D01*
X98743818Y-98804524D01*
X98661764Y-99075023D01*
X98634057Y-99356332D01*
X93897943Y-99356332D01*
X93870236Y-99075023D01*
X93788182Y-98804524D01*
X93654932Y-98555231D01*
X93475608Y-98336724D01*
X93257101Y-98157400D01*
X93007808Y-98024150D01*
X92737309Y-97942096D01*
X92526492Y-97921332D01*
X92385508Y-97921332D01*
X92242371Y-97935430D01*
X96278135Y-93899666D01*
X98637928Y-93899666D01*
X98637928Y-95499666D01*
X98650188Y-95624148D01*
X98686498Y-95743846D01*
X98745463Y-95854160D01*
X98824815Y-95950851D01*
X98921506Y-96030203D01*
X99031820Y-96089168D01*
X99151518Y-96125478D01*
X99276000Y-96137738D01*
X100876000Y-96137738D01*
X101000482Y-96125478D01*
X101120180Y-96089168D01*
X101230494Y-96030203D01*
X101327185Y-95950851D01*
X101406537Y-95854160D01*
X101465502Y-95743846D01*
X101501812Y-95624148D01*
X101514072Y-95499666D01*
X101514072Y-93899666D01*
X101501812Y-93775184D01*
X101465502Y-93655486D01*
X101406537Y-93545172D01*
X101327185Y-93448481D01*
X101230494Y-93369129D01*
X101120180Y-93310164D01*
X101000482Y-93273854D01*
X100975920Y-93271435D01*
X101139519Y-93123080D01*
X101307037Y-92897086D01*
X101427246Y-92642753D01*
X101467904Y-92508705D01*
X101345915Y-92286666D01*
X100203000Y-92286666D01*
X100203000Y-92306666D01*
X99949000Y-92306666D01*
X99949000Y-92286666D01*
X98806085Y-92286666D01*
X98684096Y-92508705D01*
X98724754Y-92642753D01*
X98844963Y-92897086D01*
X99012481Y-93123080D01*
X99176080Y-93271435D01*
X99151518Y-93273854D01*
X99031820Y-93310164D01*
X98921506Y-93369129D01*
X98824815Y-93448481D01*
X98745463Y-93545172D01*
X98686498Y-93655486D01*
X98650188Y-93775184D01*
X98637928Y-93899666D01*
X96278135Y-93899666D01*
X99329838Y-90847964D01*
X99412682Y-90892245D01*
X99220869Y-91007281D01*
X99012481Y-91196252D01*
X98844963Y-91422246D01*
X98724754Y-91676579D01*
X98684096Y-91810627D01*
X98806085Y-92032666D01*
X99949000Y-92032666D01*
X99949000Y-92012666D01*
X100203000Y-92012666D01*
X100203000Y-92032666D01*
X101345915Y-92032666D01*
X101467904Y-91810627D01*
X101427246Y-91676579D01*
X101307037Y-91422246D01*
X101139519Y-91196252D01*
X100931131Y-91007281D01*
X100739318Y-90892245D01*
X100877101Y-90818598D01*
X101095608Y-90639274D01*
X101274932Y-90420767D01*
X101408182Y-90171474D01*
X101490236Y-89900975D01*
X101517943Y-89619666D01*
X101490236Y-89338357D01*
X101408182Y-89067858D01*
X101274932Y-88818565D01*
X101095608Y-88600058D01*
X100877101Y-88420734D01*
X100627808Y-88287484D01*
X100357309Y-88205430D01*
X100146492Y-88184666D01*
X100114137Y-88184666D01*
X106302004Y-81996800D01*
X106331001Y-81973003D01*
X106425974Y-81857278D01*
X106496546Y-81725249D01*
X106540003Y-81581988D01*
X106551000Y-81470335D01*
X106551000Y-81470326D01*
X106554676Y-81433003D01*
X106551000Y-81395680D01*
X106551000Y-81230901D01*
X106592101Y-81208932D01*
X106810608Y-81029608D01*
X106989932Y-80811101D01*
X107123182Y-80561808D01*
X107205236Y-80291309D01*
X107232943Y-80010000D01*
X107205236Y-79728691D01*
X107123182Y-79458192D01*
X106989932Y-79208899D01*
X106810608Y-78990392D01*
X106592101Y-78811068D01*
X106342808Y-78677818D01*
X106072309Y-78595764D01*
X105861492Y-78575000D01*
X105720508Y-78575000D01*
X105509691Y-78595764D01*
X105239192Y-78677818D01*
X104989899Y-78811068D01*
X104771392Y-78990392D01*
X104592068Y-79208899D01*
X104458818Y-79458192D01*
X104376764Y-79728691D01*
X104349057Y-80010000D01*
X104376764Y-80291309D01*
X104458818Y-80561808D01*
X104592068Y-80811101D01*
X104771392Y-81029608D01*
X104962639Y-81186561D01*
X101514072Y-84635129D01*
X101514072Y-84163000D01*
X101501812Y-84038518D01*
X101465502Y-83918820D01*
X101406537Y-83808506D01*
X101327185Y-83711815D01*
X101230494Y-83632463D01*
X101120180Y-83573498D01*
X101000482Y-83537188D01*
X100975920Y-83534769D01*
X101139519Y-83386414D01*
X101307037Y-83160420D01*
X101427246Y-82906087D01*
X101467904Y-82772039D01*
X101345915Y-82550000D01*
X100203000Y-82550000D01*
X100203000Y-82570000D01*
X99949000Y-82570000D01*
X99949000Y-82550000D01*
X98806085Y-82550000D01*
X98684096Y-82772039D01*
X98724754Y-82906087D01*
X98844963Y-83160420D01*
X99012481Y-83386414D01*
X99176080Y-83534769D01*
X99151518Y-83537188D01*
X99031820Y-83573498D01*
X98921506Y-83632463D01*
X98824815Y-83711815D01*
X98745463Y-83808506D01*
X98686498Y-83918820D01*
X98650188Y-84038518D01*
X98637928Y-84163000D01*
X98637928Y-85763000D01*
X98650188Y-85887482D01*
X98686498Y-86007180D01*
X98745463Y-86117494D01*
X98824815Y-86214185D01*
X98921506Y-86293537D01*
X99031820Y-86352502D01*
X99151518Y-86388812D01*
X99276000Y-86401072D01*
X99748129Y-86401072D01*
X98439997Y-87709204D01*
X98410999Y-87733002D01*
X98387201Y-87762000D01*
X98387200Y-87762001D01*
X98316025Y-87848727D01*
X98245453Y-87980757D01*
X98242248Y-87991324D01*
X98203208Y-88120027D01*
X98201997Y-88124018D01*
X98187323Y-88273003D01*
X98191000Y-88310335D01*
X98190999Y-89837199D01*
X93809631Y-94218567D01*
X93788182Y-94147858D01*
X93654932Y-93898565D01*
X93475608Y-93680058D01*
X93257101Y-93500734D01*
X93124142Y-93429666D01*
X93257101Y-93358598D01*
X93475608Y-93179274D01*
X93654932Y-92960767D01*
X93788182Y-92711474D01*
X93870236Y-92440975D01*
X93897943Y-92159666D01*
X93870236Y-91878357D01*
X93788182Y-91607858D01*
X93654932Y-91358565D01*
X93475608Y-91140058D01*
X93257101Y-90960734D01*
X93124142Y-90889666D01*
X93257101Y-90818598D01*
X93475608Y-90639274D01*
X93654932Y-90420767D01*
X93788182Y-90171474D01*
X93870236Y-89900975D01*
X93897943Y-89619666D01*
X93870236Y-89338357D01*
X93788182Y-89067858D01*
X93654932Y-88818565D01*
X93475608Y-88600058D01*
X93257101Y-88420734D01*
X93007808Y-88287484D01*
X92737309Y-88205430D01*
X92526492Y-88184666D01*
X92385508Y-88184666D01*
X92174691Y-88205430D01*
X91904192Y-88287484D01*
X91654899Y-88420734D01*
X91436392Y-88600058D01*
X91257068Y-88818565D01*
X91223241Y-88881850D01*
X91168853Y-88608426D01*
X91060680Y-88347273D01*
X90903637Y-88112241D01*
X90703759Y-87912363D01*
X90468727Y-87755320D01*
X90207574Y-87647147D01*
X89930335Y-87592000D01*
X89647665Y-87592000D01*
X89370426Y-87647147D01*
X89109273Y-87755320D01*
X88874241Y-87912363D01*
X88674363Y-88112241D01*
X88517320Y-88347273D01*
X88409147Y-88608426D01*
X88354000Y-88885665D01*
X88354000Y-89168335D01*
X88409147Y-89445574D01*
X88517320Y-89706727D01*
X88674363Y-89941759D01*
X88874241Y-90141637D01*
X89109273Y-90298680D01*
X89370426Y-90406853D01*
X89647665Y-90462000D01*
X89930335Y-90462000D01*
X90112886Y-90425688D01*
X90120990Y-90433792D01*
X90120989Y-99449798D01*
X89420674Y-100150114D01*
X89290502Y-99991498D01*
X89141238Y-99869000D01*
X89290502Y-99746502D01*
X89444833Y-99558449D01*
X89559511Y-99343901D01*
X89630130Y-99111102D01*
X89653975Y-98869000D01*
X89630130Y-98626898D01*
X89559511Y-98394099D01*
X89444833Y-98179551D01*
X89290502Y-97991498D01*
X89141238Y-97869000D01*
X89290502Y-97746502D01*
X89444833Y-97558449D01*
X89559511Y-97343901D01*
X89630130Y-97111102D01*
X89653975Y-96869000D01*
X89630130Y-96626898D01*
X89559511Y-96394099D01*
X89444833Y-96179551D01*
X89290502Y-95991498D01*
X89251889Y-95959809D01*
X89256387Y-95957405D01*
X89390962Y-95846962D01*
X89501405Y-95712387D01*
X89583472Y-95558851D01*
X89634008Y-95392255D01*
X89651072Y-95219001D01*
X89651072Y-94518999D01*
X89634008Y-94345745D01*
X89583472Y-94179149D01*
X89501405Y-94025613D01*
X89390962Y-93891038D01*
X89256387Y-93780595D01*
X89102851Y-93698528D01*
X88936255Y-93647992D01*
X88763001Y-93630928D01*
X87512999Y-93630928D01*
X87339745Y-93647992D01*
X87173149Y-93698528D01*
X87019613Y-93780595D01*
X86885038Y-93891038D01*
X86774595Y-94025613D01*
X86692528Y-94179149D01*
X86641992Y-94345745D01*
X86624928Y-94518999D01*
X86624928Y-95219001D01*
X86641992Y-95392255D01*
X86692528Y-95558851D01*
X86774595Y-95712387D01*
X86885038Y-95846962D01*
X87019613Y-95957405D01*
X87024111Y-95959809D01*
X86985498Y-95991498D01*
X86831167Y-96179551D01*
X86716489Y-96394099D01*
X86645870Y-96626898D01*
X86622025Y-96869000D01*
X86645870Y-97111102D01*
X86716489Y-97343901D01*
X86831167Y-97558449D01*
X86985498Y-97746502D01*
X87134762Y-97869000D01*
X86985498Y-97991498D01*
X86831167Y-98179551D01*
X86716489Y-98394099D01*
X86645870Y-98626898D01*
X86622025Y-98869000D01*
X86645870Y-99111102D01*
X86716489Y-99343901D01*
X86831167Y-99558449D01*
X86985498Y-99746502D01*
X87134762Y-99869000D01*
X86985498Y-99991498D01*
X86831167Y-100179551D01*
X86716489Y-100394099D01*
X86645870Y-100626898D01*
X86622025Y-100869000D01*
X86645870Y-101111102D01*
X86716489Y-101343901D01*
X86817032Y-101532005D01*
X86426988Y-101922050D01*
X86397990Y-101945848D01*
X86374192Y-101974846D01*
X86374191Y-101974847D01*
X86303016Y-102061573D01*
X86232444Y-102193603D01*
X86219512Y-102236236D01*
X86188988Y-102336863D01*
X86178028Y-102448140D01*
X86174314Y-102485849D01*
X86177991Y-102523181D01*
X86177990Y-109906668D01*
X86174314Y-109943990D01*
X86177990Y-109981312D01*
X86177990Y-109981322D01*
X86188987Y-110092975D01*
X86227144Y-110218764D01*
X86232444Y-110236236D01*
X86303016Y-110368266D01*
X86324217Y-110394099D01*
X86397989Y-110483991D01*
X86426992Y-110507793D01*
X86636924Y-110717726D01*
X86622025Y-110869000D01*
X86645870Y-111111102D01*
X86716489Y-111343901D01*
X86831167Y-111558449D01*
X86985498Y-111746502D01*
X87135348Y-111869481D01*
X87071275Y-111912693D01*
X86899922Y-112085526D01*
X86765579Y-112288467D01*
X86673409Y-112513718D01*
X86669538Y-112551391D01*
X86794269Y-112742000D01*
X88011000Y-112742000D01*
X88011000Y-112722000D01*
X88265000Y-112722000D01*
X88265000Y-112742000D01*
X88285000Y-112742000D01*
X88285000Y-112996000D01*
X88265000Y-112996000D01*
X88265000Y-114104000D01*
X88540000Y-114104000D01*
X88778496Y-114055493D01*
X89002946Y-113961390D01*
X89204725Y-113825307D01*
X89376078Y-113652474D01*
X89510421Y-113449533D01*
X89602591Y-113224282D01*
X89606462Y-113186609D01*
X89513033Y-113043835D01*
X89918000Y-113448802D01*
X89918001Y-115151668D01*
X89914324Y-115189000D01*
X89928998Y-115337985D01*
X89972454Y-115481246D01*
X90043026Y-115613276D01*
X90114201Y-115700002D01*
X90138000Y-115729001D01*
X90166998Y-115752799D01*
X91003201Y-116589003D01*
X91026999Y-116618001D01*
X91142724Y-116712974D01*
X91274753Y-116783546D01*
X91418014Y-116827003D01*
X91529667Y-116838000D01*
X91529677Y-116838000D01*
X91567000Y-116841676D01*
X91604323Y-116838000D01*
X109690678Y-116838000D01*
X109728000Y-116841676D01*
X109765322Y-116838000D01*
X109765333Y-116838000D01*
X109876986Y-116827003D01*
X110020247Y-116783546D01*
X110152276Y-116712974D01*
X110268001Y-116618001D01*
X110291804Y-116588997D01*
X115446004Y-111434798D01*
X115475001Y-111411001D01*
X115501332Y-111378917D01*
X115569974Y-111295277D01*
X115640546Y-111163247D01*
X115652156Y-111124974D01*
X115684003Y-111019986D01*
X115695000Y-110908333D01*
X115695000Y-110908323D01*
X115698676Y-110871001D01*
X115695000Y-110833678D01*
X115695000Y-110821536D01*
X115761818Y-111041808D01*
X115895068Y-111291101D01*
X116074392Y-111509608D01*
X116292899Y-111688932D01*
X116425858Y-111760000D01*
X116292899Y-111831068D01*
X116074392Y-112010392D01*
X115895068Y-112228899D01*
X115761818Y-112478192D01*
X115679764Y-112748691D01*
X115652057Y-113030000D01*
X115679764Y-113311309D01*
X115761818Y-113581808D01*
X115895068Y-113831101D01*
X116074392Y-114049608D01*
X116292899Y-114228932D01*
X116542192Y-114362182D01*
X116812691Y-114444236D01*
X117023508Y-114465000D01*
X117164492Y-114465000D01*
X117375309Y-114444236D01*
X117645808Y-114362182D01*
X117895101Y-114228932D01*
X118113608Y-114049608D01*
X118292932Y-113831101D01*
X118426182Y-113581808D01*
X118508236Y-113311309D01*
X118535943Y-113030000D01*
X118508236Y-112748691D01*
X118426182Y-112478192D01*
X118292932Y-112228899D01*
X118113608Y-112010392D01*
X117895101Y-111831068D01*
X117762142Y-111760000D01*
X117895101Y-111688932D01*
X118113608Y-111509608D01*
X118292932Y-111291101D01*
X118426182Y-111041808D01*
X118508236Y-110771309D01*
X118535943Y-110490000D01*
X118508236Y-110208691D01*
X118426182Y-109938192D01*
X118292932Y-109688899D01*
X118113608Y-109470392D01*
X117895101Y-109291068D01*
X117762142Y-109220000D01*
X117895101Y-109148932D01*
X118113608Y-108969608D01*
X118292932Y-108751101D01*
X118426182Y-108501808D01*
X118508236Y-108231309D01*
X118535943Y-107950000D01*
X118508236Y-107668691D01*
X118426182Y-107398192D01*
X118292932Y-107148899D01*
X118113608Y-106930392D01*
X117895101Y-106751068D01*
X117762142Y-106680000D01*
X117895101Y-106608932D01*
X118113608Y-106429608D01*
X118292932Y-106211101D01*
X118426182Y-105961808D01*
X118508236Y-105691309D01*
X118535943Y-105410000D01*
X118508236Y-105128691D01*
X118426182Y-104858192D01*
X118292932Y-104608899D01*
X118113608Y-104390392D01*
X117895101Y-104211068D01*
X117762142Y-104140000D01*
X117895101Y-104068932D01*
X118113608Y-103889608D01*
X118292932Y-103671101D01*
X118426182Y-103421808D01*
X118508236Y-103151309D01*
X118535943Y-102870000D01*
X118508236Y-102588691D01*
X118426182Y-102318192D01*
X118292932Y-102068899D01*
X118113608Y-101850392D01*
X117895101Y-101671068D01*
X117762142Y-101600000D01*
X117895101Y-101528932D01*
X118113608Y-101349608D01*
X118292932Y-101131101D01*
X118426182Y-100881808D01*
X118508236Y-100611309D01*
X118535943Y-100330000D01*
X118508236Y-100048691D01*
X118426182Y-99778192D01*
X118292932Y-99528899D01*
X118113608Y-99310392D01*
X117895101Y-99131068D01*
X117854000Y-99109099D01*
X117854000Y-99010901D01*
X117895101Y-98988932D01*
X118113608Y-98809608D01*
X118292932Y-98591101D01*
X118426182Y-98341808D01*
X118508236Y-98071309D01*
X118535943Y-97790000D01*
X118508236Y-97508691D01*
X118426182Y-97238192D01*
X118292932Y-96988899D01*
X118113608Y-96770392D01*
X117895101Y-96591068D01*
X117757318Y-96517421D01*
X117949131Y-96402385D01*
X118157519Y-96213414D01*
X118325037Y-95987420D01*
X118445246Y-95733087D01*
X118485904Y-95599039D01*
X118363915Y-95377000D01*
X117221000Y-95377000D01*
X117221000Y-95397000D01*
X116967000Y-95397000D01*
X116967000Y-95377000D01*
X115824085Y-95377000D01*
X115702096Y-95599039D01*
X115742754Y-95733087D01*
X115862963Y-95987420D01*
X116030481Y-96213414D01*
X116238869Y-96402385D01*
X116430682Y-96517421D01*
X116292899Y-96591068D01*
X116074392Y-96770392D01*
X115895068Y-96988899D01*
X115761818Y-97238192D01*
X115679764Y-97508691D01*
X115652057Y-97790000D01*
X115679764Y-98071309D01*
X115761818Y-98341808D01*
X115895068Y-98591101D01*
X116074392Y-98809608D01*
X116292899Y-98988932D01*
X116334000Y-99010901D01*
X116334000Y-99109099D01*
X116292899Y-99131068D01*
X116074392Y-99310392D01*
X115895068Y-99528899D01*
X115761818Y-99778192D01*
X115679764Y-100048691D01*
X115652057Y-100330000D01*
X115679764Y-100611309D01*
X115693292Y-100655906D01*
X114423998Y-101925201D01*
X114395000Y-101948999D01*
X114371202Y-101977997D01*
X114371201Y-101977998D01*
X114300026Y-102064724D01*
X114229454Y-102196754D01*
X114214707Y-102245371D01*
X114189340Y-102328999D01*
X114185998Y-102340015D01*
X114171324Y-102489000D01*
X114175001Y-102526332D01*
X114175000Y-110556198D01*
X109413199Y-115318000D01*
X101411612Y-115318000D01*
X101465502Y-115217180D01*
X101501812Y-115097482D01*
X101514072Y-114973000D01*
X101514072Y-113373000D01*
X101501812Y-113248518D01*
X101465502Y-113128820D01*
X101406537Y-113018506D01*
X101327185Y-112921815D01*
X101230494Y-112842463D01*
X101120180Y-112783498D01*
X101000482Y-112747188D01*
X100975920Y-112744769D01*
X101139519Y-112596414D01*
X101307037Y-112370420D01*
X101427246Y-112116087D01*
X101467904Y-111982039D01*
X101345915Y-111760000D01*
X100203000Y-111760000D01*
X100203000Y-111780000D01*
X99949000Y-111780000D01*
X99949000Y-111760000D01*
X98806085Y-111760000D01*
X98684096Y-111982039D01*
X98724754Y-112116087D01*
X98844963Y-112370420D01*
X99012481Y-112596414D01*
X99176080Y-112744769D01*
X99151518Y-112747188D01*
X99031820Y-112783498D01*
X98921506Y-112842463D01*
X98824815Y-112921815D01*
X98745463Y-113018506D01*
X98686498Y-113128820D01*
X98650188Y-113248518D01*
X98637928Y-113373000D01*
X98637928Y-114973000D01*
X98650188Y-115097482D01*
X98686498Y-115217180D01*
X98740388Y-115318000D01*
X93322817Y-115318000D01*
X93475608Y-115192608D01*
X93654932Y-114974101D01*
X93788182Y-114724808D01*
X93870236Y-114454309D01*
X93897943Y-114173000D01*
X93870236Y-113891691D01*
X93788182Y-113621192D01*
X93654932Y-113371899D01*
X93475608Y-113153392D01*
X93257101Y-112974068D01*
X93124142Y-112903000D01*
X93257101Y-112831932D01*
X93475608Y-112652608D01*
X93654932Y-112434101D01*
X93788182Y-112184808D01*
X93870236Y-111914309D01*
X93897943Y-111633000D01*
X93870236Y-111351691D01*
X93788182Y-111081192D01*
X93654932Y-110831899D01*
X93475608Y-110613392D01*
X93257101Y-110434068D01*
X93124142Y-110363000D01*
X93257101Y-110291932D01*
X93475608Y-110112608D01*
X93654932Y-109894101D01*
X93788182Y-109644808D01*
X93870236Y-109374309D01*
X93897943Y-109093000D01*
X98634057Y-109093000D01*
X98661764Y-109374309D01*
X98743818Y-109644808D01*
X98877068Y-109894101D01*
X99056392Y-110112608D01*
X99274899Y-110291932D01*
X99412682Y-110365579D01*
X99220869Y-110480615D01*
X99012481Y-110669586D01*
X98844963Y-110895580D01*
X98724754Y-111149913D01*
X98684096Y-111283961D01*
X98806085Y-111506000D01*
X99949000Y-111506000D01*
X99949000Y-111486000D01*
X100203000Y-111486000D01*
X100203000Y-111506000D01*
X101345915Y-111506000D01*
X101467904Y-111283961D01*
X101427246Y-111149913D01*
X101307037Y-110895580D01*
X101139519Y-110669586D01*
X100931131Y-110480615D01*
X100739318Y-110365579D01*
X100877101Y-110291932D01*
X101095608Y-110112608D01*
X101274932Y-109894101D01*
X101408182Y-109644808D01*
X101490236Y-109374309D01*
X101517943Y-109093000D01*
X101490236Y-108811691D01*
X101408182Y-108541192D01*
X101274932Y-108291899D01*
X101095608Y-108073392D01*
X100877101Y-107894068D01*
X100627808Y-107760818D01*
X100357309Y-107678764D01*
X100146492Y-107658000D01*
X100005508Y-107658000D01*
X99794691Y-107678764D01*
X99524192Y-107760818D01*
X99274899Y-107894068D01*
X99056392Y-108073392D01*
X98877068Y-108291899D01*
X98743818Y-108541192D01*
X98661764Y-108811691D01*
X98634057Y-109093000D01*
X93897943Y-109093000D01*
X93870236Y-108811691D01*
X93788182Y-108541192D01*
X93654932Y-108291899D01*
X93475608Y-108073392D01*
X93257101Y-107894068D01*
X93007808Y-107760818D01*
X92737309Y-107678764D01*
X92526492Y-107658000D01*
X92385508Y-107658000D01*
X92174691Y-107678764D01*
X91904192Y-107760818D01*
X91654899Y-107894068D01*
X91436392Y-108073392D01*
X91257068Y-108291899D01*
X91123818Y-108541192D01*
X91041764Y-108811691D01*
X91014057Y-109093000D01*
X91041764Y-109374309D01*
X91123818Y-109644808D01*
X91257068Y-109894101D01*
X91436392Y-110112608D01*
X91654899Y-110291932D01*
X91787858Y-110363000D01*
X91654899Y-110434068D01*
X91436392Y-110613392D01*
X91257068Y-110831899D01*
X91123818Y-111081192D01*
X91041764Y-111351691D01*
X91014057Y-111633000D01*
X91041764Y-111914309D01*
X91123818Y-112184808D01*
X91257068Y-112434101D01*
X91436392Y-112652608D01*
X91654899Y-112831932D01*
X91787858Y-112903000D01*
X91654899Y-112974068D01*
X91440063Y-113150379D01*
X91441676Y-113134000D01*
X91438000Y-113096675D01*
X91438000Y-113096667D01*
X91427003Y-112985014D01*
X91383546Y-112841753D01*
X91312974Y-112709724D01*
X91218001Y-112593999D01*
X91189004Y-112570202D01*
X89639076Y-111020274D01*
X89653975Y-110869000D01*
X89630130Y-110626898D01*
X89559511Y-110394099D01*
X89444833Y-110179551D01*
X89290502Y-109991498D01*
X89141238Y-109869000D01*
X89290502Y-109746502D01*
X89444833Y-109558449D01*
X89559511Y-109343901D01*
X89630130Y-109111102D01*
X89653975Y-108869000D01*
X89630130Y-108626898D01*
X89559511Y-108394099D01*
X89444833Y-108179551D01*
X89290502Y-107991498D01*
X89141238Y-107869000D01*
X89290502Y-107746502D01*
X89444833Y-107558449D01*
X89559511Y-107343901D01*
X89630130Y-107111102D01*
X89653975Y-106869000D01*
X89630130Y-106626898D01*
X89607107Y-106551000D01*
X104570099Y-106551000D01*
X104592068Y-106592101D01*
X104771392Y-106810608D01*
X104989899Y-106989932D01*
X105239192Y-107123182D01*
X105509691Y-107205236D01*
X105720508Y-107226000D01*
X105861492Y-107226000D01*
X106072309Y-107205236D01*
X106156001Y-107179849D01*
X106156001Y-107894678D01*
X106152325Y-107932001D01*
X106156001Y-107969323D01*
X106156001Y-107969333D01*
X106166998Y-108080986D01*
X106196897Y-108179551D01*
X106210455Y-108224247D01*
X106281027Y-108356277D01*
X106295799Y-108374276D01*
X106376000Y-108472002D01*
X106405004Y-108495805D01*
X108018198Y-110109000D01*
X106114886Y-112012312D01*
X105932335Y-111976000D01*
X105649665Y-111976000D01*
X105372426Y-112031147D01*
X105111273Y-112139320D01*
X104876241Y-112296363D01*
X104676363Y-112496241D01*
X104519320Y-112731273D01*
X104411147Y-112992426D01*
X104356000Y-113269665D01*
X104356000Y-113552335D01*
X104411147Y-113829574D01*
X104519320Y-114090727D01*
X104676363Y-114325759D01*
X104876241Y-114525637D01*
X105111273Y-114682680D01*
X105372426Y-114790853D01*
X105649665Y-114846000D01*
X105932335Y-114846000D01*
X106209574Y-114790853D01*
X106470727Y-114682680D01*
X106705759Y-114525637D01*
X106905637Y-114325759D01*
X107062680Y-114090727D01*
X107170853Y-113829574D01*
X107226000Y-113552335D01*
X107226000Y-113269665D01*
X107189688Y-113087114D01*
X108626197Y-111650605D01*
X108672899Y-111688932D01*
X108805858Y-111760000D01*
X108672899Y-111831068D01*
X108454392Y-112010392D01*
X108275068Y-112228899D01*
X108141818Y-112478192D01*
X108059764Y-112748691D01*
X108032057Y-113030000D01*
X108059764Y-113311309D01*
X108141818Y-113581808D01*
X108275068Y-113831101D01*
X108454392Y-114049608D01*
X108672899Y-114228932D01*
X108922192Y-114362182D01*
X109192691Y-114444236D01*
X109403508Y-114465000D01*
X109544492Y-114465000D01*
X109755309Y-114444236D01*
X110025808Y-114362182D01*
X110275101Y-114228932D01*
X110493608Y-114049608D01*
X110672932Y-113831101D01*
X110806182Y-113581808D01*
X110888236Y-113311309D01*
X110915943Y-113030000D01*
X110888236Y-112748691D01*
X110806182Y-112478192D01*
X110672932Y-112228899D01*
X110493608Y-112010392D01*
X110275101Y-111831068D01*
X110142142Y-111760000D01*
X110275101Y-111688932D01*
X110493608Y-111509608D01*
X110672932Y-111291101D01*
X110806182Y-111041808D01*
X110888236Y-110771309D01*
X110915943Y-110490000D01*
X110888236Y-110208691D01*
X110806182Y-109938192D01*
X110672932Y-109688899D01*
X110493608Y-109470392D01*
X110275101Y-109291068D01*
X110142142Y-109220000D01*
X110275101Y-109148932D01*
X110493608Y-108969608D01*
X110672932Y-108751101D01*
X110806182Y-108501808D01*
X110888236Y-108231309D01*
X110915943Y-107950000D01*
X110888236Y-107668691D01*
X110806182Y-107398192D01*
X110672932Y-107148899D01*
X110493608Y-106930392D01*
X110275101Y-106751068D01*
X110142142Y-106680000D01*
X110275101Y-106608932D01*
X110493608Y-106429608D01*
X110672932Y-106211101D01*
X110806182Y-105961808D01*
X110888236Y-105691309D01*
X110915943Y-105410000D01*
X110888236Y-105128691D01*
X110806182Y-104858192D01*
X110672932Y-104608899D01*
X110493608Y-104390392D01*
X110275101Y-104211068D01*
X110142142Y-104140000D01*
X110275101Y-104068932D01*
X110493608Y-103889608D01*
X110672932Y-103671101D01*
X110806182Y-103421808D01*
X110888236Y-103151309D01*
X110915943Y-102870000D01*
X110888236Y-102588691D01*
X110806182Y-102318192D01*
X110672932Y-102068899D01*
X110493608Y-101850392D01*
X110275101Y-101671068D01*
X110142142Y-101600000D01*
X110275101Y-101528932D01*
X110493608Y-101349608D01*
X110672932Y-101131101D01*
X110806182Y-100881808D01*
X110888236Y-100611309D01*
X110915943Y-100330000D01*
X110888236Y-100048691D01*
X110806182Y-99778192D01*
X110672932Y-99528899D01*
X110493608Y-99310392D01*
X110275101Y-99131068D01*
X110137318Y-99057421D01*
X110329131Y-98942385D01*
X110537519Y-98753414D01*
X110705037Y-98527420D01*
X110825246Y-98273087D01*
X110865904Y-98139039D01*
X110743915Y-97917000D01*
X109601000Y-97917000D01*
X109601000Y-97937000D01*
X109347000Y-97937000D01*
X109347000Y-97917000D01*
X109327000Y-97917000D01*
X109327000Y-97663000D01*
X109347000Y-97663000D01*
X109347000Y-97643000D01*
X109601000Y-97643000D01*
X109601000Y-97663000D01*
X110743915Y-97663000D01*
X110865904Y-97440961D01*
X110825246Y-97306913D01*
X110705037Y-97052580D01*
X110537519Y-96826586D01*
X110329131Y-96637615D01*
X110137318Y-96522579D01*
X110275101Y-96448932D01*
X110493608Y-96269608D01*
X110672932Y-96051101D01*
X110806182Y-95801808D01*
X110888236Y-95531309D01*
X110915943Y-95250000D01*
X110888236Y-94968691D01*
X110806182Y-94698192D01*
X110672932Y-94448899D01*
X110493608Y-94230392D01*
X110275101Y-94051068D01*
X110142142Y-93980000D01*
X110275101Y-93908932D01*
X110493608Y-93729608D01*
X110672932Y-93511101D01*
X110806182Y-93261808D01*
X110888236Y-92991309D01*
X110915943Y-92710000D01*
X110888236Y-92428691D01*
X110806182Y-92158192D01*
X110672932Y-91908899D01*
X110493608Y-91690392D01*
X110275101Y-91511068D01*
X110142142Y-91440000D01*
X110275101Y-91368932D01*
X110493608Y-91189608D01*
X110672932Y-90971101D01*
X110806182Y-90721808D01*
X110888236Y-90451309D01*
X110915943Y-90170000D01*
X110888236Y-89888691D01*
X110806182Y-89618192D01*
X110672932Y-89368899D01*
X110493608Y-89150392D01*
X110275101Y-88971068D01*
X110142142Y-88900000D01*
X110275101Y-88828932D01*
X110493608Y-88649608D01*
X110672932Y-88431101D01*
X110806182Y-88181808D01*
X110888236Y-87911309D01*
X110915943Y-87630000D01*
X110888236Y-87348691D01*
X110806182Y-87078192D01*
X110672932Y-86828899D01*
X110493608Y-86610392D01*
X110275101Y-86431068D01*
X110142142Y-86360000D01*
X110275101Y-86288932D01*
X110493608Y-86109608D01*
X110672932Y-85891101D01*
X110806182Y-85641808D01*
X110888236Y-85371309D01*
X110915943Y-85090000D01*
X110888236Y-84808691D01*
X110806182Y-84538192D01*
X110672932Y-84288899D01*
X110493608Y-84070392D01*
X110275101Y-83891068D01*
X110142142Y-83820000D01*
X110275101Y-83748932D01*
X110493608Y-83569608D01*
X110672932Y-83351101D01*
X110806182Y-83101808D01*
X110888236Y-82831309D01*
X110915943Y-82550000D01*
X110888236Y-82268691D01*
X110806182Y-81998192D01*
X110672932Y-81748899D01*
X110493608Y-81530392D01*
X110380518Y-81437581D01*
X110398482Y-81435812D01*
X110518180Y-81399502D01*
X110628494Y-81340537D01*
X110725185Y-81261185D01*
X110804537Y-81164494D01*
X110863502Y-81054180D01*
X110899812Y-80934482D01*
X110912072Y-80810000D01*
X110912072Y-80010000D01*
X115652057Y-80010000D01*
X115679764Y-80291309D01*
X115761818Y-80561808D01*
X115895068Y-80811101D01*
X116074392Y-81029608D01*
X116292899Y-81208932D01*
X116425858Y-81280000D01*
X116292899Y-81351068D01*
X116074392Y-81530392D01*
X115895068Y-81748899D01*
X115761818Y-81998192D01*
X115679764Y-82268691D01*
X115652057Y-82550000D01*
X115679764Y-82831309D01*
X115761818Y-83101808D01*
X115895068Y-83351101D01*
X116074392Y-83569608D01*
X116292899Y-83748932D01*
X116425858Y-83820000D01*
X116292899Y-83891068D01*
X116074392Y-84070392D01*
X115895068Y-84288899D01*
X115761818Y-84538192D01*
X115679764Y-84808691D01*
X115652057Y-85090000D01*
X115679764Y-85371309D01*
X115761818Y-85641808D01*
X115895068Y-85891101D01*
X116074392Y-86109608D01*
X116292899Y-86288932D01*
X116425858Y-86360000D01*
X116292899Y-86431068D01*
X116074392Y-86610392D01*
X115895068Y-86828899D01*
X115761818Y-87078192D01*
X115679764Y-87348691D01*
X115652057Y-87630000D01*
X115679764Y-87911309D01*
X115761818Y-88181808D01*
X115895068Y-88431101D01*
X116074392Y-88649608D01*
X116292899Y-88828932D01*
X116425858Y-88900000D01*
X116292899Y-88971068D01*
X116074392Y-89150392D01*
X115895068Y-89368899D01*
X115761818Y-89618192D01*
X115679764Y-89888691D01*
X115652057Y-90170000D01*
X115679764Y-90451309D01*
X115761818Y-90721808D01*
X115895068Y-90971101D01*
X116074392Y-91189608D01*
X116292899Y-91368932D01*
X116425858Y-91440000D01*
X116292899Y-91511068D01*
X116074392Y-91690392D01*
X115895068Y-91908899D01*
X115761818Y-92158192D01*
X115679764Y-92428691D01*
X115652057Y-92710000D01*
X115679764Y-92991309D01*
X115761818Y-93261808D01*
X115895068Y-93511101D01*
X116074392Y-93729608D01*
X116292899Y-93908932D01*
X116430682Y-93982579D01*
X116238869Y-94097615D01*
X116030481Y-94286586D01*
X115862963Y-94512580D01*
X115742754Y-94766913D01*
X115702096Y-94900961D01*
X115824085Y-95123000D01*
X116967000Y-95123000D01*
X116967000Y-95103000D01*
X117221000Y-95103000D01*
X117221000Y-95123000D01*
X118363915Y-95123000D01*
X118485904Y-94900961D01*
X118445246Y-94766913D01*
X118325037Y-94512580D01*
X118157519Y-94286586D01*
X117949131Y-94097615D01*
X117757318Y-93982579D01*
X117895101Y-93908932D01*
X118113608Y-93729608D01*
X118292932Y-93511101D01*
X118426182Y-93261808D01*
X118508236Y-92991309D01*
X118535943Y-92710000D01*
X118508236Y-92428691D01*
X118426182Y-92158192D01*
X118292932Y-91908899D01*
X118113608Y-91690392D01*
X117895101Y-91511068D01*
X117762142Y-91440000D01*
X117895101Y-91368932D01*
X118113608Y-91189608D01*
X118292932Y-90971101D01*
X118426182Y-90721808D01*
X118508236Y-90451309D01*
X118535943Y-90170000D01*
X118508236Y-89888691D01*
X118426182Y-89618192D01*
X118292932Y-89368899D01*
X118113608Y-89150392D01*
X117895101Y-88971068D01*
X117762142Y-88900000D01*
X117895101Y-88828932D01*
X118113608Y-88649608D01*
X118292932Y-88431101D01*
X118426182Y-88181808D01*
X118508236Y-87911309D01*
X118535943Y-87630000D01*
X118508236Y-87348691D01*
X118426182Y-87078192D01*
X118292932Y-86828899D01*
X118113608Y-86610392D01*
X117895101Y-86431068D01*
X117762142Y-86360000D01*
X117895101Y-86288932D01*
X118113608Y-86109608D01*
X118292932Y-85891101D01*
X118426182Y-85641808D01*
X118508236Y-85371309D01*
X118535943Y-85090000D01*
X118508236Y-84808691D01*
X118426182Y-84538192D01*
X118292932Y-84288899D01*
X118113608Y-84070392D01*
X117895101Y-83891068D01*
X117762142Y-83820000D01*
X117895101Y-83748932D01*
X118113608Y-83569608D01*
X118292932Y-83351101D01*
X118426182Y-83101808D01*
X118508236Y-82831309D01*
X118535943Y-82550000D01*
X118508236Y-82268691D01*
X118426182Y-81998192D01*
X118292932Y-81748899D01*
X118113608Y-81530392D01*
X117895101Y-81351068D01*
X117762142Y-81280000D01*
X117895101Y-81208932D01*
X118113608Y-81029608D01*
X118292932Y-80811101D01*
X118426182Y-80561808D01*
X118508236Y-80291309D01*
X118535943Y-80010000D01*
X118508236Y-79728691D01*
X118426182Y-79458192D01*
X118292932Y-79208899D01*
X118113608Y-78990392D01*
X117895101Y-78811068D01*
X117645808Y-78677818D01*
X117375309Y-78595764D01*
X117164492Y-78575000D01*
X117023508Y-78575000D01*
X116812691Y-78595764D01*
X116542192Y-78677818D01*
X116292899Y-78811068D01*
X116074392Y-78990392D01*
X115895068Y-79208899D01*
X115761818Y-79458192D01*
X115679764Y-79728691D01*
X115652057Y-80010000D01*
X110912072Y-80010000D01*
X110912072Y-79210000D01*
X110899812Y-79085518D01*
X110863502Y-78965820D01*
X110804537Y-78855506D01*
X110725185Y-78758815D01*
X110628494Y-78679463D01*
X110518180Y-78620498D01*
X110398482Y-78584188D01*
X110274000Y-78571928D01*
X110217213Y-78571928D01*
X110179546Y-78447753D01*
X110108974Y-78315724D01*
X110014001Y-78199999D01*
X109985004Y-78176202D01*
X108767804Y-76959003D01*
X108744001Y-76929999D01*
X108628276Y-76835026D01*
X108496247Y-76764454D01*
X108352986Y-76720997D01*
X108241333Y-76710000D01*
X108241322Y-76710000D01*
X108204000Y-76706324D01*
X108166678Y-76710000D01*
X91676323Y-76710000D01*
X91639000Y-76706324D01*
X91601677Y-76710000D01*
X91601667Y-76710000D01*
X91490014Y-76720997D01*
X91346753Y-76764454D01*
X91214724Y-76835026D01*
X91098999Y-76929999D01*
X91075201Y-76958997D01*
X89518376Y-78515823D01*
X89503912Y-78509832D01*
X89188033Y-78447000D01*
X88865967Y-78447000D01*
X88550088Y-78509832D01*
X88252537Y-78633082D01*
X87984748Y-78812013D01*
X87757013Y-79039748D01*
X87578082Y-79307537D01*
X87572091Y-79322000D01*
X83981909Y-79322000D01*
X83975918Y-79307537D01*
X83796987Y-79039748D01*
X83569252Y-78812013D01*
X83301463Y-78633082D01*
X83003912Y-78509832D01*
X82688033Y-78447000D01*
X82365967Y-78447000D01*
X82050088Y-78509832D01*
X81752537Y-78633082D01*
X81484748Y-78812013D01*
X81257013Y-79039748D01*
X81078082Y-79307537D01*
X80954832Y-79605088D01*
X80892000Y-79920967D01*
X80892000Y-80243033D01*
X80954832Y-80558912D01*
X80960823Y-80573376D01*
X80690997Y-80843202D01*
X80661999Y-80867000D01*
X80638201Y-80895998D01*
X80638200Y-80895999D01*
X80567025Y-80982725D01*
X80496453Y-81114755D01*
X80467886Y-81208932D01*
X80452997Y-81258015D01*
X80442000Y-81369668D01*
X80438323Y-81407001D01*
X77978000Y-81407001D01*
X77978000Y-75946000D01*
X121793000Y-75946000D01*
X121793000Y-118618000D01*
M02*
