G04 #@! TF.GenerationSoftware,KiCad,Pcbnew,(5.1.2)-1*
G04 #@! TF.CreationDate,2019-12-30T19:16:01+01:00*
G04 #@! TF.ProjectId,Winner_RGB_M3A_MOD,57696e6e-6572-45f5-9247-425f4d33415f,rev?*
G04 #@! TF.SameCoordinates,Original*
G04 #@! TF.FileFunction,Copper,L1,Top*
G04 #@! TF.FilePolarity,Positive*
%FSLAX46Y46*%
G04 Gerber Fmt 4.6, Leading zero omitted, Abs format (unit mm)*
G04 Created by KiCad (PCBNEW (5.1.2)-1) date 2019-12-30 19:16:01*
%MOMM*%
%LPD*%
G04 APERTURE LIST*
%ADD10O,1.750000X1.200000*%
%ADD11C,0.100000*%
%ADD12C,1.200000*%
%ADD13O,1.600000X1.600000*%
%ADD14R,1.600000X1.600000*%
%ADD15C,1.600000*%
%ADD16C,2.000000*%
%ADD17C,0.250000*%
%ADD18C,0.254000*%
G04 APERTURE END LIST*
D10*
X88138000Y-112869000D03*
X88138000Y-110869000D03*
X88138000Y-108869000D03*
X88138000Y-106869000D03*
X88138000Y-104869000D03*
X88138000Y-102869000D03*
X88138000Y-100869000D03*
X88138000Y-98869000D03*
X88138000Y-96869000D03*
D11*
G36*
X88787505Y-94270204D02*
G01*
X88811773Y-94273804D01*
X88835572Y-94279765D01*
X88858671Y-94288030D01*
X88880850Y-94298520D01*
X88901893Y-94311132D01*
X88921599Y-94325747D01*
X88939777Y-94342223D01*
X88956253Y-94360401D01*
X88970868Y-94380107D01*
X88983480Y-94401150D01*
X88993970Y-94423329D01*
X89002235Y-94446428D01*
X89008196Y-94470227D01*
X89011796Y-94494495D01*
X89013000Y-94518999D01*
X89013000Y-95219001D01*
X89011796Y-95243505D01*
X89008196Y-95267773D01*
X89002235Y-95291572D01*
X88993970Y-95314671D01*
X88983480Y-95336850D01*
X88970868Y-95357893D01*
X88956253Y-95377599D01*
X88939777Y-95395777D01*
X88921599Y-95412253D01*
X88901893Y-95426868D01*
X88880850Y-95439480D01*
X88858671Y-95449970D01*
X88835572Y-95458235D01*
X88811773Y-95464196D01*
X88787505Y-95467796D01*
X88763001Y-95469000D01*
X87512999Y-95469000D01*
X87488495Y-95467796D01*
X87464227Y-95464196D01*
X87440428Y-95458235D01*
X87417329Y-95449970D01*
X87395150Y-95439480D01*
X87374107Y-95426868D01*
X87354401Y-95412253D01*
X87336223Y-95395777D01*
X87319747Y-95377599D01*
X87305132Y-95357893D01*
X87292520Y-95336850D01*
X87282030Y-95314671D01*
X87273765Y-95291572D01*
X87267804Y-95267773D01*
X87264204Y-95243505D01*
X87263000Y-95219001D01*
X87263000Y-94518999D01*
X87264204Y-94494495D01*
X87267804Y-94470227D01*
X87273765Y-94446428D01*
X87282030Y-94423329D01*
X87292520Y-94401150D01*
X87305132Y-94380107D01*
X87319747Y-94360401D01*
X87336223Y-94342223D01*
X87354401Y-94325747D01*
X87374107Y-94311132D01*
X87395150Y-94298520D01*
X87417329Y-94288030D01*
X87440428Y-94279765D01*
X87464227Y-94273804D01*
X87488495Y-94270204D01*
X87512999Y-94269000D01*
X88763001Y-94269000D01*
X88787505Y-94270204D01*
X88787505Y-94270204D01*
G37*
D12*
X88138000Y-94869000D03*
D13*
X92456000Y-114173000D03*
X100076000Y-109093000D03*
X92456000Y-111633000D03*
X100076000Y-111633000D03*
X92456000Y-109093000D03*
D14*
X100076000Y-114173000D03*
D15*
X105791000Y-98070666D03*
X105791000Y-103070666D03*
D16*
X82527000Y-84582000D03*
X82527000Y-80082000D03*
X89027000Y-84582000D03*
X89027000Y-80082000D03*
D13*
X92456000Y-94699666D03*
X100076000Y-89619666D03*
X92456000Y-92159666D03*
X100076000Y-92159666D03*
X92456000Y-89619666D03*
D14*
X100076000Y-94699666D03*
D13*
X82169000Y-89027000D03*
D15*
X89789000Y-89027000D03*
D13*
X105791000Y-80010000D03*
D15*
X105791000Y-87630000D03*
D13*
X105791000Y-105791000D03*
D15*
X105791000Y-113411000D03*
X105791000Y-90350333D03*
X105791000Y-95350333D03*
D13*
X117094000Y-80010000D03*
X109474000Y-113030000D03*
X117094000Y-82550000D03*
X109474000Y-110490000D03*
X117094000Y-85090000D03*
X109474000Y-107950000D03*
X117094000Y-87630000D03*
X109474000Y-105410000D03*
X117094000Y-90170000D03*
X109474000Y-102870000D03*
X117094000Y-92710000D03*
X109474000Y-100330000D03*
X117094000Y-95250000D03*
X109474000Y-97790000D03*
X117094000Y-97790000D03*
X109474000Y-95250000D03*
X117094000Y-100330000D03*
X109474000Y-92710000D03*
X117094000Y-102870000D03*
X109474000Y-90170000D03*
X117094000Y-105410000D03*
X109474000Y-87630000D03*
X117094000Y-107950000D03*
X109474000Y-85090000D03*
X117094000Y-110490000D03*
X109474000Y-82550000D03*
X117094000Y-113030000D03*
D14*
X109474000Y-80010000D03*
D13*
X92456000Y-104436332D03*
X100076000Y-99356332D03*
X92456000Y-101896332D03*
X100076000Y-101896332D03*
X92456000Y-99356332D03*
D14*
X100076000Y-104436332D03*
D13*
X92456000Y-84963000D03*
X100076000Y-79883000D03*
X92456000Y-82423000D03*
X100076000Y-82423000D03*
X92456000Y-79883000D03*
D14*
X100076000Y-84963000D03*
D17*
X115968999Y-102619997D02*
X115968999Y-106824999D01*
X110014001Y-96664999D02*
X115968999Y-102619997D01*
X116294001Y-107150001D02*
X117094000Y-107950000D01*
X109223997Y-96664999D02*
X110014001Y-96664999D01*
X100076000Y-87517002D02*
X109223997Y-96664999D01*
X115968999Y-106824999D02*
X116294001Y-107150001D01*
X100076000Y-84963000D02*
X100076000Y-87517002D01*
X116294001Y-109690001D02*
X117094000Y-110490000D01*
X110888999Y-104284999D02*
X116294001Y-109690001D01*
X108611333Y-104284999D02*
X110888999Y-104284999D01*
X100076000Y-95749666D02*
X108611333Y-104284999D01*
X100076000Y-94699666D02*
X100076000Y-95749666D01*
X116294001Y-112230001D02*
X117094000Y-113030000D01*
X115968999Y-111904999D02*
X116294001Y-112230001D01*
X108594667Y-111904999D02*
X115968999Y-111904999D01*
X101126000Y-104436332D02*
X108594667Y-111904999D01*
X100076000Y-104436332D02*
X101126000Y-104436332D01*
X108674001Y-113829999D02*
X109474000Y-113030000D01*
X107967999Y-114536001D02*
X108674001Y-113829999D01*
X101489001Y-114536001D02*
X107967999Y-114536001D01*
X101126000Y-114173000D02*
X101489001Y-114536001D01*
X100076000Y-114173000D02*
X101126000Y-114173000D01*
X112014000Y-97790000D02*
X117094000Y-97790000D01*
X109474000Y-95250000D02*
X112014000Y-97790000D01*
X99276001Y-108293001D02*
X100076000Y-109093000D01*
X94294331Y-103311331D02*
X99276001Y-108293001D01*
X91705331Y-103311331D02*
X94294331Y-103311331D01*
X89263000Y-100869000D02*
X91705331Y-103311331D01*
X88138000Y-100869000D02*
X89263000Y-100869000D01*
X99276001Y-98556333D02*
X100076000Y-99356332D01*
X98950999Y-98231331D02*
X99276001Y-98556333D01*
X89900669Y-98231331D02*
X98950999Y-98231331D01*
X89263000Y-98869000D02*
X89900669Y-98231331D01*
X88138000Y-98869000D02*
X89263000Y-98869000D01*
X99276001Y-90419665D02*
X100076000Y-89619666D01*
X96410999Y-93284667D02*
X99276001Y-90419665D01*
X92205997Y-93284667D02*
X96410999Y-93284667D01*
X88621664Y-96869000D02*
X92205997Y-93284667D01*
X88138000Y-96869000D02*
X88621664Y-96869000D01*
X99276001Y-80682999D02*
X100076000Y-79883000D01*
X98950999Y-81008001D02*
X99276001Y-80682999D01*
X98950999Y-84789669D02*
X98950999Y-81008001D01*
X92996001Y-90744667D02*
X98950999Y-84789669D01*
X91562333Y-90744667D02*
X92996001Y-90744667D01*
X88138000Y-94169000D02*
X91562333Y-90744667D01*
X88138000Y-94869000D02*
X88138000Y-94169000D01*
D18*
G36*
X121793000Y-118618000D02*
G01*
X77978000Y-118618000D01*
X77978000Y-112869000D01*
X86622025Y-112869000D01*
X86645870Y-113111102D01*
X86716489Y-113343901D01*
X86831167Y-113558449D01*
X86985498Y-113746502D01*
X87173551Y-113900833D01*
X87388099Y-114015511D01*
X87620898Y-114086130D01*
X87802335Y-114104000D01*
X88473665Y-114104000D01*
X88655102Y-114086130D01*
X88887901Y-114015511D01*
X89102449Y-113900833D01*
X89290502Y-113746502D01*
X89444833Y-113558449D01*
X89559511Y-113343901D01*
X89630130Y-113111102D01*
X89653975Y-112869000D01*
X89630130Y-112626898D01*
X89559511Y-112394099D01*
X89444833Y-112179551D01*
X89290502Y-111991498D01*
X89140652Y-111868519D01*
X89204725Y-111825307D01*
X89376078Y-111652474D01*
X89510421Y-111449533D01*
X89602591Y-111224282D01*
X89606462Y-111186609D01*
X89481731Y-110996000D01*
X88265000Y-110996000D01*
X88265000Y-111016000D01*
X88011000Y-111016000D01*
X88011000Y-110996000D01*
X86794269Y-110996000D01*
X86669538Y-111186609D01*
X86673409Y-111224282D01*
X86765579Y-111449533D01*
X86899922Y-111652474D01*
X87071275Y-111825307D01*
X87135348Y-111868519D01*
X86985498Y-111991498D01*
X86831167Y-112179551D01*
X86716489Y-112394099D01*
X86645870Y-112626898D01*
X86622025Y-112869000D01*
X77978000Y-112869000D01*
X77978000Y-96869000D01*
X86622025Y-96869000D01*
X86645870Y-97111102D01*
X86716489Y-97343901D01*
X86831167Y-97558449D01*
X86985498Y-97746502D01*
X87134762Y-97869000D01*
X86985498Y-97991498D01*
X86831167Y-98179551D01*
X86716489Y-98394099D01*
X86645870Y-98626898D01*
X86622025Y-98869000D01*
X86645870Y-99111102D01*
X86716489Y-99343901D01*
X86831167Y-99558449D01*
X86985498Y-99746502D01*
X87134762Y-99869000D01*
X86985498Y-99991498D01*
X86831167Y-100179551D01*
X86716489Y-100394099D01*
X86645870Y-100626898D01*
X86622025Y-100869000D01*
X86645870Y-101111102D01*
X86716489Y-101343901D01*
X86831167Y-101558449D01*
X86985498Y-101746502D01*
X87134762Y-101869000D01*
X86985498Y-101991498D01*
X86831167Y-102179551D01*
X86716489Y-102394099D01*
X86645870Y-102626898D01*
X86622025Y-102869000D01*
X86645870Y-103111102D01*
X86716489Y-103343901D01*
X86831167Y-103558449D01*
X86985498Y-103746502D01*
X87134762Y-103869000D01*
X86985498Y-103991498D01*
X86831167Y-104179551D01*
X86716489Y-104394099D01*
X86645870Y-104626898D01*
X86622025Y-104869000D01*
X86645870Y-105111102D01*
X86716489Y-105343901D01*
X86831167Y-105558449D01*
X86985498Y-105746502D01*
X87134762Y-105869000D01*
X86985498Y-105991498D01*
X86831167Y-106179551D01*
X86716489Y-106394099D01*
X86645870Y-106626898D01*
X86622025Y-106869000D01*
X86645870Y-107111102D01*
X86716489Y-107343901D01*
X86831167Y-107558449D01*
X86985498Y-107746502D01*
X87134762Y-107869000D01*
X86985498Y-107991498D01*
X86831167Y-108179551D01*
X86716489Y-108394099D01*
X86645870Y-108626898D01*
X86622025Y-108869000D01*
X86645870Y-109111102D01*
X86716489Y-109343901D01*
X86831167Y-109558449D01*
X86985498Y-109746502D01*
X87135348Y-109869481D01*
X87071275Y-109912693D01*
X86899922Y-110085526D01*
X86765579Y-110288467D01*
X86673409Y-110513718D01*
X86669538Y-110551391D01*
X86794269Y-110742000D01*
X88011000Y-110742000D01*
X88011000Y-110722000D01*
X88265000Y-110722000D01*
X88265000Y-110742000D01*
X89481731Y-110742000D01*
X89606462Y-110551391D01*
X89602591Y-110513718D01*
X89510421Y-110288467D01*
X89376078Y-110085526D01*
X89204725Y-109912693D01*
X89140652Y-109869481D01*
X89290502Y-109746502D01*
X89444833Y-109558449D01*
X89559511Y-109343901D01*
X89630130Y-109111102D01*
X89631912Y-109093000D01*
X91014057Y-109093000D01*
X91041764Y-109374309D01*
X91123818Y-109644808D01*
X91257068Y-109894101D01*
X91436392Y-110112608D01*
X91654899Y-110291932D01*
X91787858Y-110363000D01*
X91654899Y-110434068D01*
X91436392Y-110613392D01*
X91257068Y-110831899D01*
X91123818Y-111081192D01*
X91041764Y-111351691D01*
X91014057Y-111633000D01*
X91041764Y-111914309D01*
X91123818Y-112184808D01*
X91257068Y-112434101D01*
X91436392Y-112652608D01*
X91654899Y-112831932D01*
X91787858Y-112903000D01*
X91654899Y-112974068D01*
X91436392Y-113153392D01*
X91257068Y-113371899D01*
X91123818Y-113621192D01*
X91041764Y-113891691D01*
X91014057Y-114173000D01*
X91041764Y-114454309D01*
X91123818Y-114724808D01*
X91257068Y-114974101D01*
X91436392Y-115192608D01*
X91654899Y-115371932D01*
X91904192Y-115505182D01*
X92174691Y-115587236D01*
X92385508Y-115608000D01*
X92526492Y-115608000D01*
X92737309Y-115587236D01*
X93007808Y-115505182D01*
X93257101Y-115371932D01*
X93475608Y-115192608D01*
X93654932Y-114974101D01*
X93788182Y-114724808D01*
X93870236Y-114454309D01*
X93897943Y-114173000D01*
X93870236Y-113891691D01*
X93788182Y-113621192D01*
X93654932Y-113371899D01*
X93475608Y-113153392D01*
X93257101Y-112974068D01*
X93124142Y-112903000D01*
X93257101Y-112831932D01*
X93475608Y-112652608D01*
X93654932Y-112434101D01*
X93788182Y-112184808D01*
X93870236Y-111914309D01*
X93897943Y-111633000D01*
X93870236Y-111351691D01*
X93788182Y-111081192D01*
X93654932Y-110831899D01*
X93475608Y-110613392D01*
X93257101Y-110434068D01*
X93124142Y-110363000D01*
X93257101Y-110291932D01*
X93475608Y-110112608D01*
X93654932Y-109894101D01*
X93788182Y-109644808D01*
X93870236Y-109374309D01*
X93897943Y-109093000D01*
X93870236Y-108811691D01*
X93788182Y-108541192D01*
X93654932Y-108291899D01*
X93475608Y-108073392D01*
X93257101Y-107894068D01*
X93007808Y-107760818D01*
X92737309Y-107678764D01*
X92526492Y-107658000D01*
X92385508Y-107658000D01*
X92174691Y-107678764D01*
X91904192Y-107760818D01*
X91654899Y-107894068D01*
X91436392Y-108073392D01*
X91257068Y-108291899D01*
X91123818Y-108541192D01*
X91041764Y-108811691D01*
X91014057Y-109093000D01*
X89631912Y-109093000D01*
X89653975Y-108869000D01*
X89630130Y-108626898D01*
X89559511Y-108394099D01*
X89444833Y-108179551D01*
X89290502Y-107991498D01*
X89141238Y-107869000D01*
X89290502Y-107746502D01*
X89444833Y-107558449D01*
X89559511Y-107343901D01*
X89630130Y-107111102D01*
X89653975Y-106869000D01*
X89630130Y-106626898D01*
X89559511Y-106394099D01*
X89444833Y-106179551D01*
X89290502Y-105991498D01*
X89141238Y-105869000D01*
X89290502Y-105746502D01*
X89444833Y-105558449D01*
X89559511Y-105343901D01*
X89630130Y-105111102D01*
X89653975Y-104869000D01*
X89630130Y-104626898D01*
X89559511Y-104394099D01*
X89444833Y-104179551D01*
X89290502Y-103991498D01*
X89141238Y-103869000D01*
X89290502Y-103746502D01*
X89444833Y-103558449D01*
X89559511Y-103343901D01*
X89630130Y-103111102D01*
X89653975Y-102869000D01*
X89630130Y-102626898D01*
X89559511Y-102394099D01*
X89444833Y-102179551D01*
X89290502Y-101991498D01*
X89141238Y-101869000D01*
X89167031Y-101847832D01*
X91141531Y-103822333D01*
X91150935Y-103833792D01*
X91123818Y-103884524D01*
X91041764Y-104155023D01*
X91014057Y-104436332D01*
X91041764Y-104717641D01*
X91123818Y-104988140D01*
X91257068Y-105237433D01*
X91436392Y-105455940D01*
X91654899Y-105635264D01*
X91904192Y-105768514D01*
X92174691Y-105850568D01*
X92385508Y-105871332D01*
X92526492Y-105871332D01*
X92737309Y-105850568D01*
X93007808Y-105768514D01*
X93257101Y-105635264D01*
X93475608Y-105455940D01*
X93654932Y-105237433D01*
X93788182Y-104988140D01*
X93870236Y-104717641D01*
X93897943Y-104436332D01*
X93870236Y-104155023D01*
X93844849Y-104071331D01*
X93979530Y-104071331D01*
X98675292Y-108767094D01*
X98661764Y-108811691D01*
X98634057Y-109093000D01*
X98661764Y-109374309D01*
X98743818Y-109644808D01*
X98877068Y-109894101D01*
X99056392Y-110112608D01*
X99274899Y-110291932D01*
X99407858Y-110363000D01*
X99274899Y-110434068D01*
X99056392Y-110613392D01*
X98877068Y-110831899D01*
X98743818Y-111081192D01*
X98661764Y-111351691D01*
X98634057Y-111633000D01*
X98661764Y-111914309D01*
X98743818Y-112184808D01*
X98877068Y-112434101D01*
X99056392Y-112652608D01*
X99169482Y-112745419D01*
X99151518Y-112747188D01*
X99031820Y-112783498D01*
X98921506Y-112842463D01*
X98824815Y-112921815D01*
X98745463Y-113018506D01*
X98686498Y-113128820D01*
X98650188Y-113248518D01*
X98637928Y-113373000D01*
X98637928Y-114973000D01*
X98650188Y-115097482D01*
X98686498Y-115217180D01*
X98745463Y-115327494D01*
X98824815Y-115424185D01*
X98921506Y-115503537D01*
X99031820Y-115562502D01*
X99151518Y-115598812D01*
X99276000Y-115611072D01*
X100876000Y-115611072D01*
X101000482Y-115598812D01*
X101120180Y-115562502D01*
X101230494Y-115503537D01*
X101327185Y-115424185D01*
X101406537Y-115327494D01*
X101424786Y-115293353D01*
X101451668Y-115296001D01*
X101451678Y-115296001D01*
X101489001Y-115299677D01*
X101526324Y-115296001D01*
X107930677Y-115296001D01*
X107967999Y-115299677D01*
X108005321Y-115296001D01*
X108005332Y-115296001D01*
X108116985Y-115285004D01*
X108260246Y-115241547D01*
X108392275Y-115170975D01*
X108508000Y-115076002D01*
X108531802Y-115046999D01*
X109148094Y-114430708D01*
X109192691Y-114444236D01*
X109403508Y-114465000D01*
X109544492Y-114465000D01*
X109755309Y-114444236D01*
X110025808Y-114362182D01*
X110275101Y-114228932D01*
X110493608Y-114049608D01*
X110672932Y-113831101D01*
X110806182Y-113581808D01*
X110888236Y-113311309D01*
X110915943Y-113030000D01*
X110888236Y-112748691D01*
X110862849Y-112664999D01*
X115654198Y-112664999D01*
X115693292Y-112704093D01*
X115679764Y-112748691D01*
X115652057Y-113030000D01*
X115679764Y-113311309D01*
X115761818Y-113581808D01*
X115895068Y-113831101D01*
X116074392Y-114049608D01*
X116292899Y-114228932D01*
X116542192Y-114362182D01*
X116812691Y-114444236D01*
X117023508Y-114465000D01*
X117164492Y-114465000D01*
X117375309Y-114444236D01*
X117645808Y-114362182D01*
X117895101Y-114228932D01*
X118113608Y-114049608D01*
X118292932Y-113831101D01*
X118426182Y-113581808D01*
X118508236Y-113311309D01*
X118535943Y-113030000D01*
X118508236Y-112748691D01*
X118426182Y-112478192D01*
X118292932Y-112228899D01*
X118113608Y-112010392D01*
X117895101Y-111831068D01*
X117762142Y-111760000D01*
X117895101Y-111688932D01*
X118113608Y-111509608D01*
X118292932Y-111291101D01*
X118426182Y-111041808D01*
X118508236Y-110771309D01*
X118535943Y-110490000D01*
X118508236Y-110208691D01*
X118426182Y-109938192D01*
X118292932Y-109688899D01*
X118113608Y-109470392D01*
X117895101Y-109291068D01*
X117762142Y-109220000D01*
X117895101Y-109148932D01*
X118113608Y-108969608D01*
X118292932Y-108751101D01*
X118426182Y-108501808D01*
X118508236Y-108231309D01*
X118535943Y-107950000D01*
X118508236Y-107668691D01*
X118426182Y-107398192D01*
X118292932Y-107148899D01*
X118113608Y-106930392D01*
X117895101Y-106751068D01*
X117762142Y-106680000D01*
X117895101Y-106608932D01*
X118113608Y-106429608D01*
X118292932Y-106211101D01*
X118426182Y-105961808D01*
X118508236Y-105691309D01*
X118535943Y-105410000D01*
X118508236Y-105128691D01*
X118426182Y-104858192D01*
X118292932Y-104608899D01*
X118113608Y-104390392D01*
X117895101Y-104211068D01*
X117762142Y-104140000D01*
X117895101Y-104068932D01*
X118113608Y-103889608D01*
X118292932Y-103671101D01*
X118426182Y-103421808D01*
X118508236Y-103151309D01*
X118535943Y-102870000D01*
X118508236Y-102588691D01*
X118426182Y-102318192D01*
X118292932Y-102068899D01*
X118113608Y-101850392D01*
X117895101Y-101671068D01*
X117757318Y-101597421D01*
X117949131Y-101482385D01*
X118157519Y-101293414D01*
X118325037Y-101067420D01*
X118445246Y-100813087D01*
X118485904Y-100679039D01*
X118363915Y-100457000D01*
X117221000Y-100457000D01*
X117221000Y-100477000D01*
X116967000Y-100477000D01*
X116967000Y-100457000D01*
X115824085Y-100457000D01*
X115702096Y-100679039D01*
X115742754Y-100813087D01*
X115862963Y-101067420D01*
X116030481Y-101293414D01*
X116238869Y-101482385D01*
X116430682Y-101597421D01*
X116292899Y-101671068D01*
X116184133Y-101760330D01*
X112562842Y-98139039D01*
X115702096Y-98139039D01*
X115742754Y-98273087D01*
X115862963Y-98527420D01*
X116030481Y-98753414D01*
X116238869Y-98942385D01*
X116434982Y-99060000D01*
X116238869Y-99177615D01*
X116030481Y-99366586D01*
X115862963Y-99592580D01*
X115742754Y-99846913D01*
X115702096Y-99980961D01*
X115824085Y-100203000D01*
X116967000Y-100203000D01*
X116967000Y-97917000D01*
X117221000Y-97917000D01*
X117221000Y-100203000D01*
X118363915Y-100203000D01*
X118485904Y-99980961D01*
X118445246Y-99846913D01*
X118325037Y-99592580D01*
X118157519Y-99366586D01*
X117949131Y-99177615D01*
X117753018Y-99060000D01*
X117949131Y-98942385D01*
X118157519Y-98753414D01*
X118325037Y-98527420D01*
X118445246Y-98273087D01*
X118485904Y-98139039D01*
X118363915Y-97917000D01*
X117221000Y-97917000D01*
X116967000Y-97917000D01*
X115824085Y-97917000D01*
X115702096Y-98139039D01*
X112562842Y-98139039D01*
X110579960Y-96156157D01*
X110705037Y-95987420D01*
X110825246Y-95733087D01*
X110865904Y-95599039D01*
X110743915Y-95377000D01*
X109601000Y-95377000D01*
X109601000Y-95397000D01*
X109347000Y-95397000D01*
X109347000Y-95377000D01*
X109327000Y-95377000D01*
X109327000Y-95123000D01*
X109347000Y-95123000D01*
X109347000Y-95103000D01*
X109601000Y-95103000D01*
X109601000Y-95123000D01*
X110743915Y-95123000D01*
X110865904Y-94900961D01*
X110825246Y-94766913D01*
X110705037Y-94512580D01*
X110537519Y-94286586D01*
X110329131Y-94097615D01*
X110137318Y-93982579D01*
X110275101Y-93908932D01*
X110493608Y-93729608D01*
X110672932Y-93511101D01*
X110806182Y-93261808D01*
X110888236Y-92991309D01*
X110915943Y-92710000D01*
X110888236Y-92428691D01*
X110806182Y-92158192D01*
X110672932Y-91908899D01*
X110493608Y-91690392D01*
X110275101Y-91511068D01*
X110142142Y-91440000D01*
X110275101Y-91368932D01*
X110493608Y-91189608D01*
X110672932Y-90971101D01*
X110806182Y-90721808D01*
X110888236Y-90451309D01*
X110915943Y-90170000D01*
X110888236Y-89888691D01*
X110806182Y-89618192D01*
X110672932Y-89368899D01*
X110493608Y-89150392D01*
X110275101Y-88971068D01*
X110142142Y-88900000D01*
X110275101Y-88828932D01*
X110493608Y-88649608D01*
X110672932Y-88431101D01*
X110806182Y-88181808D01*
X110888236Y-87911309D01*
X110915943Y-87630000D01*
X110888236Y-87348691D01*
X110806182Y-87078192D01*
X110672932Y-86828899D01*
X110493608Y-86610392D01*
X110275101Y-86431068D01*
X110142142Y-86360000D01*
X110275101Y-86288932D01*
X110493608Y-86109608D01*
X110672932Y-85891101D01*
X110806182Y-85641808D01*
X110888236Y-85371309D01*
X110915943Y-85090000D01*
X110888236Y-84808691D01*
X110806182Y-84538192D01*
X110672932Y-84288899D01*
X110493608Y-84070392D01*
X110275101Y-83891068D01*
X110142142Y-83820000D01*
X110275101Y-83748932D01*
X110493608Y-83569608D01*
X110672932Y-83351101D01*
X110806182Y-83101808D01*
X110888236Y-82831309D01*
X110915943Y-82550000D01*
X110888236Y-82268691D01*
X110806182Y-81998192D01*
X110672932Y-81748899D01*
X110493608Y-81530392D01*
X110380518Y-81437581D01*
X110398482Y-81435812D01*
X110518180Y-81399502D01*
X110628494Y-81340537D01*
X110725185Y-81261185D01*
X110804537Y-81164494D01*
X110863502Y-81054180D01*
X110899812Y-80934482D01*
X110912072Y-80810000D01*
X110912072Y-80010000D01*
X115652057Y-80010000D01*
X115679764Y-80291309D01*
X115761818Y-80561808D01*
X115895068Y-80811101D01*
X116074392Y-81029608D01*
X116292899Y-81208932D01*
X116425858Y-81280000D01*
X116292899Y-81351068D01*
X116074392Y-81530392D01*
X115895068Y-81748899D01*
X115761818Y-81998192D01*
X115679764Y-82268691D01*
X115652057Y-82550000D01*
X115679764Y-82831309D01*
X115761818Y-83101808D01*
X115895068Y-83351101D01*
X116074392Y-83569608D01*
X116292899Y-83748932D01*
X116425858Y-83820000D01*
X116292899Y-83891068D01*
X116074392Y-84070392D01*
X115895068Y-84288899D01*
X115761818Y-84538192D01*
X115679764Y-84808691D01*
X115652057Y-85090000D01*
X115679764Y-85371309D01*
X115761818Y-85641808D01*
X115895068Y-85891101D01*
X116074392Y-86109608D01*
X116292899Y-86288932D01*
X116425858Y-86360000D01*
X116292899Y-86431068D01*
X116074392Y-86610392D01*
X115895068Y-86828899D01*
X115761818Y-87078192D01*
X115679764Y-87348691D01*
X115652057Y-87630000D01*
X115679764Y-87911309D01*
X115761818Y-88181808D01*
X115895068Y-88431101D01*
X116074392Y-88649608D01*
X116292899Y-88828932D01*
X116425858Y-88900000D01*
X116292899Y-88971068D01*
X116074392Y-89150392D01*
X115895068Y-89368899D01*
X115761818Y-89618192D01*
X115679764Y-89888691D01*
X115652057Y-90170000D01*
X115679764Y-90451309D01*
X115761818Y-90721808D01*
X115895068Y-90971101D01*
X116074392Y-91189608D01*
X116292899Y-91368932D01*
X116425858Y-91440000D01*
X116292899Y-91511068D01*
X116074392Y-91690392D01*
X115895068Y-91908899D01*
X115761818Y-92158192D01*
X115679764Y-92428691D01*
X115652057Y-92710000D01*
X115679764Y-92991309D01*
X115761818Y-93261808D01*
X115895068Y-93511101D01*
X116074392Y-93729608D01*
X116292899Y-93908932D01*
X116425858Y-93980000D01*
X116292899Y-94051068D01*
X116074392Y-94230392D01*
X115895068Y-94448899D01*
X115761818Y-94698192D01*
X115679764Y-94968691D01*
X115652057Y-95250000D01*
X115679764Y-95531309D01*
X115761818Y-95801808D01*
X115895068Y-96051101D01*
X116074392Y-96269608D01*
X116292899Y-96448932D01*
X116430682Y-96522579D01*
X116238869Y-96637615D01*
X116030481Y-96826586D01*
X115862963Y-97052580D01*
X115742754Y-97306913D01*
X115702096Y-97440961D01*
X115824085Y-97663000D01*
X116967000Y-97663000D01*
X116967000Y-97643000D01*
X117221000Y-97643000D01*
X117221000Y-97663000D01*
X118363915Y-97663000D01*
X118485904Y-97440961D01*
X118445246Y-97306913D01*
X118325037Y-97052580D01*
X118157519Y-96826586D01*
X117949131Y-96637615D01*
X117757318Y-96522579D01*
X117895101Y-96448932D01*
X118113608Y-96269608D01*
X118292932Y-96051101D01*
X118426182Y-95801808D01*
X118508236Y-95531309D01*
X118535943Y-95250000D01*
X118508236Y-94968691D01*
X118426182Y-94698192D01*
X118292932Y-94448899D01*
X118113608Y-94230392D01*
X117895101Y-94051068D01*
X117762142Y-93980000D01*
X117895101Y-93908932D01*
X118113608Y-93729608D01*
X118292932Y-93511101D01*
X118426182Y-93261808D01*
X118508236Y-92991309D01*
X118535943Y-92710000D01*
X118508236Y-92428691D01*
X118426182Y-92158192D01*
X118292932Y-91908899D01*
X118113608Y-91690392D01*
X117895101Y-91511068D01*
X117762142Y-91440000D01*
X117895101Y-91368932D01*
X118113608Y-91189608D01*
X118292932Y-90971101D01*
X118426182Y-90721808D01*
X118508236Y-90451309D01*
X118535943Y-90170000D01*
X118508236Y-89888691D01*
X118426182Y-89618192D01*
X118292932Y-89368899D01*
X118113608Y-89150392D01*
X117895101Y-88971068D01*
X117762142Y-88900000D01*
X117895101Y-88828932D01*
X118113608Y-88649608D01*
X118292932Y-88431101D01*
X118426182Y-88181808D01*
X118508236Y-87911309D01*
X118535943Y-87630000D01*
X118508236Y-87348691D01*
X118426182Y-87078192D01*
X118292932Y-86828899D01*
X118113608Y-86610392D01*
X117895101Y-86431068D01*
X117762142Y-86360000D01*
X117895101Y-86288932D01*
X118113608Y-86109608D01*
X118292932Y-85891101D01*
X118426182Y-85641808D01*
X118508236Y-85371309D01*
X118535943Y-85090000D01*
X118508236Y-84808691D01*
X118426182Y-84538192D01*
X118292932Y-84288899D01*
X118113608Y-84070392D01*
X117895101Y-83891068D01*
X117762142Y-83820000D01*
X117895101Y-83748932D01*
X118113608Y-83569608D01*
X118292932Y-83351101D01*
X118426182Y-83101808D01*
X118508236Y-82831309D01*
X118535943Y-82550000D01*
X118508236Y-82268691D01*
X118426182Y-81998192D01*
X118292932Y-81748899D01*
X118113608Y-81530392D01*
X117895101Y-81351068D01*
X117762142Y-81280000D01*
X117895101Y-81208932D01*
X118113608Y-81029608D01*
X118292932Y-80811101D01*
X118426182Y-80561808D01*
X118508236Y-80291309D01*
X118535943Y-80010000D01*
X118508236Y-79728691D01*
X118426182Y-79458192D01*
X118292932Y-79208899D01*
X118113608Y-78990392D01*
X117895101Y-78811068D01*
X117645808Y-78677818D01*
X117375309Y-78595764D01*
X117164492Y-78575000D01*
X117023508Y-78575000D01*
X116812691Y-78595764D01*
X116542192Y-78677818D01*
X116292899Y-78811068D01*
X116074392Y-78990392D01*
X115895068Y-79208899D01*
X115761818Y-79458192D01*
X115679764Y-79728691D01*
X115652057Y-80010000D01*
X110912072Y-80010000D01*
X110912072Y-79210000D01*
X110899812Y-79085518D01*
X110863502Y-78965820D01*
X110804537Y-78855506D01*
X110725185Y-78758815D01*
X110628494Y-78679463D01*
X110518180Y-78620498D01*
X110398482Y-78584188D01*
X110274000Y-78571928D01*
X108674000Y-78571928D01*
X108549518Y-78584188D01*
X108429820Y-78620498D01*
X108319506Y-78679463D01*
X108222815Y-78758815D01*
X108143463Y-78855506D01*
X108084498Y-78965820D01*
X108048188Y-79085518D01*
X108035928Y-79210000D01*
X108035928Y-80810000D01*
X108048188Y-80934482D01*
X108084498Y-81054180D01*
X108143463Y-81164494D01*
X108222815Y-81261185D01*
X108319506Y-81340537D01*
X108429820Y-81399502D01*
X108549518Y-81435812D01*
X108567482Y-81437581D01*
X108454392Y-81530392D01*
X108275068Y-81748899D01*
X108141818Y-81998192D01*
X108059764Y-82268691D01*
X108032057Y-82550000D01*
X108059764Y-82831309D01*
X108141818Y-83101808D01*
X108275068Y-83351101D01*
X108454392Y-83569608D01*
X108672899Y-83748932D01*
X108805858Y-83820000D01*
X108672899Y-83891068D01*
X108454392Y-84070392D01*
X108275068Y-84288899D01*
X108141818Y-84538192D01*
X108059764Y-84808691D01*
X108032057Y-85090000D01*
X108059764Y-85371309D01*
X108141818Y-85641808D01*
X108275068Y-85891101D01*
X108454392Y-86109608D01*
X108672899Y-86288932D01*
X108805858Y-86360000D01*
X108672899Y-86431068D01*
X108454392Y-86610392D01*
X108275068Y-86828899D01*
X108141818Y-87078192D01*
X108059764Y-87348691D01*
X108032057Y-87630000D01*
X108059764Y-87911309D01*
X108141818Y-88181808D01*
X108275068Y-88431101D01*
X108454392Y-88649608D01*
X108672899Y-88828932D01*
X108805858Y-88900000D01*
X108672899Y-88971068D01*
X108454392Y-89150392D01*
X108275068Y-89368899D01*
X108141818Y-89618192D01*
X108059764Y-89888691D01*
X108032057Y-90170000D01*
X108059764Y-90451309D01*
X108141818Y-90721808D01*
X108275068Y-90971101D01*
X108454392Y-91189608D01*
X108672899Y-91368932D01*
X108805858Y-91440000D01*
X108672899Y-91511068D01*
X108454392Y-91690392D01*
X108275068Y-91908899D01*
X108141818Y-92158192D01*
X108059764Y-92428691D01*
X108032057Y-92710000D01*
X108059764Y-92991309D01*
X108141818Y-93261808D01*
X108275068Y-93511101D01*
X108454392Y-93729608D01*
X108672899Y-93908932D01*
X108810682Y-93982579D01*
X108618869Y-94097615D01*
X108410481Y-94286586D01*
X108242963Y-94512580D01*
X108211965Y-94578164D01*
X105358018Y-91724218D01*
X105372426Y-91730186D01*
X105649665Y-91785333D01*
X105932335Y-91785333D01*
X106209574Y-91730186D01*
X106470727Y-91622013D01*
X106705759Y-91464970D01*
X106905637Y-91265092D01*
X107062680Y-91030060D01*
X107170853Y-90768907D01*
X107226000Y-90491668D01*
X107226000Y-90208998D01*
X107170853Y-89931759D01*
X107062680Y-89670606D01*
X106905637Y-89435574D01*
X106705759Y-89235696D01*
X106470727Y-89078653D01*
X106257101Y-88990166D01*
X106470727Y-88901680D01*
X106705759Y-88744637D01*
X106905637Y-88544759D01*
X107062680Y-88309727D01*
X107170853Y-88048574D01*
X107226000Y-87771335D01*
X107226000Y-87488665D01*
X107170853Y-87211426D01*
X107062680Y-86950273D01*
X106905637Y-86715241D01*
X106705759Y-86515363D01*
X106470727Y-86358320D01*
X106209574Y-86250147D01*
X105932335Y-86195000D01*
X105649665Y-86195000D01*
X105372426Y-86250147D01*
X105111273Y-86358320D01*
X104876241Y-86515363D01*
X104676363Y-86715241D01*
X104519320Y-86950273D01*
X104411147Y-87211426D01*
X104356000Y-87488665D01*
X104356000Y-87771335D01*
X104411147Y-88048574D01*
X104519320Y-88309727D01*
X104676363Y-88544759D01*
X104876241Y-88744637D01*
X105111273Y-88901680D01*
X105324899Y-88990166D01*
X105111273Y-89078653D01*
X104876241Y-89235696D01*
X104676363Y-89435574D01*
X104519320Y-89670606D01*
X104411147Y-89931759D01*
X104356000Y-90208998D01*
X104356000Y-90491668D01*
X104411147Y-90768907D01*
X104417115Y-90783315D01*
X100836000Y-87202201D01*
X100836000Y-86401072D01*
X100876000Y-86401072D01*
X101000482Y-86388812D01*
X101120180Y-86352502D01*
X101230494Y-86293537D01*
X101327185Y-86214185D01*
X101406537Y-86117494D01*
X101465502Y-86007180D01*
X101501812Y-85887482D01*
X101514072Y-85763000D01*
X101514072Y-84163000D01*
X101501812Y-84038518D01*
X101465502Y-83918820D01*
X101406537Y-83808506D01*
X101327185Y-83711815D01*
X101230494Y-83632463D01*
X101120180Y-83573498D01*
X101000482Y-83537188D01*
X100982518Y-83535419D01*
X101095608Y-83442608D01*
X101274932Y-83224101D01*
X101408182Y-82974808D01*
X101490236Y-82704309D01*
X101517943Y-82423000D01*
X101490236Y-82141691D01*
X101408182Y-81871192D01*
X101274932Y-81621899D01*
X101095608Y-81403392D01*
X100877101Y-81224068D01*
X100744142Y-81153000D01*
X100877101Y-81081932D01*
X101095608Y-80902608D01*
X101274932Y-80684101D01*
X101408182Y-80434808D01*
X101490236Y-80164309D01*
X101505434Y-80010000D01*
X104349057Y-80010000D01*
X104376764Y-80291309D01*
X104458818Y-80561808D01*
X104592068Y-80811101D01*
X104771392Y-81029608D01*
X104989899Y-81208932D01*
X105239192Y-81342182D01*
X105509691Y-81424236D01*
X105720508Y-81445000D01*
X105861492Y-81445000D01*
X106072309Y-81424236D01*
X106342808Y-81342182D01*
X106592101Y-81208932D01*
X106810608Y-81029608D01*
X106989932Y-80811101D01*
X107123182Y-80561808D01*
X107205236Y-80291309D01*
X107232943Y-80010000D01*
X107205236Y-79728691D01*
X107123182Y-79458192D01*
X106989932Y-79208899D01*
X106810608Y-78990392D01*
X106592101Y-78811068D01*
X106342808Y-78677818D01*
X106072309Y-78595764D01*
X105861492Y-78575000D01*
X105720508Y-78575000D01*
X105509691Y-78595764D01*
X105239192Y-78677818D01*
X104989899Y-78811068D01*
X104771392Y-78990392D01*
X104592068Y-79208899D01*
X104458818Y-79458192D01*
X104376764Y-79728691D01*
X104349057Y-80010000D01*
X101505434Y-80010000D01*
X101517943Y-79883000D01*
X101490236Y-79601691D01*
X101408182Y-79331192D01*
X101274932Y-79081899D01*
X101095608Y-78863392D01*
X100877101Y-78684068D01*
X100627808Y-78550818D01*
X100357309Y-78468764D01*
X100146492Y-78448000D01*
X100005508Y-78448000D01*
X99794691Y-78468764D01*
X99524192Y-78550818D01*
X99274899Y-78684068D01*
X99056392Y-78863392D01*
X98877068Y-79081899D01*
X98743818Y-79331192D01*
X98661764Y-79601691D01*
X98634057Y-79883000D01*
X98661764Y-80164309D01*
X98675292Y-80208907D01*
X98439997Y-80444202D01*
X98410999Y-80468000D01*
X98387201Y-80496998D01*
X98387200Y-80496999D01*
X98316025Y-80583725D01*
X98245453Y-80715755D01*
X98201997Y-80859016D01*
X98187323Y-81008001D01*
X98191000Y-81045333D01*
X98190999Y-84474867D01*
X93721940Y-88943927D01*
X93654932Y-88818565D01*
X93475608Y-88600058D01*
X93257101Y-88420734D01*
X93007808Y-88287484D01*
X92737309Y-88205430D01*
X92526492Y-88184666D01*
X92385508Y-88184666D01*
X92174691Y-88205430D01*
X91904192Y-88287484D01*
X91654899Y-88420734D01*
X91436392Y-88600058D01*
X91257068Y-88818565D01*
X91219261Y-88889296D01*
X91187787Y-88676870D01*
X91092603Y-88410708D01*
X91025671Y-88285486D01*
X90781702Y-88213903D01*
X89968605Y-89027000D01*
X90781702Y-89840097D01*
X91025671Y-89768514D01*
X91028193Y-89763185D01*
X91041764Y-89900975D01*
X91111651Y-90131364D01*
X91022332Y-90204666D01*
X90998534Y-90233664D01*
X87626998Y-93605201D01*
X87598000Y-93628999D01*
X87596417Y-93630928D01*
X87512999Y-93630928D01*
X87339745Y-93647992D01*
X87173149Y-93698528D01*
X87019613Y-93780595D01*
X86885038Y-93891038D01*
X86774595Y-94025613D01*
X86692528Y-94179149D01*
X86641992Y-94345745D01*
X86624928Y-94518999D01*
X86624928Y-95219001D01*
X86641992Y-95392255D01*
X86692528Y-95558851D01*
X86774595Y-95712387D01*
X86885038Y-95846962D01*
X87019613Y-95957405D01*
X87024111Y-95959809D01*
X86985498Y-95991498D01*
X86831167Y-96179551D01*
X86716489Y-96394099D01*
X86645870Y-96626898D01*
X86622025Y-96869000D01*
X77978000Y-96869000D01*
X77978000Y-89027000D01*
X80727057Y-89027000D01*
X80754764Y-89308309D01*
X80836818Y-89578808D01*
X80970068Y-89828101D01*
X81149392Y-90046608D01*
X81367899Y-90225932D01*
X81617192Y-90359182D01*
X81887691Y-90441236D01*
X82098508Y-90462000D01*
X82239492Y-90462000D01*
X82450309Y-90441236D01*
X82720808Y-90359182D01*
X82970101Y-90225932D01*
X83188608Y-90046608D01*
X83210689Y-90019702D01*
X88975903Y-90019702D01*
X89047486Y-90263671D01*
X89302996Y-90384571D01*
X89577184Y-90453300D01*
X89859512Y-90467217D01*
X90139130Y-90425787D01*
X90405292Y-90330603D01*
X90530514Y-90263671D01*
X90602097Y-90019702D01*
X89789000Y-89206605D01*
X88975903Y-90019702D01*
X83210689Y-90019702D01*
X83367932Y-89828101D01*
X83501182Y-89578808D01*
X83583236Y-89308309D01*
X83603998Y-89097512D01*
X88348783Y-89097512D01*
X88390213Y-89377130D01*
X88485397Y-89643292D01*
X88552329Y-89768514D01*
X88796298Y-89840097D01*
X89609395Y-89027000D01*
X88796298Y-88213903D01*
X88552329Y-88285486D01*
X88431429Y-88540996D01*
X88362700Y-88815184D01*
X88348783Y-89097512D01*
X83603998Y-89097512D01*
X83610943Y-89027000D01*
X83583236Y-88745691D01*
X83501182Y-88475192D01*
X83367932Y-88225899D01*
X83210690Y-88034298D01*
X88975903Y-88034298D01*
X89789000Y-88847395D01*
X90602097Y-88034298D01*
X90530514Y-87790329D01*
X90275004Y-87669429D01*
X90000816Y-87600700D01*
X89718488Y-87586783D01*
X89438870Y-87628213D01*
X89172708Y-87723397D01*
X89047486Y-87790329D01*
X88975903Y-88034298D01*
X83210690Y-88034298D01*
X83188608Y-88007392D01*
X82970101Y-87828068D01*
X82720808Y-87694818D01*
X82450309Y-87612764D01*
X82239492Y-87592000D01*
X82098508Y-87592000D01*
X81887691Y-87612764D01*
X81617192Y-87694818D01*
X81367899Y-87828068D01*
X81149392Y-88007392D01*
X80970068Y-88225899D01*
X80836818Y-88475192D01*
X80754764Y-88745691D01*
X80727057Y-89027000D01*
X77978000Y-89027000D01*
X77978000Y-84420967D01*
X80892000Y-84420967D01*
X80892000Y-84743033D01*
X80954832Y-85058912D01*
X81078082Y-85356463D01*
X81257013Y-85624252D01*
X81484748Y-85851987D01*
X81752537Y-86030918D01*
X82050088Y-86154168D01*
X82365967Y-86217000D01*
X82688033Y-86217000D01*
X83003912Y-86154168D01*
X83301463Y-86030918D01*
X83569252Y-85851987D01*
X83796987Y-85624252D01*
X83975918Y-85356463D01*
X84099168Y-85058912D01*
X84162000Y-84743033D01*
X84162000Y-84420967D01*
X87392000Y-84420967D01*
X87392000Y-84743033D01*
X87454832Y-85058912D01*
X87578082Y-85356463D01*
X87757013Y-85624252D01*
X87984748Y-85851987D01*
X88252537Y-86030918D01*
X88550088Y-86154168D01*
X88865967Y-86217000D01*
X89188033Y-86217000D01*
X89503912Y-86154168D01*
X89801463Y-86030918D01*
X90069252Y-85851987D01*
X90296987Y-85624252D01*
X90475918Y-85356463D01*
X90599168Y-85058912D01*
X90662000Y-84743033D01*
X90662000Y-84420967D01*
X90599168Y-84105088D01*
X90475918Y-83807537D01*
X90296987Y-83539748D01*
X90069252Y-83312013D01*
X89801463Y-83133082D01*
X89503912Y-83009832D01*
X89188033Y-82947000D01*
X88865967Y-82947000D01*
X88550088Y-83009832D01*
X88252537Y-83133082D01*
X87984748Y-83312013D01*
X87757013Y-83539748D01*
X87578082Y-83807537D01*
X87454832Y-84105088D01*
X87392000Y-84420967D01*
X84162000Y-84420967D01*
X84099168Y-84105088D01*
X83975918Y-83807537D01*
X83796987Y-83539748D01*
X83569252Y-83312013D01*
X83301463Y-83133082D01*
X83003912Y-83009832D01*
X82688033Y-82947000D01*
X82365967Y-82947000D01*
X82050088Y-83009832D01*
X81752537Y-83133082D01*
X81484748Y-83312013D01*
X81257013Y-83539748D01*
X81078082Y-83807537D01*
X80954832Y-84105088D01*
X80892000Y-84420967D01*
X77978000Y-84420967D01*
X77978000Y-79920967D01*
X80892000Y-79920967D01*
X80892000Y-80243033D01*
X80954832Y-80558912D01*
X81078082Y-80856463D01*
X81257013Y-81124252D01*
X81484748Y-81351987D01*
X81752537Y-81530918D01*
X82050088Y-81654168D01*
X82365967Y-81717000D01*
X82688033Y-81717000D01*
X83003912Y-81654168D01*
X83301463Y-81530918D01*
X83569252Y-81351987D01*
X83796987Y-81124252D01*
X83975918Y-80856463D01*
X84099168Y-80558912D01*
X84162000Y-80243033D01*
X84162000Y-79920967D01*
X87392000Y-79920967D01*
X87392000Y-80243033D01*
X87454832Y-80558912D01*
X87578082Y-80856463D01*
X87757013Y-81124252D01*
X87984748Y-81351987D01*
X88252537Y-81530918D01*
X88550088Y-81654168D01*
X88865967Y-81717000D01*
X89188033Y-81717000D01*
X89503912Y-81654168D01*
X89801463Y-81530918D01*
X90069252Y-81351987D01*
X90296987Y-81124252D01*
X90475918Y-80856463D01*
X90599168Y-80558912D01*
X90662000Y-80243033D01*
X90662000Y-79920967D01*
X90654448Y-79883000D01*
X91014057Y-79883000D01*
X91041764Y-80164309D01*
X91123818Y-80434808D01*
X91257068Y-80684101D01*
X91436392Y-80902608D01*
X91654899Y-81081932D01*
X91787858Y-81153000D01*
X91654899Y-81224068D01*
X91436392Y-81403392D01*
X91257068Y-81621899D01*
X91123818Y-81871192D01*
X91041764Y-82141691D01*
X91014057Y-82423000D01*
X91041764Y-82704309D01*
X91123818Y-82974808D01*
X91257068Y-83224101D01*
X91436392Y-83442608D01*
X91654899Y-83621932D01*
X91787858Y-83693000D01*
X91654899Y-83764068D01*
X91436392Y-83943392D01*
X91257068Y-84161899D01*
X91123818Y-84411192D01*
X91041764Y-84681691D01*
X91014057Y-84963000D01*
X91041764Y-85244309D01*
X91123818Y-85514808D01*
X91257068Y-85764101D01*
X91436392Y-85982608D01*
X91654899Y-86161932D01*
X91904192Y-86295182D01*
X92174691Y-86377236D01*
X92385508Y-86398000D01*
X92526492Y-86398000D01*
X92737309Y-86377236D01*
X93007808Y-86295182D01*
X93257101Y-86161932D01*
X93475608Y-85982608D01*
X93654932Y-85764101D01*
X93788182Y-85514808D01*
X93870236Y-85244309D01*
X93897943Y-84963000D01*
X93870236Y-84681691D01*
X93788182Y-84411192D01*
X93654932Y-84161899D01*
X93475608Y-83943392D01*
X93257101Y-83764068D01*
X93124142Y-83693000D01*
X93257101Y-83621932D01*
X93475608Y-83442608D01*
X93654932Y-83224101D01*
X93788182Y-82974808D01*
X93870236Y-82704309D01*
X93897943Y-82423000D01*
X93870236Y-82141691D01*
X93788182Y-81871192D01*
X93654932Y-81621899D01*
X93475608Y-81403392D01*
X93257101Y-81224068D01*
X93124142Y-81153000D01*
X93257101Y-81081932D01*
X93475608Y-80902608D01*
X93654932Y-80684101D01*
X93788182Y-80434808D01*
X93870236Y-80164309D01*
X93897943Y-79883000D01*
X93870236Y-79601691D01*
X93788182Y-79331192D01*
X93654932Y-79081899D01*
X93475608Y-78863392D01*
X93257101Y-78684068D01*
X93007808Y-78550818D01*
X92737309Y-78468764D01*
X92526492Y-78448000D01*
X92385508Y-78448000D01*
X92174691Y-78468764D01*
X91904192Y-78550818D01*
X91654899Y-78684068D01*
X91436392Y-78863392D01*
X91257068Y-79081899D01*
X91123818Y-79331192D01*
X91041764Y-79601691D01*
X91014057Y-79883000D01*
X90654448Y-79883000D01*
X90599168Y-79605088D01*
X90475918Y-79307537D01*
X90296987Y-79039748D01*
X90069252Y-78812013D01*
X89801463Y-78633082D01*
X89503912Y-78509832D01*
X89188033Y-78447000D01*
X88865967Y-78447000D01*
X88550088Y-78509832D01*
X88252537Y-78633082D01*
X87984748Y-78812013D01*
X87757013Y-79039748D01*
X87578082Y-79307537D01*
X87454832Y-79605088D01*
X87392000Y-79920967D01*
X84162000Y-79920967D01*
X84099168Y-79605088D01*
X83975918Y-79307537D01*
X83796987Y-79039748D01*
X83569252Y-78812013D01*
X83301463Y-78633082D01*
X83003912Y-78509832D01*
X82688033Y-78447000D01*
X82365967Y-78447000D01*
X82050088Y-78509832D01*
X81752537Y-78633082D01*
X81484748Y-78812013D01*
X81257013Y-79039748D01*
X81078082Y-79307537D01*
X80954832Y-79605088D01*
X80892000Y-79920967D01*
X77978000Y-79920967D01*
X77978000Y-75946000D01*
X121793000Y-75946000D01*
X121793000Y-118618000D01*
X121793000Y-118618000D01*
G37*
X121793000Y-118618000D02*
X77978000Y-118618000D01*
X77978000Y-112869000D01*
X86622025Y-112869000D01*
X86645870Y-113111102D01*
X86716489Y-113343901D01*
X86831167Y-113558449D01*
X86985498Y-113746502D01*
X87173551Y-113900833D01*
X87388099Y-114015511D01*
X87620898Y-114086130D01*
X87802335Y-114104000D01*
X88473665Y-114104000D01*
X88655102Y-114086130D01*
X88887901Y-114015511D01*
X89102449Y-113900833D01*
X89290502Y-113746502D01*
X89444833Y-113558449D01*
X89559511Y-113343901D01*
X89630130Y-113111102D01*
X89653975Y-112869000D01*
X89630130Y-112626898D01*
X89559511Y-112394099D01*
X89444833Y-112179551D01*
X89290502Y-111991498D01*
X89140652Y-111868519D01*
X89204725Y-111825307D01*
X89376078Y-111652474D01*
X89510421Y-111449533D01*
X89602591Y-111224282D01*
X89606462Y-111186609D01*
X89481731Y-110996000D01*
X88265000Y-110996000D01*
X88265000Y-111016000D01*
X88011000Y-111016000D01*
X88011000Y-110996000D01*
X86794269Y-110996000D01*
X86669538Y-111186609D01*
X86673409Y-111224282D01*
X86765579Y-111449533D01*
X86899922Y-111652474D01*
X87071275Y-111825307D01*
X87135348Y-111868519D01*
X86985498Y-111991498D01*
X86831167Y-112179551D01*
X86716489Y-112394099D01*
X86645870Y-112626898D01*
X86622025Y-112869000D01*
X77978000Y-112869000D01*
X77978000Y-96869000D01*
X86622025Y-96869000D01*
X86645870Y-97111102D01*
X86716489Y-97343901D01*
X86831167Y-97558449D01*
X86985498Y-97746502D01*
X87134762Y-97869000D01*
X86985498Y-97991498D01*
X86831167Y-98179551D01*
X86716489Y-98394099D01*
X86645870Y-98626898D01*
X86622025Y-98869000D01*
X86645870Y-99111102D01*
X86716489Y-99343901D01*
X86831167Y-99558449D01*
X86985498Y-99746502D01*
X87134762Y-99869000D01*
X86985498Y-99991498D01*
X86831167Y-100179551D01*
X86716489Y-100394099D01*
X86645870Y-100626898D01*
X86622025Y-100869000D01*
X86645870Y-101111102D01*
X86716489Y-101343901D01*
X86831167Y-101558449D01*
X86985498Y-101746502D01*
X87134762Y-101869000D01*
X86985498Y-101991498D01*
X86831167Y-102179551D01*
X86716489Y-102394099D01*
X86645870Y-102626898D01*
X86622025Y-102869000D01*
X86645870Y-103111102D01*
X86716489Y-103343901D01*
X86831167Y-103558449D01*
X86985498Y-103746502D01*
X87134762Y-103869000D01*
X86985498Y-103991498D01*
X86831167Y-104179551D01*
X86716489Y-104394099D01*
X86645870Y-104626898D01*
X86622025Y-104869000D01*
X86645870Y-105111102D01*
X86716489Y-105343901D01*
X86831167Y-105558449D01*
X86985498Y-105746502D01*
X87134762Y-105869000D01*
X86985498Y-105991498D01*
X86831167Y-106179551D01*
X86716489Y-106394099D01*
X86645870Y-106626898D01*
X86622025Y-106869000D01*
X86645870Y-107111102D01*
X86716489Y-107343901D01*
X86831167Y-107558449D01*
X86985498Y-107746502D01*
X87134762Y-107869000D01*
X86985498Y-107991498D01*
X86831167Y-108179551D01*
X86716489Y-108394099D01*
X86645870Y-108626898D01*
X86622025Y-108869000D01*
X86645870Y-109111102D01*
X86716489Y-109343901D01*
X86831167Y-109558449D01*
X86985498Y-109746502D01*
X87135348Y-109869481D01*
X87071275Y-109912693D01*
X86899922Y-110085526D01*
X86765579Y-110288467D01*
X86673409Y-110513718D01*
X86669538Y-110551391D01*
X86794269Y-110742000D01*
X88011000Y-110742000D01*
X88011000Y-110722000D01*
X88265000Y-110722000D01*
X88265000Y-110742000D01*
X89481731Y-110742000D01*
X89606462Y-110551391D01*
X89602591Y-110513718D01*
X89510421Y-110288467D01*
X89376078Y-110085526D01*
X89204725Y-109912693D01*
X89140652Y-109869481D01*
X89290502Y-109746502D01*
X89444833Y-109558449D01*
X89559511Y-109343901D01*
X89630130Y-109111102D01*
X89631912Y-109093000D01*
X91014057Y-109093000D01*
X91041764Y-109374309D01*
X91123818Y-109644808D01*
X91257068Y-109894101D01*
X91436392Y-110112608D01*
X91654899Y-110291932D01*
X91787858Y-110363000D01*
X91654899Y-110434068D01*
X91436392Y-110613392D01*
X91257068Y-110831899D01*
X91123818Y-111081192D01*
X91041764Y-111351691D01*
X91014057Y-111633000D01*
X91041764Y-111914309D01*
X91123818Y-112184808D01*
X91257068Y-112434101D01*
X91436392Y-112652608D01*
X91654899Y-112831932D01*
X91787858Y-112903000D01*
X91654899Y-112974068D01*
X91436392Y-113153392D01*
X91257068Y-113371899D01*
X91123818Y-113621192D01*
X91041764Y-113891691D01*
X91014057Y-114173000D01*
X91041764Y-114454309D01*
X91123818Y-114724808D01*
X91257068Y-114974101D01*
X91436392Y-115192608D01*
X91654899Y-115371932D01*
X91904192Y-115505182D01*
X92174691Y-115587236D01*
X92385508Y-115608000D01*
X92526492Y-115608000D01*
X92737309Y-115587236D01*
X93007808Y-115505182D01*
X93257101Y-115371932D01*
X93475608Y-115192608D01*
X93654932Y-114974101D01*
X93788182Y-114724808D01*
X93870236Y-114454309D01*
X93897943Y-114173000D01*
X93870236Y-113891691D01*
X93788182Y-113621192D01*
X93654932Y-113371899D01*
X93475608Y-113153392D01*
X93257101Y-112974068D01*
X93124142Y-112903000D01*
X93257101Y-112831932D01*
X93475608Y-112652608D01*
X93654932Y-112434101D01*
X93788182Y-112184808D01*
X93870236Y-111914309D01*
X93897943Y-111633000D01*
X93870236Y-111351691D01*
X93788182Y-111081192D01*
X93654932Y-110831899D01*
X93475608Y-110613392D01*
X93257101Y-110434068D01*
X93124142Y-110363000D01*
X93257101Y-110291932D01*
X93475608Y-110112608D01*
X93654932Y-109894101D01*
X93788182Y-109644808D01*
X93870236Y-109374309D01*
X93897943Y-109093000D01*
X93870236Y-108811691D01*
X93788182Y-108541192D01*
X93654932Y-108291899D01*
X93475608Y-108073392D01*
X93257101Y-107894068D01*
X93007808Y-107760818D01*
X92737309Y-107678764D01*
X92526492Y-107658000D01*
X92385508Y-107658000D01*
X92174691Y-107678764D01*
X91904192Y-107760818D01*
X91654899Y-107894068D01*
X91436392Y-108073392D01*
X91257068Y-108291899D01*
X91123818Y-108541192D01*
X91041764Y-108811691D01*
X91014057Y-109093000D01*
X89631912Y-109093000D01*
X89653975Y-108869000D01*
X89630130Y-108626898D01*
X89559511Y-108394099D01*
X89444833Y-108179551D01*
X89290502Y-107991498D01*
X89141238Y-107869000D01*
X89290502Y-107746502D01*
X89444833Y-107558449D01*
X89559511Y-107343901D01*
X89630130Y-107111102D01*
X89653975Y-106869000D01*
X89630130Y-106626898D01*
X89559511Y-106394099D01*
X89444833Y-106179551D01*
X89290502Y-105991498D01*
X89141238Y-105869000D01*
X89290502Y-105746502D01*
X89444833Y-105558449D01*
X89559511Y-105343901D01*
X89630130Y-105111102D01*
X89653975Y-104869000D01*
X89630130Y-104626898D01*
X89559511Y-104394099D01*
X89444833Y-104179551D01*
X89290502Y-103991498D01*
X89141238Y-103869000D01*
X89290502Y-103746502D01*
X89444833Y-103558449D01*
X89559511Y-103343901D01*
X89630130Y-103111102D01*
X89653975Y-102869000D01*
X89630130Y-102626898D01*
X89559511Y-102394099D01*
X89444833Y-102179551D01*
X89290502Y-101991498D01*
X89141238Y-101869000D01*
X89167031Y-101847832D01*
X91141531Y-103822333D01*
X91150935Y-103833792D01*
X91123818Y-103884524D01*
X91041764Y-104155023D01*
X91014057Y-104436332D01*
X91041764Y-104717641D01*
X91123818Y-104988140D01*
X91257068Y-105237433D01*
X91436392Y-105455940D01*
X91654899Y-105635264D01*
X91904192Y-105768514D01*
X92174691Y-105850568D01*
X92385508Y-105871332D01*
X92526492Y-105871332D01*
X92737309Y-105850568D01*
X93007808Y-105768514D01*
X93257101Y-105635264D01*
X93475608Y-105455940D01*
X93654932Y-105237433D01*
X93788182Y-104988140D01*
X93870236Y-104717641D01*
X93897943Y-104436332D01*
X93870236Y-104155023D01*
X93844849Y-104071331D01*
X93979530Y-104071331D01*
X98675292Y-108767094D01*
X98661764Y-108811691D01*
X98634057Y-109093000D01*
X98661764Y-109374309D01*
X98743818Y-109644808D01*
X98877068Y-109894101D01*
X99056392Y-110112608D01*
X99274899Y-110291932D01*
X99407858Y-110363000D01*
X99274899Y-110434068D01*
X99056392Y-110613392D01*
X98877068Y-110831899D01*
X98743818Y-111081192D01*
X98661764Y-111351691D01*
X98634057Y-111633000D01*
X98661764Y-111914309D01*
X98743818Y-112184808D01*
X98877068Y-112434101D01*
X99056392Y-112652608D01*
X99169482Y-112745419D01*
X99151518Y-112747188D01*
X99031820Y-112783498D01*
X98921506Y-112842463D01*
X98824815Y-112921815D01*
X98745463Y-113018506D01*
X98686498Y-113128820D01*
X98650188Y-113248518D01*
X98637928Y-113373000D01*
X98637928Y-114973000D01*
X98650188Y-115097482D01*
X98686498Y-115217180D01*
X98745463Y-115327494D01*
X98824815Y-115424185D01*
X98921506Y-115503537D01*
X99031820Y-115562502D01*
X99151518Y-115598812D01*
X99276000Y-115611072D01*
X100876000Y-115611072D01*
X101000482Y-115598812D01*
X101120180Y-115562502D01*
X101230494Y-115503537D01*
X101327185Y-115424185D01*
X101406537Y-115327494D01*
X101424786Y-115293353D01*
X101451668Y-115296001D01*
X101451678Y-115296001D01*
X101489001Y-115299677D01*
X101526324Y-115296001D01*
X107930677Y-115296001D01*
X107967999Y-115299677D01*
X108005321Y-115296001D01*
X108005332Y-115296001D01*
X108116985Y-115285004D01*
X108260246Y-115241547D01*
X108392275Y-115170975D01*
X108508000Y-115076002D01*
X108531802Y-115046999D01*
X109148094Y-114430708D01*
X109192691Y-114444236D01*
X109403508Y-114465000D01*
X109544492Y-114465000D01*
X109755309Y-114444236D01*
X110025808Y-114362182D01*
X110275101Y-114228932D01*
X110493608Y-114049608D01*
X110672932Y-113831101D01*
X110806182Y-113581808D01*
X110888236Y-113311309D01*
X110915943Y-113030000D01*
X110888236Y-112748691D01*
X110862849Y-112664999D01*
X115654198Y-112664999D01*
X115693292Y-112704093D01*
X115679764Y-112748691D01*
X115652057Y-113030000D01*
X115679764Y-113311309D01*
X115761818Y-113581808D01*
X115895068Y-113831101D01*
X116074392Y-114049608D01*
X116292899Y-114228932D01*
X116542192Y-114362182D01*
X116812691Y-114444236D01*
X117023508Y-114465000D01*
X117164492Y-114465000D01*
X117375309Y-114444236D01*
X117645808Y-114362182D01*
X117895101Y-114228932D01*
X118113608Y-114049608D01*
X118292932Y-113831101D01*
X118426182Y-113581808D01*
X118508236Y-113311309D01*
X118535943Y-113030000D01*
X118508236Y-112748691D01*
X118426182Y-112478192D01*
X118292932Y-112228899D01*
X118113608Y-112010392D01*
X117895101Y-111831068D01*
X117762142Y-111760000D01*
X117895101Y-111688932D01*
X118113608Y-111509608D01*
X118292932Y-111291101D01*
X118426182Y-111041808D01*
X118508236Y-110771309D01*
X118535943Y-110490000D01*
X118508236Y-110208691D01*
X118426182Y-109938192D01*
X118292932Y-109688899D01*
X118113608Y-109470392D01*
X117895101Y-109291068D01*
X117762142Y-109220000D01*
X117895101Y-109148932D01*
X118113608Y-108969608D01*
X118292932Y-108751101D01*
X118426182Y-108501808D01*
X118508236Y-108231309D01*
X118535943Y-107950000D01*
X118508236Y-107668691D01*
X118426182Y-107398192D01*
X118292932Y-107148899D01*
X118113608Y-106930392D01*
X117895101Y-106751068D01*
X117762142Y-106680000D01*
X117895101Y-106608932D01*
X118113608Y-106429608D01*
X118292932Y-106211101D01*
X118426182Y-105961808D01*
X118508236Y-105691309D01*
X118535943Y-105410000D01*
X118508236Y-105128691D01*
X118426182Y-104858192D01*
X118292932Y-104608899D01*
X118113608Y-104390392D01*
X117895101Y-104211068D01*
X117762142Y-104140000D01*
X117895101Y-104068932D01*
X118113608Y-103889608D01*
X118292932Y-103671101D01*
X118426182Y-103421808D01*
X118508236Y-103151309D01*
X118535943Y-102870000D01*
X118508236Y-102588691D01*
X118426182Y-102318192D01*
X118292932Y-102068899D01*
X118113608Y-101850392D01*
X117895101Y-101671068D01*
X117757318Y-101597421D01*
X117949131Y-101482385D01*
X118157519Y-101293414D01*
X118325037Y-101067420D01*
X118445246Y-100813087D01*
X118485904Y-100679039D01*
X118363915Y-100457000D01*
X117221000Y-100457000D01*
X117221000Y-100477000D01*
X116967000Y-100477000D01*
X116967000Y-100457000D01*
X115824085Y-100457000D01*
X115702096Y-100679039D01*
X115742754Y-100813087D01*
X115862963Y-101067420D01*
X116030481Y-101293414D01*
X116238869Y-101482385D01*
X116430682Y-101597421D01*
X116292899Y-101671068D01*
X116184133Y-101760330D01*
X112562842Y-98139039D01*
X115702096Y-98139039D01*
X115742754Y-98273087D01*
X115862963Y-98527420D01*
X116030481Y-98753414D01*
X116238869Y-98942385D01*
X116434982Y-99060000D01*
X116238869Y-99177615D01*
X116030481Y-99366586D01*
X115862963Y-99592580D01*
X115742754Y-99846913D01*
X115702096Y-99980961D01*
X115824085Y-100203000D01*
X116967000Y-100203000D01*
X116967000Y-97917000D01*
X117221000Y-97917000D01*
X117221000Y-100203000D01*
X118363915Y-100203000D01*
X118485904Y-99980961D01*
X118445246Y-99846913D01*
X118325037Y-99592580D01*
X118157519Y-99366586D01*
X117949131Y-99177615D01*
X117753018Y-99060000D01*
X117949131Y-98942385D01*
X118157519Y-98753414D01*
X118325037Y-98527420D01*
X118445246Y-98273087D01*
X118485904Y-98139039D01*
X118363915Y-97917000D01*
X117221000Y-97917000D01*
X116967000Y-97917000D01*
X115824085Y-97917000D01*
X115702096Y-98139039D01*
X112562842Y-98139039D01*
X110579960Y-96156157D01*
X110705037Y-95987420D01*
X110825246Y-95733087D01*
X110865904Y-95599039D01*
X110743915Y-95377000D01*
X109601000Y-95377000D01*
X109601000Y-95397000D01*
X109347000Y-95397000D01*
X109347000Y-95377000D01*
X109327000Y-95377000D01*
X109327000Y-95123000D01*
X109347000Y-95123000D01*
X109347000Y-95103000D01*
X109601000Y-95103000D01*
X109601000Y-95123000D01*
X110743915Y-95123000D01*
X110865904Y-94900961D01*
X110825246Y-94766913D01*
X110705037Y-94512580D01*
X110537519Y-94286586D01*
X110329131Y-94097615D01*
X110137318Y-93982579D01*
X110275101Y-93908932D01*
X110493608Y-93729608D01*
X110672932Y-93511101D01*
X110806182Y-93261808D01*
X110888236Y-92991309D01*
X110915943Y-92710000D01*
X110888236Y-92428691D01*
X110806182Y-92158192D01*
X110672932Y-91908899D01*
X110493608Y-91690392D01*
X110275101Y-91511068D01*
X110142142Y-91440000D01*
X110275101Y-91368932D01*
X110493608Y-91189608D01*
X110672932Y-90971101D01*
X110806182Y-90721808D01*
X110888236Y-90451309D01*
X110915943Y-90170000D01*
X110888236Y-89888691D01*
X110806182Y-89618192D01*
X110672932Y-89368899D01*
X110493608Y-89150392D01*
X110275101Y-88971068D01*
X110142142Y-88900000D01*
X110275101Y-88828932D01*
X110493608Y-88649608D01*
X110672932Y-88431101D01*
X110806182Y-88181808D01*
X110888236Y-87911309D01*
X110915943Y-87630000D01*
X110888236Y-87348691D01*
X110806182Y-87078192D01*
X110672932Y-86828899D01*
X110493608Y-86610392D01*
X110275101Y-86431068D01*
X110142142Y-86360000D01*
X110275101Y-86288932D01*
X110493608Y-86109608D01*
X110672932Y-85891101D01*
X110806182Y-85641808D01*
X110888236Y-85371309D01*
X110915943Y-85090000D01*
X110888236Y-84808691D01*
X110806182Y-84538192D01*
X110672932Y-84288899D01*
X110493608Y-84070392D01*
X110275101Y-83891068D01*
X110142142Y-83820000D01*
X110275101Y-83748932D01*
X110493608Y-83569608D01*
X110672932Y-83351101D01*
X110806182Y-83101808D01*
X110888236Y-82831309D01*
X110915943Y-82550000D01*
X110888236Y-82268691D01*
X110806182Y-81998192D01*
X110672932Y-81748899D01*
X110493608Y-81530392D01*
X110380518Y-81437581D01*
X110398482Y-81435812D01*
X110518180Y-81399502D01*
X110628494Y-81340537D01*
X110725185Y-81261185D01*
X110804537Y-81164494D01*
X110863502Y-81054180D01*
X110899812Y-80934482D01*
X110912072Y-80810000D01*
X110912072Y-80010000D01*
X115652057Y-80010000D01*
X115679764Y-80291309D01*
X115761818Y-80561808D01*
X115895068Y-80811101D01*
X116074392Y-81029608D01*
X116292899Y-81208932D01*
X116425858Y-81280000D01*
X116292899Y-81351068D01*
X116074392Y-81530392D01*
X115895068Y-81748899D01*
X115761818Y-81998192D01*
X115679764Y-82268691D01*
X115652057Y-82550000D01*
X115679764Y-82831309D01*
X115761818Y-83101808D01*
X115895068Y-83351101D01*
X116074392Y-83569608D01*
X116292899Y-83748932D01*
X116425858Y-83820000D01*
X116292899Y-83891068D01*
X116074392Y-84070392D01*
X115895068Y-84288899D01*
X115761818Y-84538192D01*
X115679764Y-84808691D01*
X115652057Y-85090000D01*
X115679764Y-85371309D01*
X115761818Y-85641808D01*
X115895068Y-85891101D01*
X116074392Y-86109608D01*
X116292899Y-86288932D01*
X116425858Y-86360000D01*
X116292899Y-86431068D01*
X116074392Y-86610392D01*
X115895068Y-86828899D01*
X115761818Y-87078192D01*
X115679764Y-87348691D01*
X115652057Y-87630000D01*
X115679764Y-87911309D01*
X115761818Y-88181808D01*
X115895068Y-88431101D01*
X116074392Y-88649608D01*
X116292899Y-88828932D01*
X116425858Y-88900000D01*
X116292899Y-88971068D01*
X116074392Y-89150392D01*
X115895068Y-89368899D01*
X115761818Y-89618192D01*
X115679764Y-89888691D01*
X115652057Y-90170000D01*
X115679764Y-90451309D01*
X115761818Y-90721808D01*
X115895068Y-90971101D01*
X116074392Y-91189608D01*
X116292899Y-91368932D01*
X116425858Y-91440000D01*
X116292899Y-91511068D01*
X116074392Y-91690392D01*
X115895068Y-91908899D01*
X115761818Y-92158192D01*
X115679764Y-92428691D01*
X115652057Y-92710000D01*
X115679764Y-92991309D01*
X115761818Y-93261808D01*
X115895068Y-93511101D01*
X116074392Y-93729608D01*
X116292899Y-93908932D01*
X116425858Y-93980000D01*
X116292899Y-94051068D01*
X116074392Y-94230392D01*
X115895068Y-94448899D01*
X115761818Y-94698192D01*
X115679764Y-94968691D01*
X115652057Y-95250000D01*
X115679764Y-95531309D01*
X115761818Y-95801808D01*
X115895068Y-96051101D01*
X116074392Y-96269608D01*
X116292899Y-96448932D01*
X116430682Y-96522579D01*
X116238869Y-96637615D01*
X116030481Y-96826586D01*
X115862963Y-97052580D01*
X115742754Y-97306913D01*
X115702096Y-97440961D01*
X115824085Y-97663000D01*
X116967000Y-97663000D01*
X116967000Y-97643000D01*
X117221000Y-97643000D01*
X117221000Y-97663000D01*
X118363915Y-97663000D01*
X118485904Y-97440961D01*
X118445246Y-97306913D01*
X118325037Y-97052580D01*
X118157519Y-96826586D01*
X117949131Y-96637615D01*
X117757318Y-96522579D01*
X117895101Y-96448932D01*
X118113608Y-96269608D01*
X118292932Y-96051101D01*
X118426182Y-95801808D01*
X118508236Y-95531309D01*
X118535943Y-95250000D01*
X118508236Y-94968691D01*
X118426182Y-94698192D01*
X118292932Y-94448899D01*
X118113608Y-94230392D01*
X117895101Y-94051068D01*
X117762142Y-93980000D01*
X117895101Y-93908932D01*
X118113608Y-93729608D01*
X118292932Y-93511101D01*
X118426182Y-93261808D01*
X118508236Y-92991309D01*
X118535943Y-92710000D01*
X118508236Y-92428691D01*
X118426182Y-92158192D01*
X118292932Y-91908899D01*
X118113608Y-91690392D01*
X117895101Y-91511068D01*
X117762142Y-91440000D01*
X117895101Y-91368932D01*
X118113608Y-91189608D01*
X118292932Y-90971101D01*
X118426182Y-90721808D01*
X118508236Y-90451309D01*
X118535943Y-90170000D01*
X118508236Y-89888691D01*
X118426182Y-89618192D01*
X118292932Y-89368899D01*
X118113608Y-89150392D01*
X117895101Y-88971068D01*
X117762142Y-88900000D01*
X117895101Y-88828932D01*
X118113608Y-88649608D01*
X118292932Y-88431101D01*
X118426182Y-88181808D01*
X118508236Y-87911309D01*
X118535943Y-87630000D01*
X118508236Y-87348691D01*
X118426182Y-87078192D01*
X118292932Y-86828899D01*
X118113608Y-86610392D01*
X117895101Y-86431068D01*
X117762142Y-86360000D01*
X117895101Y-86288932D01*
X118113608Y-86109608D01*
X118292932Y-85891101D01*
X118426182Y-85641808D01*
X118508236Y-85371309D01*
X118535943Y-85090000D01*
X118508236Y-84808691D01*
X118426182Y-84538192D01*
X118292932Y-84288899D01*
X118113608Y-84070392D01*
X117895101Y-83891068D01*
X117762142Y-83820000D01*
X117895101Y-83748932D01*
X118113608Y-83569608D01*
X118292932Y-83351101D01*
X118426182Y-83101808D01*
X118508236Y-82831309D01*
X118535943Y-82550000D01*
X118508236Y-82268691D01*
X118426182Y-81998192D01*
X118292932Y-81748899D01*
X118113608Y-81530392D01*
X117895101Y-81351068D01*
X117762142Y-81280000D01*
X117895101Y-81208932D01*
X118113608Y-81029608D01*
X118292932Y-80811101D01*
X118426182Y-80561808D01*
X118508236Y-80291309D01*
X118535943Y-80010000D01*
X118508236Y-79728691D01*
X118426182Y-79458192D01*
X118292932Y-79208899D01*
X118113608Y-78990392D01*
X117895101Y-78811068D01*
X117645808Y-78677818D01*
X117375309Y-78595764D01*
X117164492Y-78575000D01*
X117023508Y-78575000D01*
X116812691Y-78595764D01*
X116542192Y-78677818D01*
X116292899Y-78811068D01*
X116074392Y-78990392D01*
X115895068Y-79208899D01*
X115761818Y-79458192D01*
X115679764Y-79728691D01*
X115652057Y-80010000D01*
X110912072Y-80010000D01*
X110912072Y-79210000D01*
X110899812Y-79085518D01*
X110863502Y-78965820D01*
X110804537Y-78855506D01*
X110725185Y-78758815D01*
X110628494Y-78679463D01*
X110518180Y-78620498D01*
X110398482Y-78584188D01*
X110274000Y-78571928D01*
X108674000Y-78571928D01*
X108549518Y-78584188D01*
X108429820Y-78620498D01*
X108319506Y-78679463D01*
X108222815Y-78758815D01*
X108143463Y-78855506D01*
X108084498Y-78965820D01*
X108048188Y-79085518D01*
X108035928Y-79210000D01*
X108035928Y-80810000D01*
X108048188Y-80934482D01*
X108084498Y-81054180D01*
X108143463Y-81164494D01*
X108222815Y-81261185D01*
X108319506Y-81340537D01*
X108429820Y-81399502D01*
X108549518Y-81435812D01*
X108567482Y-81437581D01*
X108454392Y-81530392D01*
X108275068Y-81748899D01*
X108141818Y-81998192D01*
X108059764Y-82268691D01*
X108032057Y-82550000D01*
X108059764Y-82831309D01*
X108141818Y-83101808D01*
X108275068Y-83351101D01*
X108454392Y-83569608D01*
X108672899Y-83748932D01*
X108805858Y-83820000D01*
X108672899Y-83891068D01*
X108454392Y-84070392D01*
X108275068Y-84288899D01*
X108141818Y-84538192D01*
X108059764Y-84808691D01*
X108032057Y-85090000D01*
X108059764Y-85371309D01*
X108141818Y-85641808D01*
X108275068Y-85891101D01*
X108454392Y-86109608D01*
X108672899Y-86288932D01*
X108805858Y-86360000D01*
X108672899Y-86431068D01*
X108454392Y-86610392D01*
X108275068Y-86828899D01*
X108141818Y-87078192D01*
X108059764Y-87348691D01*
X108032057Y-87630000D01*
X108059764Y-87911309D01*
X108141818Y-88181808D01*
X108275068Y-88431101D01*
X108454392Y-88649608D01*
X108672899Y-88828932D01*
X108805858Y-88900000D01*
X108672899Y-88971068D01*
X108454392Y-89150392D01*
X108275068Y-89368899D01*
X108141818Y-89618192D01*
X108059764Y-89888691D01*
X108032057Y-90170000D01*
X108059764Y-90451309D01*
X108141818Y-90721808D01*
X108275068Y-90971101D01*
X108454392Y-91189608D01*
X108672899Y-91368932D01*
X108805858Y-91440000D01*
X108672899Y-91511068D01*
X108454392Y-91690392D01*
X108275068Y-91908899D01*
X108141818Y-92158192D01*
X108059764Y-92428691D01*
X108032057Y-92710000D01*
X108059764Y-92991309D01*
X108141818Y-93261808D01*
X108275068Y-93511101D01*
X108454392Y-93729608D01*
X108672899Y-93908932D01*
X108810682Y-93982579D01*
X108618869Y-94097615D01*
X108410481Y-94286586D01*
X108242963Y-94512580D01*
X108211965Y-94578164D01*
X105358018Y-91724218D01*
X105372426Y-91730186D01*
X105649665Y-91785333D01*
X105932335Y-91785333D01*
X106209574Y-91730186D01*
X106470727Y-91622013D01*
X106705759Y-91464970D01*
X106905637Y-91265092D01*
X107062680Y-91030060D01*
X107170853Y-90768907D01*
X107226000Y-90491668D01*
X107226000Y-90208998D01*
X107170853Y-89931759D01*
X107062680Y-89670606D01*
X106905637Y-89435574D01*
X106705759Y-89235696D01*
X106470727Y-89078653D01*
X106257101Y-88990166D01*
X106470727Y-88901680D01*
X106705759Y-88744637D01*
X106905637Y-88544759D01*
X107062680Y-88309727D01*
X107170853Y-88048574D01*
X107226000Y-87771335D01*
X107226000Y-87488665D01*
X107170853Y-87211426D01*
X107062680Y-86950273D01*
X106905637Y-86715241D01*
X106705759Y-86515363D01*
X106470727Y-86358320D01*
X106209574Y-86250147D01*
X105932335Y-86195000D01*
X105649665Y-86195000D01*
X105372426Y-86250147D01*
X105111273Y-86358320D01*
X104876241Y-86515363D01*
X104676363Y-86715241D01*
X104519320Y-86950273D01*
X104411147Y-87211426D01*
X104356000Y-87488665D01*
X104356000Y-87771335D01*
X104411147Y-88048574D01*
X104519320Y-88309727D01*
X104676363Y-88544759D01*
X104876241Y-88744637D01*
X105111273Y-88901680D01*
X105324899Y-88990166D01*
X105111273Y-89078653D01*
X104876241Y-89235696D01*
X104676363Y-89435574D01*
X104519320Y-89670606D01*
X104411147Y-89931759D01*
X104356000Y-90208998D01*
X104356000Y-90491668D01*
X104411147Y-90768907D01*
X104417115Y-90783315D01*
X100836000Y-87202201D01*
X100836000Y-86401072D01*
X100876000Y-86401072D01*
X101000482Y-86388812D01*
X101120180Y-86352502D01*
X101230494Y-86293537D01*
X101327185Y-86214185D01*
X101406537Y-86117494D01*
X101465502Y-86007180D01*
X101501812Y-85887482D01*
X101514072Y-85763000D01*
X101514072Y-84163000D01*
X101501812Y-84038518D01*
X101465502Y-83918820D01*
X101406537Y-83808506D01*
X101327185Y-83711815D01*
X101230494Y-83632463D01*
X101120180Y-83573498D01*
X101000482Y-83537188D01*
X100982518Y-83535419D01*
X101095608Y-83442608D01*
X101274932Y-83224101D01*
X101408182Y-82974808D01*
X101490236Y-82704309D01*
X101517943Y-82423000D01*
X101490236Y-82141691D01*
X101408182Y-81871192D01*
X101274932Y-81621899D01*
X101095608Y-81403392D01*
X100877101Y-81224068D01*
X100744142Y-81153000D01*
X100877101Y-81081932D01*
X101095608Y-80902608D01*
X101274932Y-80684101D01*
X101408182Y-80434808D01*
X101490236Y-80164309D01*
X101505434Y-80010000D01*
X104349057Y-80010000D01*
X104376764Y-80291309D01*
X104458818Y-80561808D01*
X104592068Y-80811101D01*
X104771392Y-81029608D01*
X104989899Y-81208932D01*
X105239192Y-81342182D01*
X105509691Y-81424236D01*
X105720508Y-81445000D01*
X105861492Y-81445000D01*
X106072309Y-81424236D01*
X106342808Y-81342182D01*
X106592101Y-81208932D01*
X106810608Y-81029608D01*
X106989932Y-80811101D01*
X107123182Y-80561808D01*
X107205236Y-80291309D01*
X107232943Y-80010000D01*
X107205236Y-79728691D01*
X107123182Y-79458192D01*
X106989932Y-79208899D01*
X106810608Y-78990392D01*
X106592101Y-78811068D01*
X106342808Y-78677818D01*
X106072309Y-78595764D01*
X105861492Y-78575000D01*
X105720508Y-78575000D01*
X105509691Y-78595764D01*
X105239192Y-78677818D01*
X104989899Y-78811068D01*
X104771392Y-78990392D01*
X104592068Y-79208899D01*
X104458818Y-79458192D01*
X104376764Y-79728691D01*
X104349057Y-80010000D01*
X101505434Y-80010000D01*
X101517943Y-79883000D01*
X101490236Y-79601691D01*
X101408182Y-79331192D01*
X101274932Y-79081899D01*
X101095608Y-78863392D01*
X100877101Y-78684068D01*
X100627808Y-78550818D01*
X100357309Y-78468764D01*
X100146492Y-78448000D01*
X100005508Y-78448000D01*
X99794691Y-78468764D01*
X99524192Y-78550818D01*
X99274899Y-78684068D01*
X99056392Y-78863392D01*
X98877068Y-79081899D01*
X98743818Y-79331192D01*
X98661764Y-79601691D01*
X98634057Y-79883000D01*
X98661764Y-80164309D01*
X98675292Y-80208907D01*
X98439997Y-80444202D01*
X98410999Y-80468000D01*
X98387201Y-80496998D01*
X98387200Y-80496999D01*
X98316025Y-80583725D01*
X98245453Y-80715755D01*
X98201997Y-80859016D01*
X98187323Y-81008001D01*
X98191000Y-81045333D01*
X98190999Y-84474867D01*
X93721940Y-88943927D01*
X93654932Y-88818565D01*
X93475608Y-88600058D01*
X93257101Y-88420734D01*
X93007808Y-88287484D01*
X92737309Y-88205430D01*
X92526492Y-88184666D01*
X92385508Y-88184666D01*
X92174691Y-88205430D01*
X91904192Y-88287484D01*
X91654899Y-88420734D01*
X91436392Y-88600058D01*
X91257068Y-88818565D01*
X91219261Y-88889296D01*
X91187787Y-88676870D01*
X91092603Y-88410708D01*
X91025671Y-88285486D01*
X90781702Y-88213903D01*
X89968605Y-89027000D01*
X90781702Y-89840097D01*
X91025671Y-89768514D01*
X91028193Y-89763185D01*
X91041764Y-89900975D01*
X91111651Y-90131364D01*
X91022332Y-90204666D01*
X90998534Y-90233664D01*
X87626998Y-93605201D01*
X87598000Y-93628999D01*
X87596417Y-93630928D01*
X87512999Y-93630928D01*
X87339745Y-93647992D01*
X87173149Y-93698528D01*
X87019613Y-93780595D01*
X86885038Y-93891038D01*
X86774595Y-94025613D01*
X86692528Y-94179149D01*
X86641992Y-94345745D01*
X86624928Y-94518999D01*
X86624928Y-95219001D01*
X86641992Y-95392255D01*
X86692528Y-95558851D01*
X86774595Y-95712387D01*
X86885038Y-95846962D01*
X87019613Y-95957405D01*
X87024111Y-95959809D01*
X86985498Y-95991498D01*
X86831167Y-96179551D01*
X86716489Y-96394099D01*
X86645870Y-96626898D01*
X86622025Y-96869000D01*
X77978000Y-96869000D01*
X77978000Y-89027000D01*
X80727057Y-89027000D01*
X80754764Y-89308309D01*
X80836818Y-89578808D01*
X80970068Y-89828101D01*
X81149392Y-90046608D01*
X81367899Y-90225932D01*
X81617192Y-90359182D01*
X81887691Y-90441236D01*
X82098508Y-90462000D01*
X82239492Y-90462000D01*
X82450309Y-90441236D01*
X82720808Y-90359182D01*
X82970101Y-90225932D01*
X83188608Y-90046608D01*
X83210689Y-90019702D01*
X88975903Y-90019702D01*
X89047486Y-90263671D01*
X89302996Y-90384571D01*
X89577184Y-90453300D01*
X89859512Y-90467217D01*
X90139130Y-90425787D01*
X90405292Y-90330603D01*
X90530514Y-90263671D01*
X90602097Y-90019702D01*
X89789000Y-89206605D01*
X88975903Y-90019702D01*
X83210689Y-90019702D01*
X83367932Y-89828101D01*
X83501182Y-89578808D01*
X83583236Y-89308309D01*
X83603998Y-89097512D01*
X88348783Y-89097512D01*
X88390213Y-89377130D01*
X88485397Y-89643292D01*
X88552329Y-89768514D01*
X88796298Y-89840097D01*
X89609395Y-89027000D01*
X88796298Y-88213903D01*
X88552329Y-88285486D01*
X88431429Y-88540996D01*
X88362700Y-88815184D01*
X88348783Y-89097512D01*
X83603998Y-89097512D01*
X83610943Y-89027000D01*
X83583236Y-88745691D01*
X83501182Y-88475192D01*
X83367932Y-88225899D01*
X83210690Y-88034298D01*
X88975903Y-88034298D01*
X89789000Y-88847395D01*
X90602097Y-88034298D01*
X90530514Y-87790329D01*
X90275004Y-87669429D01*
X90000816Y-87600700D01*
X89718488Y-87586783D01*
X89438870Y-87628213D01*
X89172708Y-87723397D01*
X89047486Y-87790329D01*
X88975903Y-88034298D01*
X83210690Y-88034298D01*
X83188608Y-88007392D01*
X82970101Y-87828068D01*
X82720808Y-87694818D01*
X82450309Y-87612764D01*
X82239492Y-87592000D01*
X82098508Y-87592000D01*
X81887691Y-87612764D01*
X81617192Y-87694818D01*
X81367899Y-87828068D01*
X81149392Y-88007392D01*
X80970068Y-88225899D01*
X80836818Y-88475192D01*
X80754764Y-88745691D01*
X80727057Y-89027000D01*
X77978000Y-89027000D01*
X77978000Y-84420967D01*
X80892000Y-84420967D01*
X80892000Y-84743033D01*
X80954832Y-85058912D01*
X81078082Y-85356463D01*
X81257013Y-85624252D01*
X81484748Y-85851987D01*
X81752537Y-86030918D01*
X82050088Y-86154168D01*
X82365967Y-86217000D01*
X82688033Y-86217000D01*
X83003912Y-86154168D01*
X83301463Y-86030918D01*
X83569252Y-85851987D01*
X83796987Y-85624252D01*
X83975918Y-85356463D01*
X84099168Y-85058912D01*
X84162000Y-84743033D01*
X84162000Y-84420967D01*
X87392000Y-84420967D01*
X87392000Y-84743033D01*
X87454832Y-85058912D01*
X87578082Y-85356463D01*
X87757013Y-85624252D01*
X87984748Y-85851987D01*
X88252537Y-86030918D01*
X88550088Y-86154168D01*
X88865967Y-86217000D01*
X89188033Y-86217000D01*
X89503912Y-86154168D01*
X89801463Y-86030918D01*
X90069252Y-85851987D01*
X90296987Y-85624252D01*
X90475918Y-85356463D01*
X90599168Y-85058912D01*
X90662000Y-84743033D01*
X90662000Y-84420967D01*
X90599168Y-84105088D01*
X90475918Y-83807537D01*
X90296987Y-83539748D01*
X90069252Y-83312013D01*
X89801463Y-83133082D01*
X89503912Y-83009832D01*
X89188033Y-82947000D01*
X88865967Y-82947000D01*
X88550088Y-83009832D01*
X88252537Y-83133082D01*
X87984748Y-83312013D01*
X87757013Y-83539748D01*
X87578082Y-83807537D01*
X87454832Y-84105088D01*
X87392000Y-84420967D01*
X84162000Y-84420967D01*
X84099168Y-84105088D01*
X83975918Y-83807537D01*
X83796987Y-83539748D01*
X83569252Y-83312013D01*
X83301463Y-83133082D01*
X83003912Y-83009832D01*
X82688033Y-82947000D01*
X82365967Y-82947000D01*
X82050088Y-83009832D01*
X81752537Y-83133082D01*
X81484748Y-83312013D01*
X81257013Y-83539748D01*
X81078082Y-83807537D01*
X80954832Y-84105088D01*
X80892000Y-84420967D01*
X77978000Y-84420967D01*
X77978000Y-79920967D01*
X80892000Y-79920967D01*
X80892000Y-80243033D01*
X80954832Y-80558912D01*
X81078082Y-80856463D01*
X81257013Y-81124252D01*
X81484748Y-81351987D01*
X81752537Y-81530918D01*
X82050088Y-81654168D01*
X82365967Y-81717000D01*
X82688033Y-81717000D01*
X83003912Y-81654168D01*
X83301463Y-81530918D01*
X83569252Y-81351987D01*
X83796987Y-81124252D01*
X83975918Y-80856463D01*
X84099168Y-80558912D01*
X84162000Y-80243033D01*
X84162000Y-79920967D01*
X87392000Y-79920967D01*
X87392000Y-80243033D01*
X87454832Y-80558912D01*
X87578082Y-80856463D01*
X87757013Y-81124252D01*
X87984748Y-81351987D01*
X88252537Y-81530918D01*
X88550088Y-81654168D01*
X88865967Y-81717000D01*
X89188033Y-81717000D01*
X89503912Y-81654168D01*
X89801463Y-81530918D01*
X90069252Y-81351987D01*
X90296987Y-81124252D01*
X90475918Y-80856463D01*
X90599168Y-80558912D01*
X90662000Y-80243033D01*
X90662000Y-79920967D01*
X90654448Y-79883000D01*
X91014057Y-79883000D01*
X91041764Y-80164309D01*
X91123818Y-80434808D01*
X91257068Y-80684101D01*
X91436392Y-80902608D01*
X91654899Y-81081932D01*
X91787858Y-81153000D01*
X91654899Y-81224068D01*
X91436392Y-81403392D01*
X91257068Y-81621899D01*
X91123818Y-81871192D01*
X91041764Y-82141691D01*
X91014057Y-82423000D01*
X91041764Y-82704309D01*
X91123818Y-82974808D01*
X91257068Y-83224101D01*
X91436392Y-83442608D01*
X91654899Y-83621932D01*
X91787858Y-83693000D01*
X91654899Y-83764068D01*
X91436392Y-83943392D01*
X91257068Y-84161899D01*
X91123818Y-84411192D01*
X91041764Y-84681691D01*
X91014057Y-84963000D01*
X91041764Y-85244309D01*
X91123818Y-85514808D01*
X91257068Y-85764101D01*
X91436392Y-85982608D01*
X91654899Y-86161932D01*
X91904192Y-86295182D01*
X92174691Y-86377236D01*
X92385508Y-86398000D01*
X92526492Y-86398000D01*
X92737309Y-86377236D01*
X93007808Y-86295182D01*
X93257101Y-86161932D01*
X93475608Y-85982608D01*
X93654932Y-85764101D01*
X93788182Y-85514808D01*
X93870236Y-85244309D01*
X93897943Y-84963000D01*
X93870236Y-84681691D01*
X93788182Y-84411192D01*
X93654932Y-84161899D01*
X93475608Y-83943392D01*
X93257101Y-83764068D01*
X93124142Y-83693000D01*
X93257101Y-83621932D01*
X93475608Y-83442608D01*
X93654932Y-83224101D01*
X93788182Y-82974808D01*
X93870236Y-82704309D01*
X93897943Y-82423000D01*
X93870236Y-82141691D01*
X93788182Y-81871192D01*
X93654932Y-81621899D01*
X93475608Y-81403392D01*
X93257101Y-81224068D01*
X93124142Y-81153000D01*
X93257101Y-81081932D01*
X93475608Y-80902608D01*
X93654932Y-80684101D01*
X93788182Y-80434808D01*
X93870236Y-80164309D01*
X93897943Y-79883000D01*
X93870236Y-79601691D01*
X93788182Y-79331192D01*
X93654932Y-79081899D01*
X93475608Y-78863392D01*
X93257101Y-78684068D01*
X93007808Y-78550818D01*
X92737309Y-78468764D01*
X92526492Y-78448000D01*
X92385508Y-78448000D01*
X92174691Y-78468764D01*
X91904192Y-78550818D01*
X91654899Y-78684068D01*
X91436392Y-78863392D01*
X91257068Y-79081899D01*
X91123818Y-79331192D01*
X91041764Y-79601691D01*
X91014057Y-79883000D01*
X90654448Y-79883000D01*
X90599168Y-79605088D01*
X90475918Y-79307537D01*
X90296987Y-79039748D01*
X90069252Y-78812013D01*
X89801463Y-78633082D01*
X89503912Y-78509832D01*
X89188033Y-78447000D01*
X88865967Y-78447000D01*
X88550088Y-78509832D01*
X88252537Y-78633082D01*
X87984748Y-78812013D01*
X87757013Y-79039748D01*
X87578082Y-79307537D01*
X87454832Y-79605088D01*
X87392000Y-79920967D01*
X84162000Y-79920967D01*
X84099168Y-79605088D01*
X83975918Y-79307537D01*
X83796987Y-79039748D01*
X83569252Y-78812013D01*
X83301463Y-78633082D01*
X83003912Y-78509832D01*
X82688033Y-78447000D01*
X82365967Y-78447000D01*
X82050088Y-78509832D01*
X81752537Y-78633082D01*
X81484748Y-78812013D01*
X81257013Y-79039748D01*
X81078082Y-79307537D01*
X80954832Y-79605088D01*
X80892000Y-79920967D01*
X77978000Y-79920967D01*
X77978000Y-75946000D01*
X121793000Y-75946000D01*
X121793000Y-118618000D01*
M02*
