M48
; DRILL file {KiCad (5.1.2)-1} date 30/12/2019 19:16:05
; FORMAT={-:-/ absolute / inch / decimal}
; #@! TF.CreationDate,2019-12-30T19:16:05+01:00
; #@! TF.GenerationSoftware,Kicad,Pcbnew,(5.1.2)-1
; #@! TF.FileFunction,Plated,1,2,PTH
FMAT,2
INCH
T1C0.0295
T2C0.0315
T3C0.0433
%
G90
G05
T1
X3.47Y-3.735
X3.47Y-3.8137
X3.47Y-3.8925
X3.47Y-3.9712
X3.47Y-4.05
X3.47Y-4.1287
X3.47Y-4.2074
X3.47Y-4.2862
X3.47Y-4.3649
X3.47Y-4.4437
T2
X4.165Y-3.15
X4.165Y-3.45
X4.165Y-3.5571
X4.165Y-3.754
X3.64Y-3.9117
X3.64Y-4.0117
X3.64Y-4.1117
X3.94Y-3.9117
X3.94Y-4.0117
X3.94Y-4.1117
X4.165Y-3.861
X4.165Y-4.0579
X4.31Y-3.15
X4.31Y-3.25
X4.31Y-3.35
X4.31Y-3.45
X4.31Y-3.55
X4.31Y-3.65
X4.31Y-3.75
X4.31Y-3.85
X4.31Y-3.95
X4.31Y-4.05
X4.31Y-4.15
X4.31Y-4.25
X4.31Y-4.35
X4.31Y-4.45
X4.61Y-3.15
X4.61Y-3.25
X4.61Y-3.35
X4.61Y-3.45
X4.61Y-3.55
X4.61Y-3.65
X4.61Y-3.75
X4.61Y-3.85
X4.61Y-3.95
X4.61Y-4.05
X4.61Y-4.15
X4.61Y-4.25
X4.61Y-4.35
X4.61Y-4.45
X3.64Y-4.295
X3.64Y-4.395
X3.64Y-4.495
X3.94Y-4.295
X3.94Y-4.395
X3.94Y-4.495
X3.235Y-3.505
X3.535Y-3.505
X3.64Y-3.145
X3.64Y-3.245
X3.64Y-3.345
X3.94Y-3.145
X3.94Y-3.245
X3.94Y-3.345
X4.165Y-4.165
X4.165Y-4.465
X3.64Y-3.5283
X3.64Y-3.6283
X3.64Y-3.7283
X3.94Y-3.5283
X3.94Y-3.6283
X3.94Y-3.7283
T3
X3.2491Y-3.1528
X3.2491Y-3.33
X3.505Y-3.1528
X3.505Y-3.33
T0
M30
